G75*
%MOIN*%
%OFA0B0*%
%FSLAX24Y24*%
%IPPOS*%
%LPD*%
%AMOC8*
5,1,8,0,0,1.08239X$1,22.5*
%
%ADD10C,0.0010*%
%ADD11R,0.0114X0.0276*%
%ADD12R,0.0276X0.0114*%
%ADD13R,0.0433X0.0394*%
%ADD14R,0.0394X0.0433*%
%ADD15R,0.0500X0.0250*%
%ADD16C,0.0100*%
%ADD17R,0.0740X0.0740*%
%ADD18C,0.0740*%
%ADD19C,0.0080*%
%ADD20C,0.0120*%
%ADD21C,0.0350*%
D10*
X000180Y000430D02*
X000180Y007430D01*
X000182Y007460D01*
X000187Y007490D01*
X000196Y007519D01*
X000209Y007546D01*
X000224Y007572D01*
X000243Y007596D01*
X000264Y007617D01*
X000288Y007636D01*
X000314Y007651D01*
X000341Y007664D01*
X000370Y007673D01*
X000400Y007678D01*
X000430Y007680D01*
X005930Y007680D01*
X005960Y007678D01*
X005990Y007673D01*
X006019Y007664D01*
X006046Y007651D01*
X006072Y007636D01*
X006096Y007617D01*
X006117Y007596D01*
X006136Y007572D01*
X006151Y007546D01*
X006164Y007519D01*
X006173Y007490D01*
X006178Y007460D01*
X006180Y007430D01*
X006180Y000430D01*
X006178Y000400D01*
X006173Y000370D01*
X006164Y000341D01*
X006151Y000314D01*
X006136Y000288D01*
X006117Y000264D01*
X006096Y000243D01*
X006072Y000224D01*
X006046Y000209D01*
X006019Y000196D01*
X005990Y000187D01*
X005960Y000182D01*
X005930Y000180D01*
X000430Y000180D01*
X000400Y000182D01*
X000370Y000187D01*
X000341Y000196D01*
X000314Y000209D01*
X000288Y000224D01*
X000264Y000243D01*
X000243Y000264D01*
X000224Y000288D01*
X000209Y000314D01*
X000196Y000341D01*
X000187Y000370D01*
X000182Y000400D01*
X000180Y000430D01*
D11*
X002688Y003442D03*
X002885Y003442D03*
X003082Y003442D03*
X003278Y003442D03*
X003475Y003442D03*
X003672Y003442D03*
X003672Y004918D03*
X003475Y004918D03*
X003278Y004918D03*
X003082Y004918D03*
X002885Y004918D03*
X002688Y004918D03*
D12*
X002442Y004672D03*
X002442Y004475D03*
X002442Y004278D03*
X002442Y004082D03*
X002442Y003885D03*
X002442Y003688D03*
X003918Y003688D03*
X003918Y003885D03*
X003918Y004082D03*
X003918Y004278D03*
X003918Y004475D03*
X003918Y004672D03*
D13*
X003984Y005805D03*
X003276Y005805D03*
X004801Y005805D03*
X005509Y005805D03*
X005534Y003005D03*
X005534Y002430D03*
X004826Y002430D03*
X004826Y003005D03*
D14*
X004930Y003576D03*
X004930Y004284D03*
X005680Y004284D03*
X005680Y003576D03*
X004118Y002784D03*
X004118Y002076D03*
X002680Y002076D03*
X002680Y002784D03*
X001530Y003576D03*
X001530Y004284D03*
X000730Y004284D03*
X000730Y003576D03*
D15*
X000730Y004772D03*
X000730Y005092D03*
X001530Y005092D03*
X001530Y004772D03*
X004930Y004772D03*
X004930Y005092D03*
X005680Y005092D03*
X005680Y004772D03*
D16*
X005680Y004780D02*
X005680Y005080D01*
X004930Y005080D02*
X004930Y004780D01*
X004930Y003576D02*
X004900Y003545D01*
X004670Y003545D01*
X004473Y003348D01*
X004473Y000888D01*
X004680Y000680D01*
X004473Y000888D02*
X004180Y001180D01*
X003555Y001180D01*
X003278Y001457D01*
X003278Y003442D01*
X003672Y003442D02*
X003672Y003230D01*
X004118Y002784D01*
X003672Y002922D02*
X003618Y002868D01*
X003672Y002922D02*
X003672Y003230D01*
X003055Y002390D02*
X002680Y002784D01*
X003055Y002390D02*
X003055Y001305D01*
X003680Y000680D01*
X003618Y002055D02*
X004097Y002055D01*
X004118Y002076D01*
X005680Y000680D02*
X006005Y001005D01*
X006005Y003230D01*
X005680Y003555D01*
X005680Y003576D01*
X003278Y004918D02*
X003276Y004918D01*
X003276Y005805D01*
X002885Y006035D02*
X003305Y006455D01*
X005430Y006455D01*
X005680Y006705D01*
X005680Y007180D01*
X004680Y007180D02*
X004680Y006905D01*
X004430Y006655D01*
X003180Y006655D01*
X002688Y006163D01*
X002688Y004918D01*
X002442Y004672D02*
X002442Y006942D01*
X002680Y007180D01*
X001680Y007180D02*
X001680Y006955D01*
X000330Y005605D01*
X000330Y003805D01*
X000540Y003595D01*
X000730Y004780D02*
X000730Y005080D01*
X001530Y005080D02*
X001530Y004780D01*
X002885Y004918D02*
X002885Y006035D01*
D17*
X000680Y000680D03*
D18*
X001680Y000680D03*
X002680Y000680D03*
X003680Y000680D03*
X004680Y000680D03*
X005680Y000680D03*
X005680Y007180D03*
X004680Y007180D03*
X003680Y007180D03*
X002680Y007180D03*
X001680Y007180D03*
X000680Y007180D03*
D19*
X002105Y005980D02*
X002105Y004555D01*
X002185Y004475D01*
X002442Y004475D01*
X002442Y004278D02*
X002132Y004278D01*
X001918Y004493D01*
X001918Y004930D01*
X001793Y005055D01*
X001467Y005055D01*
X001530Y005092D01*
X000730Y005092D01*
X000730Y004772D02*
X000730Y004284D01*
X000730Y003576D02*
X000540Y003595D01*
X000730Y003576D02*
X000730Y002860D01*
X000930Y002680D01*
X001680Y002680D01*
X002430Y003430D01*
X002676Y003430D01*
X002688Y003442D01*
X002885Y003260D02*
X002805Y003180D01*
X002430Y003180D01*
X001555Y002305D01*
X001055Y002305D01*
X001055Y003055D02*
X001430Y003430D01*
X001530Y003576D01*
X001530Y004284D02*
X001530Y004772D01*
X002442Y004278D02*
X002442Y004082D01*
X002442Y003885D01*
X002442Y003688D01*
X002885Y003442D02*
X002885Y003260D01*
X003082Y003166D02*
X002680Y002784D01*
X003082Y003166D02*
X003082Y003442D01*
X003475Y003442D02*
X003493Y003459D01*
X003493Y004430D01*
X003475Y004918D02*
X003475Y005266D01*
X003984Y005805D01*
X003780Y005330D02*
X003680Y005230D01*
X003680Y004926D01*
X003672Y004918D01*
X003930Y004780D02*
X003930Y004684D01*
X003918Y004672D01*
X003918Y004475D01*
X003918Y004278D01*
X003918Y004082D01*
X003918Y003885D01*
X004135Y003885D01*
X004430Y004180D01*
X004430Y004430D01*
X004930Y004284D02*
X004930Y004772D01*
X004930Y005092D02*
X005305Y005092D01*
X005305Y003185D01*
X005534Y003005D01*
X005515Y003095D01*
X004845Y003015D02*
X004826Y003005D01*
X004826Y002430D01*
X004826Y002034D01*
X004930Y001930D01*
X004180Y002743D02*
X004118Y002784D01*
X005680Y004284D02*
X005680Y004772D01*
X005680Y005092D02*
X005305Y005092D01*
X005180Y005430D02*
X004580Y005430D01*
X003930Y004780D01*
X003780Y005330D02*
X004205Y005330D01*
X004680Y005805D01*
X004801Y005805D01*
X005180Y005430D02*
X005640Y005890D01*
X005509Y005805D01*
D20*
X005534Y003005D02*
X005534Y002430D01*
X005535Y002035D01*
X005430Y001930D01*
X002680Y002055D02*
X002680Y002076D01*
X002680Y001680D01*
X002430Y001430D01*
X000930Y001430D01*
X000680Y001180D01*
X000680Y000680D01*
X002180Y002055D02*
X002680Y002055D01*
X002442Y003688D02*
X002038Y003688D01*
X002030Y003680D01*
D21*
X002030Y003680D03*
X001055Y003055D03*
X001055Y002305D03*
X002180Y002055D03*
X003618Y002055D03*
X003618Y002868D03*
X003493Y004430D03*
X004430Y004430D03*
X004930Y001930D03*
X005430Y001930D03*
X002105Y005980D03*
M02*
