G75*
%MOIN*%
%OFA0B0*%
%FSLAX24Y24*%
%IPPOS*%
%LPD*%
%AMOC8*
5,1,8,0,0,1.08239X$1,22.5*
%
%ADD10C,0.0000*%
%ADD11R,0.0114X0.0276*%
%ADD12R,0.0276X0.0114*%
%ADD13R,0.0433X0.0394*%
%ADD14R,0.0394X0.0433*%
%ADD15R,0.0500X0.0250*%
%ADD16C,0.0100*%
%ADD17R,0.0740X0.0740*%
%ADD18C,0.0740*%
%ADD19C,0.0080*%
%ADD20C,0.0350*%
D10*
X000225Y000430D02*
X000225Y007680D01*
X006225Y007680D01*
X006225Y000430D01*
X006223Y000400D01*
X006218Y000370D01*
X006209Y000341D01*
X006196Y000314D01*
X006181Y000288D01*
X006162Y000264D01*
X006141Y000243D01*
X006117Y000224D01*
X006091Y000209D01*
X006064Y000196D01*
X006035Y000187D01*
X006005Y000182D01*
X005975Y000180D01*
X000475Y000180D01*
X000445Y000182D01*
X000415Y000187D01*
X000386Y000196D01*
X000359Y000209D01*
X000333Y000224D01*
X000309Y000243D01*
X000288Y000264D01*
X000269Y000288D01*
X000254Y000314D01*
X000241Y000341D01*
X000232Y000370D01*
X000227Y000400D01*
X000225Y000430D01*
D11*
X002733Y003442D03*
X002930Y003442D03*
X003127Y003442D03*
X003323Y003442D03*
X003520Y003442D03*
X003717Y003442D03*
X003717Y004918D03*
X003520Y004918D03*
X003323Y004918D03*
X003127Y004918D03*
X002930Y004918D03*
X002733Y004918D03*
D12*
X002487Y004672D03*
X002487Y004475D03*
X002487Y004278D03*
X002487Y004082D03*
X002487Y003885D03*
X002487Y003688D03*
X003963Y003688D03*
X003963Y003885D03*
X003963Y004082D03*
X003963Y004278D03*
X003963Y004475D03*
X003963Y004672D03*
D13*
X004029Y005805D03*
X003321Y005805D03*
X004846Y005805D03*
X005554Y005805D03*
X005579Y003005D03*
X005579Y002430D03*
X004871Y002430D03*
X004871Y003005D03*
D14*
X004975Y003576D03*
X004975Y004284D03*
X005725Y004284D03*
X005725Y003576D03*
X004163Y002784D03*
X004163Y002076D03*
X002725Y002076D03*
X002725Y002784D03*
X001575Y003576D03*
X001575Y004284D03*
X000775Y004284D03*
X000775Y003576D03*
D15*
X000775Y004772D03*
X000775Y005092D03*
X001575Y005092D03*
X001575Y004772D03*
X004975Y004772D03*
X004975Y005092D03*
X005725Y005092D03*
X005725Y004772D03*
D16*
X005725Y004780D02*
X005725Y005080D01*
X004975Y005080D02*
X004975Y004780D01*
X003323Y004918D02*
X003321Y004918D01*
X003321Y005805D01*
X001575Y005080D02*
X001575Y004780D01*
X000775Y004780D02*
X000775Y005080D01*
D17*
X000725Y007180D03*
X005725Y000680D03*
D18*
X004725Y000680D03*
X003725Y000680D03*
X002725Y000680D03*
X001725Y000680D03*
X000725Y000680D03*
X001725Y007180D03*
X002725Y007180D03*
X003725Y007180D03*
X004725Y007180D03*
X005725Y007180D03*
D19*
X005725Y006705D01*
X005475Y006455D01*
X003350Y006455D01*
X002930Y006035D01*
X002930Y004918D01*
X002733Y004918D02*
X002733Y006163D01*
X003225Y006655D01*
X004475Y006655D01*
X004725Y006905D01*
X004725Y007180D01*
X005554Y005805D02*
X005685Y005890D01*
X005225Y005430D01*
X004625Y005430D01*
X003975Y004780D01*
X003975Y004684D01*
X003963Y004672D01*
X003963Y004475D01*
X003963Y004278D01*
X003963Y004082D01*
X003963Y003885D01*
X004180Y003885D01*
X004475Y004180D01*
X004475Y004430D01*
X004975Y004284D02*
X004975Y004772D01*
X004975Y005092D02*
X005350Y005092D01*
X005350Y003185D01*
X005579Y003005D01*
X005579Y002430D01*
X005560Y002015D01*
X005475Y001930D01*
X004975Y001930D02*
X004871Y002034D01*
X004871Y002430D01*
X004871Y003005D01*
X004890Y003015D01*
X004528Y003358D02*
X004528Y000878D01*
X004725Y000680D01*
X004528Y000878D02*
X004225Y001180D01*
X003600Y001180D01*
X003323Y001457D01*
X003323Y003442D01*
X003127Y003442D02*
X003127Y003166D01*
X002725Y002784D01*
X003100Y002390D01*
X003100Y001305D01*
X003725Y000680D01*
X002725Y001680D02*
X002725Y002076D01*
X002265Y002095D01*
X002225Y002055D01*
X002725Y001680D02*
X002475Y001430D01*
X000975Y001430D01*
X000725Y001180D01*
X000725Y000680D01*
X001100Y002305D02*
X001600Y002305D01*
X002475Y003180D01*
X002850Y003180D01*
X002930Y003260D01*
X002930Y003442D01*
X002733Y003442D02*
X002721Y003430D01*
X002475Y003430D01*
X001725Y002680D01*
X000975Y002680D01*
X000725Y002930D01*
X000775Y003576D01*
X000585Y003595D01*
X000375Y003805D01*
X000375Y005605D01*
X001725Y006955D01*
X001725Y007180D01*
X002487Y006942D02*
X002725Y007180D01*
X002487Y006942D02*
X002487Y004672D01*
X002487Y004475D02*
X002230Y004475D01*
X002150Y004555D01*
X002150Y005980D01*
X001838Y005055D02*
X001512Y005055D01*
X001575Y005092D01*
X000775Y005092D01*
X000775Y004772D02*
X000775Y004284D01*
X001575Y003576D02*
X001475Y003430D01*
X001100Y003055D01*
X001983Y003688D02*
X002075Y003680D01*
X001983Y003688D02*
X002487Y003688D01*
X002487Y003885D01*
X002487Y004082D01*
X002487Y004278D01*
X002177Y004278D01*
X001963Y004493D01*
X001963Y004930D01*
X001838Y005055D01*
X001575Y004772D02*
X001575Y004284D01*
X003538Y004430D02*
X003538Y003459D01*
X003520Y003442D01*
X003717Y003442D02*
X003717Y003230D01*
X003717Y003230D01*
X004163Y002784D01*
X004225Y002743D01*
X003717Y002922D02*
X003663Y002868D01*
X003717Y002922D02*
X003717Y003230D01*
X004528Y003358D02*
X004765Y003595D01*
X004975Y003576D01*
X005560Y003095D02*
X005579Y003005D01*
X005810Y003470D02*
X006100Y003180D01*
X006100Y001055D01*
X005725Y000680D01*
X004163Y002076D02*
X004142Y002055D01*
X003663Y002055D01*
X005725Y003576D02*
X005810Y003595D01*
X005810Y003470D01*
X005725Y004284D02*
X005725Y004772D01*
X005725Y005092D02*
X005350Y005092D01*
X004846Y005805D02*
X004725Y005805D01*
X004250Y005330D01*
X003825Y005330D01*
X003725Y005230D01*
X003725Y004926D01*
X003717Y004918D01*
X003520Y004918D02*
X003520Y005266D01*
X004029Y005805D01*
D20*
X004475Y004430D03*
X003538Y004430D03*
X003663Y002868D03*
X003663Y002055D03*
X004975Y001930D03*
X005475Y001930D03*
X002225Y002055D03*
X001100Y002305D03*
X001100Y003055D03*
X002075Y003680D03*
X002150Y005980D03*
M02*
