G75*
%MOIN*%
%OFA0B0*%
%FSLAX24Y24*%
%IPPOS*%
%LPD*%
%AMOC8*
5,1,8,0,0,1.08239X$1,22.5*
%
%ADD10R,0.0740X0.0740*%
%ADD11C,0.0740*%
%ADD12C,0.0350*%
%ADD13C,0.0120*%
%ADD14C,0.0160*%
%ADD15C,0.0100*%
%ADD16C,0.0080*%
D10*
X000725Y000680D03*
D11*
X001725Y000680D03*
X002725Y000680D03*
X003725Y000680D03*
X004725Y000680D03*
X005725Y000680D03*
X005725Y007180D03*
X004725Y007180D03*
X003725Y007180D03*
X002725Y007180D03*
X001725Y007180D03*
X000725Y007180D03*
D12*
X002150Y005980D03*
X003538Y004430D03*
X004475Y004430D03*
X003663Y002868D03*
X003663Y002055D03*
X004975Y001930D03*
X005475Y001930D03*
X002225Y002055D03*
X001100Y002305D03*
X001100Y003055D03*
X002075Y003680D03*
D13*
X002175Y003580D01*
X002175Y002105D01*
X002225Y002055D01*
X003663Y002055D01*
X003713Y001993D01*
X004225Y001430D01*
X005225Y001430D01*
X005475Y001680D01*
X005475Y001930D01*
D14*
X005349Y002241D02*
X003948Y002241D01*
X003946Y002245D02*
X003852Y002339D01*
X003729Y002390D01*
X003596Y002390D01*
X003473Y002339D01*
X003409Y002275D01*
X002479Y002275D01*
X002415Y002339D01*
X002395Y002347D01*
X002395Y003577D01*
X002410Y003613D01*
X002410Y003747D01*
X002359Y003870D01*
X002265Y003964D01*
X002250Y003970D01*
X002701Y003970D01*
X003453Y003218D01*
X003453Y003131D01*
X003379Y003057D01*
X003328Y002934D01*
X003328Y002801D01*
X003379Y002678D01*
X003473Y002584D01*
X003596Y002533D01*
X003729Y002533D01*
X003852Y002584D01*
X003946Y002678D01*
X003997Y002801D01*
X003997Y002934D01*
X003946Y003057D01*
X003872Y003131D01*
X003872Y003392D01*
X002997Y004267D01*
X002874Y004390D01*
X001826Y004390D01*
X001513Y004077D01*
X001390Y003954D01*
X001390Y003468D01*
X001640Y003218D01*
X001640Y001843D01*
X001763Y001720D01*
X002389Y001094D01*
X002276Y000980D01*
X002236Y000886D01*
X002235Y000891D01*
X002195Y000968D01*
X002145Y001038D01*
X002083Y001100D01*
X002013Y001150D01*
X001936Y001190D01*
X001854Y001216D01*
X001768Y001230D01*
X001745Y001230D01*
X001745Y000700D01*
X001705Y000700D01*
X001705Y001230D01*
X001682Y001230D01*
X001596Y001216D01*
X001514Y001190D01*
X001437Y001150D01*
X001367Y001100D01*
X001305Y001038D01*
X001255Y000969D01*
X001255Y001116D01*
X001161Y001210D01*
X000390Y001210D01*
X000390Y006765D01*
X000425Y006731D01*
X000620Y006650D01*
X000830Y006650D01*
X000890Y006675D01*
X000890Y003548D01*
X000808Y003630D01*
X000642Y003630D01*
X000525Y003513D01*
X000525Y003347D01*
X000765Y003107D01*
X000765Y002988D01*
X000816Y002865D01*
X000900Y002781D01*
X000900Y002579D01*
X000816Y002495D01*
X000765Y002372D01*
X000765Y002238D01*
X000816Y002115D01*
X000910Y002021D01*
X001033Y001970D01*
X001167Y001970D01*
X001290Y002021D01*
X001384Y002115D01*
X001435Y002238D01*
X001435Y002372D01*
X001384Y002495D01*
X001300Y002579D01*
X001300Y002781D01*
X001384Y002865D01*
X001435Y002988D01*
X001435Y003122D01*
X001384Y003245D01*
X001310Y003319D01*
X001310Y006845D01*
X001425Y006731D01*
X001620Y006650D01*
X001830Y006650D01*
X002025Y006731D01*
X002174Y006880D01*
X002225Y007002D01*
X002276Y006880D01*
X002425Y006731D01*
X002561Y006674D01*
X002202Y006315D01*
X002083Y006315D01*
X001960Y006264D01*
X001866Y006170D01*
X001815Y006047D01*
X001815Y005913D01*
X001866Y005790D01*
X001960Y005696D01*
X002083Y005645D01*
X002217Y005645D01*
X002340Y005696D01*
X002434Y005790D01*
X002485Y005913D01*
X002485Y006032D01*
X002808Y006355D01*
X003003Y006355D01*
X003013Y006345D01*
X003187Y006345D01*
X003529Y006687D01*
X003620Y006650D01*
X003830Y006650D01*
X004025Y006731D01*
X004174Y006880D01*
X004225Y007002D01*
X004276Y006880D01*
X004425Y006731D01*
X004620Y006650D01*
X004830Y006650D01*
X005025Y006731D01*
X005174Y006880D01*
X005225Y007002D01*
X005276Y006880D01*
X005425Y006731D01*
X005620Y006650D01*
X005830Y006650D01*
X006025Y006731D01*
X006060Y006765D01*
X006060Y001095D01*
X006025Y001129D01*
X005935Y001167D01*
X005935Y001218D01*
X006060Y001343D01*
X006060Y003454D01*
X005435Y004079D01*
X005312Y004202D01*
X004062Y004202D01*
X003872Y004392D01*
X003872Y004497D01*
X003821Y004620D01*
X003727Y004714D01*
X003604Y004765D01*
X003471Y004765D01*
X003348Y004714D01*
X003254Y004620D01*
X003203Y004497D01*
X003203Y004363D01*
X003254Y004240D01*
X003348Y004146D01*
X003471Y004095D01*
X003576Y004095D01*
X003888Y003783D01*
X005138Y003783D01*
X005640Y003281D01*
X005640Y002224D01*
X005542Y002265D01*
X005408Y002265D01*
X005285Y002214D01*
X005191Y002120D01*
X005140Y001997D01*
X005140Y001863D01*
X005191Y001740D01*
X005208Y001724D01*
X005134Y001650D01*
X004322Y001650D01*
X003997Y002006D01*
X003997Y002122D01*
X003946Y002245D01*
X003997Y002082D02*
X005175Y002082D01*
X005140Y001924D02*
X004073Y001924D01*
X004217Y001765D02*
X005181Y001765D01*
X005601Y002241D02*
X005640Y002241D01*
X005640Y002399D02*
X002395Y002399D01*
X002395Y002558D02*
X003535Y002558D01*
X003363Y002716D02*
X002395Y002716D01*
X002395Y002875D02*
X003328Y002875D01*
X003368Y003033D02*
X002395Y003033D01*
X002395Y003192D02*
X003453Y003192D01*
X003321Y003350D02*
X002395Y003350D01*
X002395Y003509D02*
X003162Y003509D01*
X003004Y003667D02*
X002410Y003667D01*
X002377Y003826D02*
X002845Y003826D01*
X003122Y004143D02*
X003356Y004143D01*
X003280Y003984D02*
X003687Y003984D01*
X003845Y003826D02*
X003439Y003826D01*
X003597Y003667D02*
X005254Y003667D01*
X005412Y003509D02*
X003756Y003509D01*
X003872Y003350D02*
X005571Y003350D01*
X005640Y003192D02*
X003872Y003192D01*
X003957Y003033D02*
X005640Y003033D01*
X005640Y002875D02*
X003997Y002875D01*
X003962Y002716D02*
X005640Y002716D01*
X005640Y002558D02*
X003789Y002558D01*
X003963Y004301D02*
X006060Y004301D01*
X006060Y004143D02*
X005372Y004143D01*
X005530Y003984D02*
X006060Y003984D01*
X006060Y003826D02*
X005689Y003826D01*
X005847Y003667D02*
X006060Y003667D01*
X006060Y003509D02*
X006006Y003509D01*
X006060Y003350D02*
X006060Y003350D01*
X006060Y003192D02*
X006060Y003192D01*
X006060Y003033D02*
X006060Y003033D01*
X006060Y002875D02*
X006060Y002875D01*
X006060Y002716D02*
X006060Y002716D01*
X006060Y002558D02*
X006060Y002558D01*
X006060Y002399D02*
X006060Y002399D01*
X006060Y002241D02*
X006060Y002241D01*
X006060Y002082D02*
X006060Y002082D01*
X006060Y001924D02*
X006060Y001924D01*
X006060Y001765D02*
X006060Y001765D01*
X006060Y001607D02*
X006060Y001607D01*
X006060Y001448D02*
X006060Y001448D01*
X006060Y001290D02*
X006006Y001290D01*
X006021Y001131D02*
X006060Y001131D01*
X006060Y004460D02*
X003872Y004460D01*
X003822Y004618D02*
X006060Y004618D01*
X006060Y004777D02*
X001310Y004777D01*
X001310Y004935D02*
X006060Y004935D01*
X006060Y005094D02*
X001310Y005094D01*
X001310Y005252D02*
X006060Y005252D01*
X006060Y005411D02*
X001310Y005411D01*
X001310Y005569D02*
X006060Y005569D01*
X006060Y005728D02*
X002371Y005728D01*
X002474Y005886D02*
X006060Y005886D01*
X006060Y006045D02*
X002497Y006045D01*
X002656Y006203D02*
X006060Y006203D01*
X006060Y006362D02*
X003203Y006362D01*
X003362Y006520D02*
X006060Y006520D01*
X006060Y006679D02*
X005899Y006679D01*
X005551Y006679D02*
X004899Y006679D01*
X005132Y006837D02*
X005318Y006837D01*
X005228Y006996D02*
X005222Y006996D01*
X004551Y006679D02*
X003899Y006679D01*
X004132Y006837D02*
X004318Y006837D01*
X004228Y006996D02*
X004222Y006996D01*
X003551Y006679D02*
X003520Y006679D01*
X002551Y006679D02*
X001899Y006679D01*
X002132Y006837D02*
X002318Y006837D01*
X002228Y006996D02*
X002222Y006996D01*
X002407Y006520D02*
X001310Y006520D01*
X001310Y006362D02*
X002249Y006362D01*
X001899Y006203D02*
X001310Y006203D01*
X001310Y006045D02*
X001815Y006045D01*
X001826Y005886D02*
X001310Y005886D01*
X001310Y005728D02*
X001929Y005728D01*
X001551Y006679D02*
X001310Y006679D01*
X001310Y006837D02*
X001318Y006837D01*
X000890Y006520D02*
X000390Y006520D01*
X000390Y006362D02*
X000890Y006362D01*
X000890Y006203D02*
X000390Y006203D01*
X000390Y006045D02*
X000890Y006045D01*
X000890Y005886D02*
X000390Y005886D01*
X000390Y005728D02*
X000890Y005728D01*
X000890Y005569D02*
X000390Y005569D01*
X000390Y005411D02*
X000890Y005411D01*
X000890Y005252D02*
X000390Y005252D01*
X000390Y005094D02*
X000890Y005094D01*
X000890Y004935D02*
X000390Y004935D01*
X000390Y004777D02*
X000890Y004777D01*
X000890Y004618D02*
X000390Y004618D01*
X000390Y004460D02*
X000890Y004460D01*
X000890Y004301D02*
X000390Y004301D01*
X000390Y004143D02*
X000890Y004143D01*
X000890Y003984D02*
X000390Y003984D01*
X000390Y003826D02*
X000890Y003826D01*
X000890Y003667D02*
X000390Y003667D01*
X000390Y003509D02*
X000525Y003509D01*
X000525Y003350D02*
X000390Y003350D01*
X000390Y003192D02*
X000681Y003192D01*
X000765Y003033D02*
X000390Y003033D01*
X000390Y002875D02*
X000812Y002875D01*
X000900Y002716D02*
X000390Y002716D01*
X000390Y002558D02*
X000879Y002558D01*
X000776Y002399D02*
X000390Y002399D01*
X000390Y002241D02*
X000765Y002241D01*
X000849Y002082D02*
X000390Y002082D01*
X000390Y001924D02*
X001640Y001924D01*
X001640Y002082D02*
X001351Y002082D01*
X001435Y002241D02*
X001640Y002241D01*
X001640Y002399D02*
X001424Y002399D01*
X001321Y002558D02*
X001640Y002558D01*
X001640Y002716D02*
X001300Y002716D01*
X001388Y002875D02*
X001640Y002875D01*
X001640Y003033D02*
X001435Y003033D01*
X001406Y003192D02*
X001640Y003192D01*
X001508Y003350D02*
X001310Y003350D01*
X001310Y003509D02*
X001390Y003509D01*
X001390Y003667D02*
X001310Y003667D01*
X001310Y003826D02*
X001390Y003826D01*
X001420Y003984D02*
X001310Y003984D01*
X001310Y004143D02*
X001578Y004143D01*
X001737Y004301D02*
X001310Y004301D01*
X001310Y004460D02*
X003203Y004460D01*
X003228Y004301D02*
X002963Y004301D01*
X002997Y004267D02*
X002997Y004267D01*
X003253Y004618D02*
X001310Y004618D01*
X000551Y006679D02*
X000390Y006679D01*
X000390Y001765D02*
X001718Y001765D01*
X001877Y001607D02*
X000390Y001607D01*
X000390Y001448D02*
X002035Y001448D01*
X002194Y001290D02*
X000390Y001290D01*
X001240Y001131D02*
X001410Y001131D01*
X001258Y000973D02*
X001255Y000973D01*
X001705Y000973D02*
X001745Y000973D01*
X001745Y001131D02*
X001705Y001131D01*
X001705Y000814D02*
X001745Y000814D01*
X002040Y001131D02*
X002352Y001131D01*
X002272Y000973D02*
X002192Y000973D01*
D15*
X002725Y001055D02*
X002725Y000680D01*
X002725Y001055D02*
X001850Y001930D01*
X001850Y003305D01*
X001600Y003555D01*
X001600Y003868D01*
X001913Y004180D01*
X002788Y004180D01*
X003663Y003305D01*
X003663Y002868D01*
X003975Y003993D02*
X003538Y004430D01*
X003975Y003993D02*
X005225Y003993D01*
X005850Y003368D01*
X005850Y001430D01*
X005725Y001305D01*
X005725Y000680D01*
X001100Y003055D02*
X001100Y006805D01*
X000725Y007180D01*
X003100Y006555D02*
X003725Y007180D01*
D16*
X003100Y006555D02*
X002725Y006555D01*
X002150Y005980D01*
X000725Y003430D02*
X001100Y003055D01*
X001100Y002305D01*
M02*
