G75*
%MOIN*%
%OFA0B0*%
%FSLAX24Y24*%
%IPPOS*%
%LPD*%
%AMOC8*
5,1,8,0,0,1.08239X$1,22.5*
%
%ADD10C,0.0030*%
%ADD11C,0.0020*%
%ADD12C,0.0050*%
%ADD13R,0.0100X0.0200*%
%ADD14C,0.0220*%
%ADD15R,0.0300X0.0180*%
%ADD16C,0.0080*%
D10*
X000413Y001320D02*
X000365Y001368D01*
X000413Y001320D02*
X000510Y001320D01*
X000558Y001368D01*
X000558Y001417D01*
X000510Y001465D01*
X000462Y001465D01*
X000510Y001465D02*
X000558Y001513D01*
X000558Y001562D01*
X000510Y001610D01*
X000413Y001610D01*
X000365Y001562D01*
X000660Y001610D02*
X000660Y001417D01*
X000756Y001320D01*
X000853Y001417D01*
X000853Y001610D01*
X000954Y001562D02*
X001003Y001610D01*
X001099Y001610D01*
X001148Y001562D01*
X001148Y001513D01*
X001099Y001465D01*
X001148Y001417D01*
X001148Y001368D01*
X001099Y001320D01*
X001003Y001320D01*
X000954Y001368D01*
X001051Y001465D02*
X001099Y001465D01*
X001365Y001368D02*
X001413Y001320D01*
X001510Y001320D01*
X001558Y001368D01*
X001558Y001465D01*
X001462Y001465D01*
X001365Y001562D02*
X001365Y001368D01*
X001365Y001562D02*
X001413Y001610D01*
X001510Y001610D01*
X001558Y001562D01*
X001660Y001610D02*
X001853Y001320D01*
X001853Y001610D01*
X001954Y001610D02*
X002099Y001610D01*
X002148Y001562D01*
X002148Y001368D01*
X002099Y001320D01*
X001954Y001320D01*
X001954Y001610D01*
X001660Y001610D02*
X001660Y001320D01*
X002365Y001368D02*
X002413Y001320D01*
X002510Y001320D01*
X002558Y001368D01*
X002558Y001417D01*
X002510Y001465D01*
X002413Y001465D01*
X002365Y001513D01*
X002365Y001562D01*
X002413Y001610D01*
X002510Y001610D01*
X002558Y001562D01*
X002660Y001610D02*
X002805Y001610D01*
X002853Y001562D01*
X002853Y001368D01*
X002805Y001320D01*
X002660Y001320D01*
X002660Y001610D01*
X002954Y001513D02*
X002954Y001320D01*
X002954Y001465D02*
X003148Y001465D01*
X003148Y001513D02*
X003148Y001320D01*
X003148Y001513D02*
X003051Y001610D01*
X002954Y001513D01*
X003365Y001513D02*
X003413Y001465D01*
X003510Y001465D01*
X003558Y001417D01*
X003558Y001368D01*
X003510Y001320D01*
X003413Y001320D01*
X003365Y001368D01*
X003365Y001513D02*
X003365Y001562D01*
X003413Y001610D01*
X003510Y001610D01*
X003558Y001562D01*
X003660Y001562D02*
X003660Y001368D01*
X003708Y001320D01*
X003805Y001320D01*
X003853Y001368D01*
X003954Y001320D02*
X004148Y001320D01*
X003954Y001320D02*
X003954Y001610D01*
X003853Y001562D02*
X003805Y001610D01*
X003708Y001610D01*
X003660Y001562D01*
X002183Y004985D02*
X002124Y005044D01*
X002129Y005100D02*
X002074Y005116D01*
X002129Y005100D02*
X002141Y005148D01*
X002128Y005100D02*
X002116Y005113D01*
X002106Y005128D01*
X002100Y005145D01*
X002097Y005163D01*
X002098Y005180D01*
X002103Y005198D01*
X002111Y005214D01*
X002122Y005228D01*
X002136Y005239D01*
X002152Y005248D01*
X002169Y005253D01*
X002187Y005254D01*
X002204Y005252D01*
X002221Y005246D01*
X002237Y005236D01*
X002250Y005224D01*
X002260Y005209D01*
X002267Y005193D01*
X002271Y005175D01*
X002370Y005133D02*
X002372Y005139D01*
X002376Y005143D01*
X002383Y005144D01*
X002388Y005141D01*
X002392Y005136D01*
X002392Y005130D01*
X002388Y005125D01*
X002383Y005122D01*
X002376Y005123D01*
X002372Y005127D01*
X002370Y005133D01*
X002303Y005127D02*
X002307Y005109D01*
X002314Y005093D01*
X002324Y005078D01*
X002337Y005066D01*
X002353Y005056D01*
X002370Y005050D01*
X002387Y005048D01*
X002405Y005049D01*
X002422Y005054D01*
X002438Y005063D01*
X002452Y005074D01*
X002463Y005088D01*
X002471Y005104D01*
X002476Y005122D01*
X002477Y005139D01*
X002474Y005157D01*
X002468Y005174D01*
X002458Y005189D01*
X002446Y005202D01*
X002446Y005201D02*
X002434Y005154D01*
X002446Y005201D02*
X002501Y005186D01*
X002472Y005316D02*
X002531Y005375D01*
X002472Y005434D01*
X002530Y005375D02*
X002183Y005375D01*
X002183Y004985D01*
X002242Y005044D01*
X002271Y005269D02*
X002255Y005324D01*
X002303Y005336D01*
X002255Y005323D02*
X002268Y005311D01*
X002283Y005301D01*
X002300Y005295D01*
X002318Y005292D01*
X002335Y005293D01*
X002353Y005298D01*
X002369Y005306D01*
X002383Y005317D01*
X002394Y005331D01*
X002403Y005347D01*
X002408Y005364D01*
X002409Y005382D01*
X002407Y005399D01*
X002401Y005416D01*
X002391Y005432D01*
X002379Y005445D01*
X002364Y005455D01*
X002348Y005462D01*
X002330Y005466D01*
D11*
X002550Y005423D02*
X002550Y005406D01*
X002583Y005374D01*
X002583Y005325D01*
X002583Y005374D02*
X002616Y005406D01*
X002616Y005423D01*
X002583Y005138D02*
X002518Y005138D01*
X002583Y005138D02*
X002583Y005121D01*
X002518Y005056D01*
X002518Y005040D01*
X002583Y005040D01*
X002204Y004964D02*
X002139Y004866D01*
X002204Y004866D02*
X002139Y004964D01*
X002820Y005664D02*
X002857Y005628D01*
X003003Y005628D01*
X003040Y005664D01*
X003040Y005738D01*
X003003Y005774D01*
X003040Y005848D02*
X003040Y005995D01*
X003040Y005922D02*
X002820Y005922D01*
X002893Y005848D01*
X002857Y005774D02*
X002820Y005738D01*
X002820Y005664D01*
X002948Y006178D02*
X003054Y006338D01*
X003113Y006338D02*
X003167Y006284D01*
X003220Y006338D01*
X003220Y006178D01*
X003113Y006178D02*
X003113Y006338D01*
X002948Y006338D02*
X003054Y006178D01*
X002934Y006378D02*
X002787Y006378D01*
X002860Y006378D02*
X002860Y006598D01*
X002787Y006524D01*
X002713Y006598D02*
X002566Y006598D01*
X002639Y006598D02*
X002639Y006378D01*
X002492Y006378D02*
X002492Y006598D01*
X002345Y006598D02*
X002345Y006378D01*
X002271Y006378D02*
X002198Y006378D01*
X002234Y006378D02*
X002234Y006598D01*
X002198Y006598D02*
X002271Y006598D01*
X002345Y006598D02*
X002492Y006378D01*
X002017Y006386D02*
X001990Y006413D01*
X001937Y006413D01*
X001910Y006386D01*
X001910Y006279D01*
X001937Y006253D01*
X001990Y006253D01*
X002017Y006279D01*
X002017Y006333D01*
X001963Y006333D01*
X001853Y006414D02*
X001853Y006451D01*
X001816Y006488D01*
X001743Y006488D01*
X001706Y006524D01*
X001706Y006561D01*
X001743Y006598D01*
X001816Y006598D01*
X001853Y006561D01*
X001853Y006414D02*
X001816Y006378D01*
X001743Y006378D01*
X001706Y006414D01*
X001632Y006414D02*
X001595Y006378D01*
X001522Y006378D01*
X001485Y006414D01*
X001485Y006561D01*
X001522Y006598D01*
X001595Y006598D01*
X001632Y006561D01*
X001182Y006413D02*
X001182Y006253D01*
X001129Y006359D02*
X001182Y006413D01*
X001129Y006359D02*
X001076Y006413D01*
X001076Y006253D01*
X001017Y006253D02*
X000910Y006413D01*
X000853Y006414D02*
X000853Y006451D01*
X000816Y006488D01*
X000743Y006488D01*
X000706Y006524D01*
X000706Y006561D01*
X000743Y006598D01*
X000816Y006598D01*
X000853Y006561D01*
X000853Y006414D02*
X000816Y006378D01*
X000743Y006378D01*
X000706Y006414D01*
X000632Y006414D02*
X000595Y006378D01*
X000522Y006378D01*
X000485Y006414D01*
X000485Y006561D01*
X000522Y006598D01*
X000595Y006598D01*
X000632Y006561D01*
X001017Y006413D02*
X000910Y006253D01*
X003298Y006378D02*
X003371Y006378D01*
X003334Y006378D02*
X003334Y006598D01*
X003298Y006598D02*
X003371Y006598D01*
X003445Y006598D02*
X003592Y006378D01*
X003592Y006598D01*
X003666Y006598D02*
X003813Y006598D01*
X003887Y006561D02*
X003923Y006598D01*
X003997Y006598D01*
X004034Y006561D01*
X004034Y006524D01*
X003887Y006378D01*
X004034Y006378D01*
X004048Y006338D02*
X004154Y006178D01*
X004213Y006178D02*
X004213Y006338D01*
X004267Y006284D01*
X004320Y006338D01*
X004320Y006178D01*
X004410Y006378D02*
X004520Y006378D01*
X004557Y006414D01*
X004557Y006561D01*
X004520Y006598D01*
X004410Y006598D01*
X004410Y006378D01*
X004631Y006378D02*
X004631Y006598D01*
X004741Y006598D01*
X004778Y006561D01*
X004778Y006488D01*
X004741Y006451D01*
X004631Y006451D01*
X004704Y006451D02*
X004778Y006378D01*
X004852Y006378D02*
X004962Y006378D01*
X004999Y006414D01*
X004999Y006561D01*
X004962Y006598D01*
X004852Y006598D01*
X004852Y006378D01*
X005073Y006561D02*
X005146Y006488D01*
X005146Y006378D01*
X005146Y006488D02*
X005220Y006561D01*
X005220Y006598D01*
X005073Y006598D02*
X005073Y006561D01*
X005249Y006363D02*
X005223Y006336D01*
X005223Y006229D01*
X005249Y006203D01*
X005303Y006203D01*
X005329Y006229D01*
X005329Y006283D01*
X005276Y006283D01*
X005329Y006336D02*
X005303Y006363D01*
X005249Y006363D01*
X005485Y006378D02*
X005558Y006378D01*
X005522Y006378D02*
X005522Y006598D01*
X005558Y006598D02*
X005485Y006598D01*
X005632Y006598D02*
X005632Y006378D01*
X005779Y006378D02*
X005632Y006598D01*
X005779Y006598D02*
X005779Y006378D01*
X005927Y006378D02*
X005927Y006598D01*
X006000Y006598D02*
X005853Y006598D01*
X006012Y006363D02*
X005985Y006336D01*
X005985Y006229D01*
X006012Y006203D01*
X006065Y006203D01*
X006092Y006229D01*
X006092Y006283D01*
X006038Y006283D01*
X006092Y006336D02*
X006065Y006363D01*
X006012Y006363D01*
X006065Y005995D02*
X006065Y005848D01*
X005918Y005995D01*
X005882Y005995D01*
X005845Y005959D01*
X005845Y005885D01*
X005882Y005848D01*
X005882Y005774D02*
X005845Y005738D01*
X005845Y005664D01*
X005882Y005628D01*
X006028Y005628D01*
X006065Y005664D01*
X006065Y005738D01*
X006028Y005774D01*
X005428Y004058D02*
X005392Y004058D01*
X005355Y004021D01*
X005355Y003984D01*
X005355Y004021D02*
X005318Y004058D01*
X005282Y004058D01*
X005245Y004021D01*
X005245Y003948D01*
X005282Y003911D01*
X005282Y003837D02*
X005355Y003837D01*
X005392Y003800D01*
X005392Y003690D01*
X005465Y003690D02*
X005245Y003690D01*
X005245Y003800D01*
X005282Y003837D01*
X005392Y003763D02*
X005465Y003837D01*
X005428Y003911D02*
X005465Y003948D01*
X005465Y004021D01*
X005428Y004058D01*
X004715Y004021D02*
X004715Y003948D01*
X004678Y003911D01*
X004605Y003911D02*
X004568Y003984D01*
X004568Y004021D01*
X004605Y004058D01*
X004678Y004058D01*
X004715Y004021D01*
X004605Y003911D02*
X004495Y003911D01*
X004495Y004058D01*
X004532Y003837D02*
X004495Y003800D01*
X004495Y003690D01*
X004715Y003690D01*
X004642Y003690D02*
X004642Y003800D01*
X004605Y003837D01*
X004532Y003837D01*
X004642Y003763D02*
X004715Y003837D01*
X004387Y003510D02*
X004387Y003290D01*
X004314Y003290D02*
X004461Y003290D01*
X004314Y003437D02*
X004387Y003510D01*
X004240Y003510D02*
X004240Y003327D01*
X004203Y003290D01*
X004130Y003290D01*
X004093Y003327D01*
X004093Y003510D01*
X003903Y002683D02*
X003903Y002536D01*
X003903Y002609D02*
X003682Y002609D01*
X003756Y002536D01*
X003719Y002462D02*
X003792Y002462D01*
X003829Y002425D01*
X003829Y002315D01*
X003829Y002388D02*
X003903Y002462D01*
X003903Y002315D02*
X003682Y002315D01*
X003682Y002425D01*
X003719Y002462D01*
X004347Y001660D02*
X004310Y001623D01*
X004310Y001587D01*
X004347Y001550D01*
X004420Y001550D01*
X004457Y001513D01*
X004457Y001477D01*
X004420Y001440D01*
X004347Y001440D01*
X004310Y001477D01*
X004347Y001660D02*
X004420Y001660D01*
X004457Y001623D01*
X004531Y001660D02*
X004641Y001660D01*
X004678Y001623D01*
X004678Y001477D01*
X004641Y001440D01*
X004531Y001440D01*
X004531Y001660D01*
X004752Y001623D02*
X004752Y001477D01*
X004789Y001440D01*
X004862Y001440D01*
X004899Y001477D01*
X004899Y001623D01*
X004862Y001660D01*
X004789Y001660D01*
X004752Y001623D01*
X004935Y001498D02*
X004935Y001352D01*
X004972Y001315D01*
X005045Y001315D01*
X005082Y001352D01*
X005082Y001425D01*
X005008Y001425D01*
X004935Y001498D02*
X004972Y001535D01*
X005045Y001535D01*
X005082Y001498D01*
X005210Y001477D02*
X005247Y001440D01*
X005320Y001440D01*
X005357Y001477D01*
X005357Y001513D01*
X005320Y001550D01*
X005247Y001550D01*
X005210Y001587D01*
X005210Y001623D01*
X005247Y001660D01*
X005320Y001660D01*
X005357Y001623D01*
X005431Y001660D02*
X005541Y001660D01*
X005578Y001623D01*
X005578Y001477D01*
X005541Y001440D01*
X005431Y001440D01*
X005431Y001660D01*
X005652Y001623D02*
X005652Y001477D01*
X005689Y001440D01*
X005762Y001440D01*
X005799Y001477D01*
X005799Y001623D01*
X005762Y001660D01*
X005689Y001660D01*
X005652Y001623D01*
X005835Y001535D02*
X005982Y001315D01*
X006056Y001315D02*
X006056Y001535D01*
X006129Y001462D01*
X006203Y001535D01*
X006203Y001315D01*
X005982Y001535D02*
X005835Y001315D01*
X005907Y002253D02*
X006053Y002253D01*
X006090Y002289D01*
X006090Y002363D01*
X006053Y002399D01*
X006053Y002473D02*
X006090Y002510D01*
X006090Y002584D01*
X006053Y002620D01*
X006017Y002620D01*
X005980Y002584D01*
X005980Y002547D01*
X005980Y002584D02*
X005943Y002620D01*
X005907Y002620D01*
X005870Y002584D01*
X005870Y002510D01*
X005907Y002473D01*
X005907Y002399D02*
X005870Y002363D01*
X005870Y002289D01*
X005907Y002253D01*
X005907Y002828D02*
X006053Y002828D01*
X006090Y002864D01*
X006090Y002938D01*
X006053Y002974D01*
X005980Y003048D02*
X005980Y003195D01*
X006090Y003159D02*
X005870Y003159D01*
X005980Y003048D01*
X005907Y002974D02*
X005870Y002938D01*
X005870Y002864D01*
X005907Y002828D01*
X004048Y006178D02*
X004154Y006338D01*
X003739Y006378D02*
X003739Y006598D01*
X003445Y006598D02*
X003445Y006378D01*
X001580Y003245D02*
X001580Y003098D01*
X001470Y003209D01*
X001690Y003209D01*
X001690Y003024D02*
X001617Y002951D01*
X001617Y002988D02*
X001580Y003024D01*
X001507Y003024D01*
X001470Y002988D01*
X001470Y002878D01*
X001690Y002878D01*
X001617Y002878D02*
X001617Y002988D01*
X002245Y002646D02*
X002245Y002573D01*
X002282Y002536D01*
X002282Y002462D02*
X002355Y002462D01*
X002392Y002425D01*
X002392Y002315D01*
X002465Y002315D02*
X002245Y002315D01*
X002245Y002425D01*
X002282Y002462D01*
X002392Y002388D02*
X002465Y002462D01*
X002465Y002536D02*
X002318Y002683D01*
X002282Y002683D01*
X002245Y002646D01*
X002465Y002683D02*
X002465Y002536D01*
X000890Y002878D02*
X000670Y002878D01*
X000670Y002988D01*
X000707Y003024D01*
X000780Y003024D01*
X000817Y002988D01*
X000817Y002878D01*
X000817Y002951D02*
X000890Y003024D01*
X000853Y003098D02*
X000780Y003098D01*
X000780Y003209D01*
X000817Y003245D01*
X000853Y003245D01*
X000890Y003209D01*
X000890Y003135D01*
X000853Y003098D01*
X000780Y003098D02*
X000707Y003172D01*
X000670Y003245D01*
X000430Y002945D02*
X000310Y002885D01*
X000430Y002825D01*
X000430Y002761D02*
X000490Y002701D01*
X000310Y002701D01*
X000310Y002761D02*
X000310Y002641D01*
X000310Y002577D02*
X000310Y002547D01*
X000340Y002547D01*
X000340Y002577D01*
X000310Y002577D01*
X000340Y002485D02*
X000310Y002455D01*
X000310Y002395D01*
X000340Y002365D01*
X000460Y002365D01*
X000340Y002485D01*
X000460Y002485D01*
X000490Y002455D01*
X000490Y002395D01*
X000460Y002365D01*
D12*
X002438Y003393D02*
X002438Y003550D01*
X002438Y003393D02*
X002595Y003393D01*
X002438Y004810D02*
X002438Y004967D01*
X002595Y004967D01*
X003855Y004967D02*
X004012Y004967D01*
X004012Y004810D01*
X004012Y003550D02*
X003855Y003393D01*
D13*
X004225Y003680D03*
D14*
X005225Y003017D02*
X005225Y002993D01*
X005225Y002442D02*
X005225Y002418D01*
X005200Y005793D02*
X005200Y005817D01*
X003675Y005793D02*
X003675Y005817D01*
D15*
X004975Y003930D03*
X005725Y003930D03*
X004163Y002430D03*
X002725Y002430D03*
X001575Y003930D03*
X000775Y003930D03*
D16*
X000225Y000930D02*
X000225Y000430D01*
X000475Y000180D01*
X000975Y000180D01*
X001225Y000430D01*
X001475Y000180D01*
X001975Y000180D01*
X002225Y000430D01*
X002475Y000180D01*
X002975Y000180D01*
X003225Y000430D01*
X003475Y000180D01*
X003975Y000180D01*
X004225Y000430D01*
X004475Y000180D01*
X004975Y000180D01*
X005225Y000430D01*
X005475Y000180D01*
X005975Y000180D01*
X006225Y000430D01*
X006225Y000930D01*
X005975Y001180D01*
X005475Y001180D01*
X005225Y000930D01*
X004975Y001180D01*
X004475Y001180D01*
X004225Y000930D01*
X003975Y001180D01*
X003475Y001180D01*
X003225Y000930D01*
X002975Y001180D01*
X002475Y001180D01*
X002225Y000930D01*
X001975Y001180D01*
X001475Y001180D01*
X001225Y000930D01*
X000975Y001180D01*
X000475Y001180D01*
X000225Y000930D01*
X000381Y004615D02*
X000381Y005245D01*
X001169Y005245D02*
X001169Y004615D01*
X001181Y004615D02*
X001181Y005245D01*
X001969Y005245D02*
X001969Y004615D01*
X001975Y006680D02*
X001475Y006680D01*
X001225Y006930D01*
X000975Y006680D01*
X000475Y006680D01*
X000225Y006930D01*
X000225Y007430D01*
X000475Y007680D01*
X000975Y007680D01*
X001225Y007430D01*
X001475Y007680D01*
X001975Y007680D01*
X002225Y007430D01*
X002475Y007680D01*
X002975Y007680D01*
X003225Y007430D01*
X003475Y007680D01*
X003975Y007680D01*
X004225Y007430D01*
X004475Y007680D01*
X004975Y007680D01*
X005225Y007430D01*
X005475Y007680D01*
X005975Y007680D01*
X006225Y007430D01*
X006225Y006930D01*
X005975Y006680D01*
X005475Y006680D01*
X005225Y006930D01*
X004975Y006680D01*
X004475Y006680D01*
X004225Y006930D01*
X003975Y006680D01*
X003475Y006680D01*
X003225Y006930D01*
X002975Y006680D01*
X002475Y006680D01*
X002225Y006930D01*
X001975Y006680D01*
X004581Y005245D02*
X004581Y004615D01*
X005331Y004615D02*
X005331Y005245D01*
X005369Y005245D02*
X005369Y004615D01*
X006119Y004615D02*
X006119Y005245D01*
M02*
