G75*
%MOIN*%
%OFA0B0*%
%FSLAX24Y24*%
%IPPOS*%
%LPD*%
%AMOC8*
5,1,8,0,0,1.08239X$1,22.5*
%
%ADD10C,0.0020*%
%ADD11R,0.0337X0.0000*%
%ADD12R,0.0337X0.0000*%
%ADD13R,0.0344X0.0001*%
%ADD14R,0.0348X0.0000*%
%ADD15R,0.0347X0.0000*%
%ADD16R,0.0350X0.0000*%
%ADD17R,0.0350X0.0000*%
%ADD18R,0.0352X0.0001*%
%ADD19R,0.0355X0.0000*%
%ADD20R,0.0354X0.0000*%
%ADD21R,0.0356X0.0001*%
%ADD22R,0.0359X0.0000*%
%ADD23R,0.0360X0.0000*%
%ADD24R,0.0361X0.0001*%
%ADD25R,0.0363X0.0000*%
%ADD26R,0.0362X0.0000*%
%ADD27R,0.0365X0.0001*%
%ADD28R,0.0364X0.0001*%
%ADD29R,0.0365X0.0000*%
%ADD30R,0.0366X0.0000*%
%ADD31R,0.0366X0.0000*%
%ADD32R,0.0367X0.0001*%
%ADD33R,0.0369X0.0000*%
%ADD34R,0.0370X0.0001*%
%ADD35R,0.0369X0.0001*%
%ADD36R,0.0370X0.0000*%
%ADD37R,0.0371X0.0000*%
%ADD38R,0.0371X0.0000*%
%ADD39R,0.0372X0.0001*%
%ADD40R,0.0372X0.0001*%
%ADD41R,0.0373X0.0000*%
%ADD42R,0.0373X0.0000*%
%ADD43R,0.0374X0.0001*%
%ADD44R,0.0374X0.0001*%
%ADD45R,0.0375X0.0000*%
%ADD46R,0.0374X0.0000*%
%ADD47R,0.0375X0.0000*%
%ADD48R,0.0375X0.0000*%
%ADD49R,0.0375X0.0001*%
%ADD50R,0.0376X0.0001*%
%ADD51R,0.0376X0.0000*%
%ADD52R,0.0377X0.0001*%
%ADD53R,0.0376X0.0001*%
%ADD54R,0.0377X0.0000*%
%ADD55R,0.0378X0.0000*%
%ADD56R,0.0378X0.0000*%
%ADD57R,0.0379X0.0001*%
%ADD58R,0.0379X0.0000*%
%ADD59R,0.0379X0.0000*%
%ADD60R,0.0380X0.0001*%
%ADD61R,0.0379X0.0001*%
%ADD62R,0.0380X0.0000*%
%ADD63R,0.0379X0.0000*%
%ADD64R,0.0380X0.0000*%
%ADD65R,0.0380X0.0000*%
%ADD66R,0.0380X0.0001*%
%ADD67R,0.0381X0.0001*%
%ADD68R,0.0381X0.0000*%
%ADD69R,0.0381X0.0001*%
%ADD70R,0.0381X0.0001*%
%ADD71R,0.0381X0.0000*%
%ADD72R,0.0382X0.0001*%
%ADD73R,0.0381X0.0001*%
%ADD74R,0.0382X0.0000*%
%ADD75R,0.0382X0.0000*%
%ADD76R,0.0382X0.0001*%
%ADD77R,0.0382X0.0000*%
%ADD78R,0.0383X0.0000*%
%ADD79R,0.0383X0.0001*%
%ADD80R,0.0383X0.0001*%
%ADD81R,0.0383X0.0000*%
%ADD82R,0.0382X0.0001*%
%ADD83R,0.0379X0.0001*%
%ADD84R,0.0381X0.0000*%
%ADD85R,0.0378X0.0001*%
%ADD86R,0.0377X0.0000*%
%ADD87R,0.0376X0.0000*%
%ADD88R,0.0374X0.0000*%
%ADD89R,0.0377X0.0001*%
%ADD90R,0.0372X0.0000*%
%ADD91R,0.0371X0.0001*%
%ADD92R,0.0376X0.0001*%
%ADD93R,0.0371X0.0000*%
%ADD94R,0.0376X0.0000*%
%ADD95R,0.0370X0.0000*%
%ADD96R,0.0369X0.0001*%
%ADD97R,0.0374X0.0001*%
%ADD98R,0.0368X0.0000*%
%ADD99R,0.0374X0.0000*%
%ADD100R,0.0367X0.0001*%
%ADD101R,0.0373X0.0001*%
%ADD102R,0.0366X0.0000*%
%ADD103R,0.0372X0.0000*%
%ADD104R,0.0365X0.0000*%
%ADD105R,0.0371X0.0000*%
%ADD106R,0.0364X0.0001*%
%ADD107R,0.0371X0.0001*%
%ADD108R,0.0362X0.0000*%
%ADD109R,0.0369X0.0000*%
%ADD110R,0.0360X0.0001*%
%ADD111R,0.0369X0.0001*%
%ADD112R,0.0359X0.0000*%
%ADD113R,0.0367X0.0000*%
%ADD114R,0.0357X0.0000*%
%ADD115R,0.0355X0.0001*%
%ADD116R,0.0365X0.0001*%
%ADD117R,0.0354X0.0000*%
%ADD118R,0.0364X0.0000*%
%ADD119R,0.0351X0.0001*%
%ADD120R,0.0363X0.0001*%
%ADD121R,0.0348X0.0000*%
%ADD122R,0.0361X0.0000*%
%ADD123R,0.0345X0.0000*%
%ADD124R,0.0340X0.0001*%
%ADD125R,0.0359X0.0001*%
%ADD126R,0.0258X0.0000*%
%ADD127R,0.0356X0.0000*%
%ADD128R,0.0257X0.0001*%
%ADD129R,0.0354X0.0001*%
%ADD130R,0.0257X0.0000*%
%ADD131R,0.0352X0.0000*%
%ADD132R,0.0347X0.0001*%
%ADD133R,0.0257X0.0000*%
%ADD134R,0.0344X0.0000*%
%ADD135R,0.0257X0.0001*%
%ADD136R,0.0338X0.0001*%
%ADD137R,0.0239X0.0000*%
%ADD138R,0.0256X0.0000*%
%ADD139R,0.0256X0.0001*%
%ADD140R,0.0239X0.0001*%
%ADD141R,0.0239X0.0001*%
%ADD142R,0.0256X0.0000*%
%ADD143R,0.0239X0.0000*%
%ADD144R,0.0256X0.0001*%
%ADD145R,0.0255X0.0000*%
%ADD146R,0.0238X0.0000*%
%ADD147R,0.0255X0.0001*%
%ADD148R,0.0238X0.0001*%
%ADD149R,0.0255X0.0000*%
%ADD150R,0.0255X0.0001*%
%ADD151R,0.0238X0.0001*%
%ADD152R,0.0238X0.0000*%
%ADD153R,0.0255X0.0000*%
%ADD154R,0.0238X0.0000*%
%ADD155R,0.0255X0.0001*%
%ADD156R,0.0238X0.0001*%
%ADD157R,0.0254X0.0000*%
%ADD158R,0.0254X0.0001*%
%ADD159R,0.0237X0.0000*%
%ADD160R,0.0254X0.0001*%
%ADD161R,0.0237X0.0001*%
%ADD162R,0.0254X0.0000*%
%ADD163R,0.0253X0.0000*%
%ADD164R,0.0236X0.0000*%
%ADD165R,0.0253X0.0001*%
%ADD166R,0.0236X0.0001*%
%ADD167R,0.0253X0.0000*%
%ADD168R,0.0253X0.0001*%
%ADD169R,0.0236X0.0001*%
%ADD170R,0.0236X0.0000*%
%ADD171R,0.0252X0.0001*%
%ADD172R,0.0252X0.0000*%
%ADD173R,0.0235X0.0000*%
%ADD174R,0.0235X0.0001*%
%ADD175R,0.0251X0.0000*%
%ADD176R,0.0251X0.0001*%
%ADD177R,0.0235X0.0001*%
%ADD178R,0.0235X0.0000*%
%ADD179R,0.0251X0.0001*%
%ADD180R,0.0251X0.0000*%
%ADD181R,0.0234X0.0000*%
%ADD182R,0.0250X0.0001*%
%ADD183R,0.0234X0.0001*%
%ADD184R,0.0250X0.0000*%
%ADD185R,0.0250X0.0000*%
%ADD186R,0.0234X0.0000*%
%ADD187R,0.0250X0.0001*%
%ADD188R,0.0234X0.0001*%
%ADD189R,0.0250X0.0001*%
%ADD190R,0.0250X0.0000*%
%ADD191R,0.0233X0.0000*%
%ADD192R,0.0249X0.0001*%
%ADD193R,0.0233X0.0001*%
%ADD194R,0.0249X0.0000*%
%ADD195R,0.0233X0.0001*%
%ADD196R,0.0233X0.0000*%
%ADD197R,0.0249X0.0000*%
%ADD198R,0.0249X0.0001*%
%ADD199R,0.0232X0.0000*%
%ADD200R,0.0248X0.0001*%
%ADD201R,0.0232X0.0001*%
%ADD202R,0.0248X0.0000*%
%ADD203R,0.0248X0.0001*%
%ADD204R,0.0232X0.0001*%
%ADD205R,0.0248X0.0000*%
%ADD206R,0.0232X0.0000*%
%ADD207R,0.0247X0.0000*%
%ADD208R,0.0231X0.0000*%
%ADD209R,0.0247X0.0001*%
%ADD210R,0.0231X0.0001*%
%ADD211R,0.0246X0.0001*%
%ADD212R,0.0246X0.0000*%
%ADD213R,0.0231X0.0000*%
%ADD214R,0.0231X0.0001*%
%ADD215R,0.0246X0.0000*%
%ADD216R,0.0246X0.0001*%
%ADD217R,0.0230X0.0000*%
%ADD218R,0.0245X0.0000*%
%ADD219R,0.0245X0.0001*%
%ADD220R,0.0230X0.0001*%
%ADD221R,0.0245X0.0001*%
%ADD222R,0.0230X0.0001*%
%ADD223R,0.0245X0.0000*%
%ADD224R,0.0230X0.0000*%
%ADD225R,0.0245X0.0000*%
%ADD226R,0.0229X0.0000*%
%ADD227R,0.0245X0.0001*%
%ADD228R,0.0229X0.0001*%
%ADD229R,0.0244X0.0000*%
%ADD230R,0.0244X0.0001*%
%ADD231R,0.0229X0.0001*%
%ADD232R,0.0229X0.0000*%
%ADD233R,0.0244X0.0000*%
%ADD234R,0.0228X0.0000*%
%ADD235R,0.0244X0.0001*%
%ADD236R,0.0228X0.0001*%
%ADD237R,0.0243X0.0000*%
%ADD238R,0.0243X0.0001*%
%ADD239R,0.0243X0.0000*%
%ADD240R,0.0228X0.0000*%
%ADD241R,0.0243X0.0001*%
%ADD242R,0.0228X0.0001*%
%ADD243R,0.0242X0.0000*%
%ADD244R,0.0227X0.0000*%
%ADD245R,0.0242X0.0001*%
%ADD246R,0.0227X0.0001*%
%ADD247R,0.0241X0.0000*%
%ADD248R,0.0241X0.0001*%
%ADD249R,0.0227X0.0001*%
%ADD250R,0.0227X0.0000*%
%ADD251R,0.0241X0.0001*%
%ADD252R,0.0241X0.0000*%
%ADD253R,0.0226X0.0000*%
%ADD254R,0.0226X0.0001*%
%ADD255R,0.0240X0.0000*%
%ADD256R,0.0240X0.0001*%
%ADD257R,0.0226X0.0001*%
%ADD258R,0.0240X0.0000*%
%ADD259R,0.0226X0.0000*%
%ADD260R,0.0240X0.0001*%
%ADD261R,0.0225X0.0000*%
%ADD262R,0.0240X0.0001*%
%ADD263R,0.0225X0.0001*%
%ADD264R,0.0240X0.0000*%
%ADD265R,0.0225X0.0000*%
%ADD266R,0.0225X0.0001*%
%ADD267R,0.0239X0.0001*%
%ADD268R,0.0239X0.0000*%
%ADD269R,0.0224X0.0000*%
%ADD270R,0.0224X0.0001*%
%ADD271R,0.0224X0.0001*%
%ADD272R,0.0224X0.0000*%
%ADD273R,0.0223X0.0000*%
%ADD274R,0.0237X0.0001*%
%ADD275R,0.0223X0.0001*%
%ADD276R,0.0237X0.0000*%
%ADD277R,0.0223X0.0001*%
%ADD278R,0.0223X0.0000*%
%ADD279R,0.0236X0.0000*%
%ADD280R,0.0222X0.0000*%
%ADD281R,0.0236X0.0001*%
%ADD282R,0.0222X0.0001*%
%ADD283R,0.0222X0.0000*%
%ADD284R,0.0222X0.0001*%
%ADD285R,0.0221X0.0000*%
%ADD286R,0.0235X0.0000*%
%ADD287R,0.0235X0.0001*%
%ADD288R,0.0221X0.0001*%
%ADD289R,0.0221X0.0001*%
%ADD290R,0.0221X0.0000*%
%ADD291R,0.0234X0.0000*%
%ADD292R,0.0220X0.0000*%
%ADD293R,0.0234X0.0001*%
%ADD294R,0.0220X0.0001*%
%ADD295R,0.0220X0.0001*%
%ADD296R,0.0220X0.0000*%
%ADD297R,0.0219X0.0000*%
%ADD298R,0.0219X0.0001*%
%ADD299R,0.0232X0.0000*%
%ADD300R,0.0232X0.0001*%
%ADD301R,0.0219X0.0000*%
%ADD302R,0.0219X0.0001*%
%ADD303R,0.0231X0.0000*%
%ADD304R,0.0218X0.0000*%
%ADD305R,0.0231X0.0001*%
%ADD306R,0.0218X0.0001*%
%ADD307R,0.0218X0.0001*%
%ADD308R,0.0218X0.0000*%
%ADD309R,0.0217X0.0000*%
%ADD310R,0.0217X0.0001*%
%ADD311R,0.0230X0.0000*%
%ADD312R,0.0230X0.0001*%
%ADD313R,0.0217X0.0001*%
%ADD314R,0.0217X0.0000*%
%ADD315R,0.0216X0.0000*%
%ADD316R,0.0229X0.0001*%
%ADD317R,0.0216X0.0001*%
%ADD318R,0.0229X0.0000*%
%ADD319R,0.0216X0.0000*%
%ADD320R,0.0216X0.0001*%
%ADD321R,0.0215X0.0000*%
%ADD322R,0.0227X0.0001*%
%ADD323R,0.0215X0.0001*%
%ADD324R,0.0227X0.0000*%
%ADD325R,0.0215X0.0001*%
%ADD326R,0.0215X0.0000*%
%ADD327R,0.0214X0.0000*%
%ADD328R,0.0226X0.0001*%
%ADD329R,0.0214X0.0001*%
%ADD330R,0.0226X0.0000*%
%ADD331R,0.0214X0.0001*%
%ADD332R,0.0214X0.0000*%
%ADD333R,0.0213X0.0000*%
%ADD334R,0.0213X0.0001*%
%ADD335R,0.0225X0.0001*%
%ADD336R,0.0225X0.0000*%
%ADD337R,0.0213X0.0000*%
%ADD338R,0.0213X0.0001*%
%ADD339R,0.0213X0.0000*%
%ADD340R,0.0224X0.0000*%
%ADD341R,0.0224X0.0001*%
%ADD342R,0.0213X0.0001*%
%ADD343R,0.0212X0.0001*%
%ADD344R,0.0212X0.0000*%
%ADD345R,0.0211X0.0000*%
%ADD346R,0.0211X0.0001*%
%ADD347R,0.0222X0.0000*%
%ADD348R,0.0222X0.0001*%
%ADD349R,0.0211X0.0001*%
%ADD350R,0.0211X0.0000*%
%ADD351R,0.0210X0.0000*%
%ADD352R,0.0210X0.0001*%
%ADD353R,0.0221X0.0000*%
%ADD354R,0.0221X0.0001*%
%ADD355R,0.0210X0.0000*%
%ADD356R,0.0210X0.0001*%
%ADD357R,0.0209X0.0000*%
%ADD358R,0.0209X0.0001*%
%ADD359R,0.0220X0.0000*%
%ADD360R,0.0220X0.0001*%
%ADD361R,0.0209X0.0001*%
%ADD362R,0.0209X0.0000*%
%ADD363R,0.0208X0.0000*%
%ADD364R,0.0208X0.0001*%
%ADD365R,0.0219X0.0000*%
%ADD366R,0.0219X0.0001*%
%ADD367R,0.0208X0.0001*%
%ADD368R,0.0208X0.0000*%
%ADD369R,0.0208X0.0000*%
%ADD370R,0.0208X0.0001*%
%ADD371R,0.0217X0.0000*%
%ADD372R,0.0207X0.0000*%
%ADD373R,0.0217X0.0001*%
%ADD374R,0.0207X0.0001*%
%ADD375R,0.0206X0.0000*%
%ADD376R,0.0216X0.0001*%
%ADD377R,0.0206X0.0001*%
%ADD378R,0.0216X0.0000*%
%ADD379R,0.0206X0.0001*%
%ADD380R,0.0206X0.0000*%
%ADD381R,0.0205X0.0000*%
%ADD382R,0.0205X0.0001*%
%ADD383R,0.0215X0.0001*%
%ADD384R,0.0205X0.0001*%
%ADD385R,0.0215X0.0000*%
%ADD386R,0.0205X0.0000*%
%ADD387R,0.0204X0.0000*%
%ADD388R,0.0204X0.0001*%
%ADD389R,0.0214X0.0001*%
%ADD390R,0.0214X0.0000*%
%ADD391R,0.0204X0.0000*%
%ADD392R,0.0204X0.0001*%
%ADD393R,0.0203X0.0000*%
%ADD394R,0.0203X0.0001*%
%ADD395R,0.0212X0.0001*%
%ADD396R,0.0203X0.0001*%
%ADD397R,0.0212X0.0000*%
%ADD398R,0.0203X0.0000*%
%ADD399R,0.0203X0.0000*%
%ADD400R,0.0203X0.0001*%
%ADD401R,0.0211X0.0000*%
%ADD402R,0.0211X0.0001*%
%ADD403R,0.0202X0.0001*%
%ADD404R,0.0202X0.0000*%
%ADD405R,0.0201X0.0000*%
%ADD406R,0.0201X0.0001*%
%ADD407R,0.0210X0.0000*%
%ADD408R,0.0201X0.0000*%
%ADD409R,0.0210X0.0001*%
%ADD410R,0.0201X0.0001*%
%ADD411R,0.0200X0.0000*%
%ADD412R,0.0200X0.0001*%
%ADD413R,0.0209X0.0000*%
%ADD414R,0.0209X0.0001*%
%ADD415R,0.0200X0.0001*%
%ADD416R,0.0200X0.0000*%
%ADD417R,0.0199X0.0000*%
%ADD418R,0.0199X0.0001*%
%ADD419R,0.0199X0.0001*%
%ADD420R,0.0207X0.0000*%
%ADD421R,0.0199X0.0000*%
%ADD422R,0.0207X0.0001*%
%ADD423R,0.0198X0.0000*%
%ADD424R,0.0198X0.0001*%
%ADD425R,0.0206X0.0000*%
%ADD426R,0.0198X0.0000*%
%ADD427R,0.0206X0.0001*%
%ADD428R,0.0198X0.0001*%
%ADD429R,0.0198X0.0000*%
%ADD430R,0.0198X0.0001*%
%ADD431R,0.0197X0.0001*%
%ADD432R,0.0205X0.0000*%
%ADD433R,0.0197X0.0000*%
%ADD434R,0.0205X0.0001*%
%ADD435R,0.0196X0.0000*%
%ADD436R,0.0196X0.0001*%
%ADD437R,0.0204X0.0001*%
%ADD438R,0.0196X0.0001*%
%ADD439R,0.0204X0.0000*%
%ADD440R,0.0196X0.0000*%
%ADD441R,0.0195X0.0000*%
%ADD442R,0.0195X0.0001*%
%ADD443R,0.0195X0.0000*%
%ADD444R,0.0202X0.0001*%
%ADD445R,0.0195X0.0001*%
%ADD446R,0.0202X0.0000*%
%ADD447R,0.0194X0.0000*%
%ADD448R,0.0194X0.0001*%
%ADD449R,0.0201X0.0001*%
%ADD450R,0.0194X0.0001*%
%ADD451R,0.0201X0.0000*%
%ADD452R,0.0194X0.0000*%
%ADD453R,0.0193X0.0000*%
%ADD454R,0.0193X0.0001*%
%ADD455R,0.0193X0.0001*%
%ADD456R,0.0193X0.0000*%
%ADD457R,0.0200X0.0001*%
%ADD458R,0.0200X0.0000*%
%ADD459R,0.0192X0.0000*%
%ADD460R,0.0192X0.0001*%
%ADD461R,0.0199X0.0000*%
%ADD462R,0.0192X0.0000*%
%ADD463R,0.0199X0.0001*%
%ADD464R,0.0192X0.0001*%
%ADD465R,0.0191X0.0000*%
%ADD466R,0.0191X0.0001*%
%ADD467R,0.0191X0.0001*%
%ADD468R,0.0191X0.0000*%
%ADD469R,0.0197X0.0000*%
%ADD470R,0.0197X0.0001*%
%ADD471R,0.0190X0.0000*%
%ADD472R,0.0190X0.0001*%
%ADD473R,0.0190X0.0001*%
%ADD474R,0.0196X0.0000*%
%ADD475R,0.0190X0.0000*%
%ADD476R,0.0196X0.0001*%
%ADD477R,0.0189X0.0000*%
%ADD478R,0.0189X0.0001*%
%ADD479R,0.0189X0.0000*%
%ADD480R,0.0189X0.0001*%
%ADD481R,0.0195X0.0000*%
%ADD482R,0.0195X0.0001*%
%ADD483R,0.0188X0.0000*%
%ADD484R,0.0188X0.0001*%
%ADD485R,0.0188X0.0001*%
%ADD486R,0.0194X0.0000*%
%ADD487R,0.0188X0.0000*%
%ADD488R,0.0194X0.0001*%
%ADD489R,0.0187X0.0000*%
%ADD490R,0.0187X0.0001*%
%ADD491R,0.0187X0.0001*%
%ADD492R,0.0187X0.0000*%
%ADD493R,0.0192X0.0000*%
%ADD494R,0.0186X0.0000*%
%ADD495R,0.0192X0.0001*%
%ADD496R,0.0186X0.0001*%
%ADD497R,0.0186X0.0000*%
%ADD498R,0.0191X0.0001*%
%ADD499R,0.0186X0.0001*%
%ADD500R,0.0191X0.0000*%
%ADD501R,0.0185X0.0000*%
%ADD502R,0.0185X0.0001*%
%ADD503R,0.0185X0.0001*%
%ADD504R,0.0185X0.0000*%
%ADD505R,0.0190X0.0001*%
%ADD506R,0.0190X0.0000*%
%ADD507R,0.0184X0.0000*%
%ADD508R,0.0184X0.0001*%
%ADD509R,0.0184X0.0001*%
%ADD510R,0.0184X0.0000*%
%ADD511R,0.0189X0.0001*%
%ADD512R,0.0189X0.0000*%
%ADD513R,0.0183X0.0000*%
%ADD514R,0.0183X0.0001*%
%ADD515R,0.0183X0.0000*%
%ADD516R,0.0183X0.0001*%
%ADD517R,0.0187X0.0001*%
%ADD518R,0.0187X0.0000*%
%ADD519R,0.0182X0.0000*%
%ADD520R,0.0182X0.0001*%
%ADD521R,0.0182X0.0001*%
%ADD522R,0.0182X0.0000*%
%ADD523R,0.0186X0.0000*%
%ADD524R,0.0186X0.0001*%
%ADD525R,0.0181X0.0000*%
%ADD526R,0.0181X0.0001*%
%ADD527R,0.0181X0.0001*%
%ADD528R,0.0181X0.0000*%
%ADD529R,0.0185X0.0000*%
%ADD530R,0.0180X0.0000*%
%ADD531R,0.0185X0.0001*%
%ADD532R,0.0180X0.0001*%
%ADD533R,0.0180X0.0000*%
%ADD534R,0.0180X0.0001*%
%ADD535R,0.0184X0.0000*%
%ADD536R,0.0184X0.0001*%
%ADD537R,0.0179X0.0000*%
%ADD538R,0.0179X0.0001*%
%ADD539R,0.0179X0.0001*%
%ADD540R,0.0179X0.0000*%
%ADD541R,0.0182X0.0000*%
%ADD542R,0.0178X0.0000*%
%ADD543R,0.0182X0.0001*%
%ADD544R,0.0178X0.0001*%
%ADD545R,0.0178X0.0001*%
%ADD546R,0.0178X0.0000*%
%ADD547R,0.0181X0.0000*%
%ADD548R,0.0177X0.0000*%
%ADD549R,0.0181X0.0001*%
%ADD550R,0.0177X0.0001*%
%ADD551R,0.0177X0.0000*%
%ADD552R,0.0177X0.0001*%
%ADD553R,0.0180X0.0000*%
%ADD554R,0.0176X0.0000*%
%ADD555R,0.0180X0.0001*%
%ADD556R,0.0176X0.0001*%
%ADD557R,0.0176X0.0001*%
%ADD558R,0.0176X0.0000*%
%ADD559R,0.0179X0.0001*%
%ADD560R,0.0179X0.0000*%
%ADD561R,0.0175X0.0000*%
%ADD562R,0.0175X0.0001*%
%ADD563R,0.0175X0.0001*%
%ADD564R,0.0175X0.0000*%
%ADD565R,0.0174X0.0000*%
%ADD566R,0.0177X0.0001*%
%ADD567R,0.0174X0.0001*%
%ADD568R,0.0177X0.0000*%
%ADD569R,0.0174X0.0000*%
%ADD570R,0.0174X0.0001*%
%ADD571R,0.0176X0.0001*%
%ADD572R,0.0176X0.0000*%
%ADD573R,0.0173X0.0000*%
%ADD574R,0.0173X0.0001*%
%ADD575R,0.0173X0.0001*%
%ADD576R,0.0173X0.0000*%
%ADD577R,0.0173X0.0000*%
%ADD578R,0.0175X0.0001*%
%ADD579R,0.0173X0.0001*%
%ADD580R,0.0175X0.0000*%
%ADD581R,0.0172X0.0001*%
%ADD582R,0.0172X0.0000*%
%ADD583R,0.0174X0.0000*%
%ADD584R,0.0171X0.0000*%
%ADD585R,0.0174X0.0001*%
%ADD586R,0.0171X0.0001*%
%ADD587R,0.0171X0.0000*%
%ADD588R,0.0171X0.0001*%
%ADD589R,0.0170X0.0000*%
%ADD590R,0.0172X0.0000*%
%ADD591R,0.0172X0.0001*%
%ADD592R,0.0170X0.0001*%
%ADD593R,0.0170X0.0001*%
%ADD594R,0.0170X0.0000*%
%ADD595R,0.0171X0.0000*%
%ADD596R,0.0169X0.0000*%
%ADD597R,0.0171X0.0001*%
%ADD598R,0.0169X0.0001*%
%ADD599R,0.0169X0.0001*%
%ADD600R,0.0169X0.0000*%
%ADD601R,0.0168X0.0000*%
%ADD602R,0.0168X0.0001*%
%ADD603R,0.0170X0.0000*%
%ADD604R,0.0170X0.0001*%
%ADD605R,0.0168X0.0000*%
%ADD606R,0.0168X0.0001*%
%ADD607R,0.0169X0.0000*%
%ADD608R,0.0168X0.0000*%
%ADD609R,0.0169X0.0001*%
%ADD610R,0.0168X0.0001*%
%ADD611R,0.0167X0.0001*%
%ADD612R,0.0167X0.0000*%
%ADD613R,0.0166X0.0000*%
%ADD614R,0.0166X0.0001*%
%ADD615R,0.0167X0.0000*%
%ADD616R,0.0167X0.0001*%
%ADD617R,0.0166X0.0001*%
%ADD618R,0.0166X0.0000*%
%ADD619R,0.0165X0.0000*%
%ADD620R,0.0166X0.0001*%
%ADD621R,0.0165X0.0001*%
%ADD622R,0.0166X0.0000*%
%ADD623R,0.0165X0.0000*%
%ADD624R,0.0165X0.0001*%
%ADD625R,0.0164X0.0000*%
%ADD626R,0.0165X0.0001*%
%ADD627R,0.0164X0.0001*%
%ADD628R,0.0165X0.0000*%
%ADD629R,0.0164X0.0001*%
%ADD630R,0.0164X0.0000*%
%ADD631R,0.0163X0.0000*%
%ADD632R,0.0164X0.0001*%
%ADD633R,0.0163X0.0001*%
%ADD634R,0.0164X0.0000*%
%ADD635R,0.0163X0.0001*%
%ADD636R,0.0163X0.0000*%
%ADD637R,0.0163X0.0000*%
%ADD638R,0.0163X0.0001*%
%ADD639R,0.0162X0.0001*%
%ADD640R,0.0162X0.0000*%
%ADD641R,0.0162X0.0000*%
%ADD642R,0.0161X0.0001*%
%ADD643R,0.0162X0.0001*%
%ADD644R,0.0161X0.0000*%
%ADD645R,0.0161X0.0000*%
%ADD646R,0.0161X0.0001*%
%ADD647R,0.0160X0.0001*%
%ADD648R,0.0161X0.0001*%
%ADD649R,0.0160X0.0000*%
%ADD650R,0.0161X0.0000*%
%ADD651R,0.0160X0.0000*%
%ADD652R,0.0160X0.0001*%
%ADD653R,0.0160X0.0000*%
%ADD654R,0.0160X0.0001*%
%ADD655R,0.0159X0.0001*%
%ADD656R,0.0159X0.0000*%
%ADD657R,0.0159X0.0000*%
%ADD658R,0.0159X0.0001*%
%ADD659R,0.0159X0.0000*%
%ADD660R,0.0159X0.0001*%
%ADD661R,0.0158X0.0000*%
%ADD662R,0.0158X0.0001*%
%ADD663R,0.0158X0.0000*%
%ADD664R,0.0158X0.0000*%
%ADD665R,0.0158X0.0001*%
%ADD666R,0.0158X0.0001*%
%ADD667R,0.0157X0.0000*%
%ADD668R,0.0157X0.0001*%
%ADD669R,0.0156X0.0000*%
%ADD670R,0.0156X0.0001*%
%ADD671R,0.0156X0.0000*%
%ADD672R,0.0156X0.0001*%
%ADD673R,0.0157X0.0001*%
%ADD674R,0.0155X0.0000*%
%ADD675R,0.0157X0.0000*%
%ADD676R,0.0155X0.0001*%
%ADD677R,0.0155X0.0001*%
%ADD678R,0.0155X0.0000*%
%ADD679R,0.0155X0.0000*%
%ADD680R,0.0156X0.0000*%
%ADD681R,0.0155X0.0001*%
%ADD682R,0.0156X0.0001*%
%ADD683R,0.0154X0.0000*%
%ADD684R,0.0154X0.0001*%
%ADD685R,0.0154X0.0001*%
%ADD686R,0.0154X0.0000*%
%ADD687R,0.0153X0.0000*%
%ADD688R,0.0153X0.0001*%
%ADD689R,0.0154X0.0000*%
%ADD690R,0.0152X0.0001*%
%ADD691R,0.0154X0.0001*%
%ADD692R,0.0152X0.0000*%
%ADD693R,0.0152X0.0001*%
%ADD694R,0.0152X0.0000*%
%ADD695R,0.0151X0.0000*%
%ADD696R,0.0153X0.0000*%
%ADD697R,0.0151X0.0001*%
%ADD698R,0.0153X0.0001*%
%ADD699R,0.0151X0.0001*%
%ADD700R,0.0151X0.0000*%
%ADD701R,0.0150X0.0001*%
%ADD702R,0.0150X0.0000*%
%ADD703R,0.0150X0.0000*%
%ADD704R,0.0150X0.0001*%
%ADD705R,0.0150X0.0001*%
%ADD706R,0.0152X0.0001*%
%ADD707R,0.0150X0.0000*%
%ADD708R,0.0152X0.0000*%
%ADD709R,0.0149X0.0000*%
%ADD710R,0.0149X0.0001*%
%ADD711R,0.0149X0.0000*%
%ADD712R,0.0149X0.0001*%
%ADD713R,0.0151X0.0001*%
%ADD714R,0.0151X0.0000*%
%ADD715R,0.0148X0.0001*%
%ADD716R,0.0148X0.0000*%
%ADD717R,0.0260X0.0000*%
%ADD718R,0.0259X0.0000*%
%ADD719R,0.0260X0.0001*%
%ADD720R,0.0259X0.0001*%
%ADD721R,0.0868X0.0000*%
%ADD722R,0.0868X0.0001*%
%ADD723R,0.0321X0.0000*%
%ADD724R,0.0305X0.0000*%
%ADD725R,0.0321X0.0001*%
%ADD726R,0.0305X0.0001*%
%ADD727R,0.0867X0.0000*%
%ADD728R,0.0867X0.0001*%
%ADD729R,0.0867X0.0000*%
%ADD730R,0.0867X0.0001*%
%ADD731R,0.0866X0.0000*%
%ADD732R,0.0866X0.0000*%
%ADD733R,0.0866X0.0001*%
%ADD734R,0.0866X0.0000*%
%ADD735R,0.0866X0.0001*%
%ADD736R,0.0865X0.0000*%
%ADD737R,0.0865X0.0001*%
%ADD738R,0.0864X0.0001*%
%ADD739R,0.0864X0.0000*%
%ADD740R,0.0864X0.0001*%
%ADD741R,0.0864X0.0000*%
%ADD742R,0.0864X0.0001*%
%ADD743R,0.0864X0.0000*%
%ADD744R,0.0863X0.0001*%
%ADD745R,0.0863X0.0000*%
%ADD746R,0.0862X0.0001*%
%ADD747R,0.0862X0.0000*%
%ADD748R,0.0862X0.0001*%
%ADD749R,0.0862X0.0000*%
%ADD750R,0.0861X0.0001*%
%ADD751R,0.0861X0.0000*%
%ADD752R,0.0861X0.0001*%
%ADD753R,0.0860X0.0001*%
%ADD754R,0.0860X0.0000*%
%ADD755R,0.0859X0.0000*%
%ADD756R,0.0859X0.0001*%
%ADD757R,0.0858X0.0000*%
%ADD758R,0.0858X0.0001*%
%ADD759R,0.0857X0.0001*%
%ADD760R,0.0857X0.0000*%
%ADD761R,0.0856X0.0000*%
%ADD762R,0.0856X0.0001*%
%ADD763R,0.0855X0.0000*%
%ADD764R,0.0855X0.0001*%
%ADD765R,0.0855X0.0000*%
%ADD766R,0.0855X0.0001*%
%ADD767R,0.0854X0.0000*%
%ADD768R,0.0854X0.0001*%
%ADD769R,0.0853X0.0000*%
%ADD770R,0.0853X0.0001*%
%ADD771R,0.0853X0.0000*%
%ADD772R,0.0853X0.0000*%
%ADD773R,0.0852X0.0001*%
%ADD774R,0.0852X0.0000*%
%ADD775R,0.0852X0.0001*%
%ADD776R,0.0851X0.0000*%
%ADD777R,0.0850X0.0001*%
%ADD778R,0.0850X0.0000*%
%ADD779R,0.0850X0.0001*%
%ADD780R,0.0849X0.0000*%
%ADD781R,0.0848X0.0001*%
%ADD782R,0.0848X0.0000*%
%ADD783R,0.0848X0.0001*%
%ADD784R,0.0848X0.0000*%
%ADD785R,0.0847X0.0000*%
%ADD786R,0.0847X0.0001*%
%ADD787R,0.0846X0.0000*%
%ADD788R,0.0846X0.0001*%
%ADD789R,0.0845X0.0000*%
%ADD790R,0.0845X0.0000*%
%ADD791R,0.0845X0.0001*%
%ADD792R,0.0843X0.0000*%
%ADD793R,0.0843X0.0001*%
%ADD794R,0.0841X0.0000*%
%ADD795R,0.0840X0.0000*%
%ADD796R,0.0839X0.0001*%
%ADD797R,0.0838X0.0000*%
%ADD798R,0.0837X0.0001*%
%ADD799R,0.0836X0.0000*%
%ADD800R,0.0835X0.0000*%
%ADD801R,0.0834X0.0001*%
%ADD802R,0.0833X0.0000*%
%ADD803R,0.0832X0.0001*%
%ADD804R,0.0831X0.0000*%
%ADD805R,0.0830X0.0000*%
%ADD806R,0.0829X0.0001*%
%ADD807R,0.0828X0.0000*%
%ADD808R,0.0827X0.0001*%
%ADD809R,0.0826X0.0000*%
%ADD810R,0.0825X0.0000*%
%ADD811R,0.0824X0.0001*%
%ADD812R,0.0823X0.0000*%
%ADD813R,0.0822X0.0001*%
%ADD814R,0.0821X0.0000*%
%ADD815R,0.0820X0.0000*%
%ADD816R,0.0819X0.0001*%
%ADD817R,0.0818X0.0000*%
%ADD818R,0.0817X0.0001*%
%ADD819R,0.0816X0.0000*%
%ADD820R,0.0815X0.0000*%
%ADD821R,0.0814X0.0001*%
%ADD822R,0.0813X0.0000*%
%ADD823R,0.0812X0.0001*%
%ADD824R,0.0811X0.0000*%
%ADD825R,0.0810X0.0000*%
%ADD826R,0.0808X0.0001*%
%ADD827R,0.0808X0.0000*%
%ADD828R,0.0807X0.0001*%
%ADD829R,0.0805X0.0000*%
%ADD830R,0.0805X0.0000*%
%ADD831R,0.0803X0.0001*%
%ADD832R,0.0803X0.0000*%
%ADD833R,0.0802X0.0001*%
%ADD834R,0.0800X0.0000*%
%ADD835R,0.0800X0.0000*%
%ADD836R,0.0798X0.0001*%
%ADD837R,0.0798X0.0000*%
%ADD838R,0.0797X0.0001*%
%ADD839R,0.0795X0.0000*%
%ADD840R,0.0795X0.0000*%
%ADD841R,0.0793X0.0001*%
%ADD842R,0.0793X0.0000*%
%ADD843R,0.0791X0.0001*%
%ADD844R,0.0790X0.0000*%
%ADD845R,0.0789X0.0000*%
%ADD846R,0.0788X0.0001*%
%ADD847R,0.0787X0.0000*%
%ADD848R,0.0786X0.0001*%
%ADD849R,0.0785X0.0000*%
%ADD850R,0.0784X0.0000*%
%ADD851R,0.0783X0.0001*%
%ADD852R,0.0782X0.0000*%
%ADD853R,0.0781X0.0001*%
%ADD854R,0.0780X0.0000*%
%ADD855R,0.0779X0.0000*%
%ADD856R,0.0778X0.0001*%
%ADD857R,0.0777X0.0000*%
%ADD858R,0.0776X0.0001*%
%ADD859R,0.0775X0.0000*%
%ADD860R,0.0774X0.0000*%
%ADD861R,0.0773X0.0001*%
%ADD862R,0.0772X0.0000*%
%ADD863R,0.0771X0.0001*%
%ADD864R,0.0770X0.0000*%
%ADD865R,0.0769X0.0000*%
%ADD866R,0.0768X0.0001*%
%ADD867R,0.0767X0.0000*%
%ADD868R,0.0766X0.0001*%
%ADD869R,0.0765X0.0000*%
%ADD870R,0.0764X0.0000*%
%ADD871R,0.0763X0.0001*%
%ADD872R,0.0762X0.0000*%
%ADD873R,0.0761X0.0001*%
%ADD874R,0.0760X0.0000*%
%ADD875R,0.0758X0.0000*%
%ADD876R,0.0757X0.0001*%
%ADD877R,0.0757X0.0000*%
%ADD878R,0.0755X0.0001*%
%ADD879R,0.0755X0.0000*%
%ADD880R,0.0753X0.0000*%
%ADD881R,0.0752X0.0001*%
%ADD882R,0.0752X0.0000*%
%ADD883R,0.0750X0.0001*%
%ADD884R,0.0750X0.0000*%
%ADD885R,0.0748X0.0000*%
%ADD886R,0.0747X0.0001*%
%ADD887R,0.0747X0.0000*%
%ADD888R,0.0745X0.0001*%
%ADD889R,0.0745X0.0000*%
%ADD890R,0.0743X0.0000*%
%ADD891R,0.0742X0.0001*%
%ADD892R,0.0741X0.0000*%
%ADD893R,0.0740X0.0001*%
%ADD894R,0.0739X0.0000*%
%ADD895R,0.0738X0.0000*%
%ADD896R,0.0737X0.0001*%
%ADD897R,0.0736X0.0000*%
%ADD898R,0.0735X0.0001*%
%ADD899R,0.0734X0.0000*%
%ADD900R,0.0733X0.0000*%
%ADD901R,0.0732X0.0001*%
%ADD902R,0.0731X0.0000*%
%ADD903R,0.0730X0.0001*%
%ADD904R,0.0729X0.0000*%
%ADD905R,0.0728X0.0000*%
%ADD906R,0.0727X0.0001*%
%ADD907R,0.0726X0.0000*%
%ADD908R,0.0725X0.0001*%
%ADD909R,0.0724X0.0000*%
%ADD910R,0.0723X0.0000*%
%ADD911R,0.0722X0.0001*%
%ADD912R,0.0721X0.0000*%
%ADD913R,0.0720X0.0001*%
%ADD914R,0.0719X0.0000*%
%ADD915R,0.0718X0.0000*%
%ADD916R,0.0717X0.0001*%
%ADD917R,0.0716X0.0000*%
%ADD918R,0.0715X0.0001*%
%ADD919R,0.0714X0.0000*%
%ADD920R,0.0713X0.0000*%
%ADD921R,0.0712X0.0001*%
%ADD922R,0.0711X0.0000*%
%ADD923R,0.0710X0.0001*%
%ADD924R,0.0709X0.0000*%
%ADD925R,0.0707X0.0000*%
%ADD926R,0.0707X0.0001*%
%ADD927R,0.0705X0.0000*%
%ADD928R,0.0705X0.0001*%
%ADD929R,0.0703X0.0000*%
%ADD930R,0.0703X0.0000*%
%ADD931R,0.0702X0.0001*%
%ADD932R,0.0700X0.0000*%
%ADD933R,0.0700X0.0001*%
%ADD934R,0.0698X0.0000*%
%ADD935R,0.0698X0.0000*%
%ADD936R,0.0697X0.0001*%
%ADD937R,0.0695X0.0000*%
%ADD938R,0.0695X0.0001*%
%ADD939R,0.0693X0.0000*%
%ADD940R,0.0692X0.0000*%
%ADD941R,0.0691X0.0001*%
%ADD942R,0.0690X0.0000*%
%ADD943R,0.0689X0.0001*%
%ADD944R,0.0688X0.0000*%
%ADD945R,0.0687X0.0000*%
%ADD946R,0.0686X0.0001*%
%ADD947R,0.0685X0.0000*%
%ADD948R,0.0684X0.0001*%
%ADD949R,0.0683X0.0000*%
%ADD950R,0.0682X0.0000*%
%ADD951R,0.0681X0.0001*%
%ADD952R,0.0680X0.0000*%
%ADD953R,0.0679X0.0001*%
%ADD954R,0.0678X0.0000*%
%ADD955R,0.0677X0.0000*%
%ADD956R,0.0676X0.0001*%
%ADD957R,0.0675X0.0000*%
%ADD958R,0.0674X0.0001*%
%ADD959R,0.0673X0.0000*%
%ADD960R,0.0672X0.0000*%
%ADD961R,0.0671X0.0001*%
%ADD962R,0.0670X0.0000*%
%ADD963R,0.0669X0.0001*%
%ADD964R,0.0668X0.0000*%
%ADD965R,0.0667X0.0000*%
%ADD966R,0.0666X0.0001*%
%ADD967R,0.0665X0.0000*%
%ADD968R,0.0664X0.0001*%
%ADD969R,0.0663X0.0000*%
%ADD970R,0.0662X0.0000*%
%ADD971R,0.0661X0.0001*%
%ADD972R,0.0660X0.0000*%
%ADD973R,0.0659X0.0001*%
%ADD974R,0.0658X0.0000*%
%ADD975R,0.0657X0.0000*%
%ADD976R,0.0655X0.0001*%
%ADD977R,0.0655X0.0000*%
%ADD978R,0.0653X0.0001*%
%ADD979R,0.0653X0.0000*%
%ADD980R,0.0652X0.0000*%
%ADD981R,0.0650X0.0001*%
%ADD982R,0.0650X0.0000*%
%ADD983R,0.0648X0.0001*%
%ADD984R,0.0648X0.0000*%
%ADD985R,0.0647X0.0000*%
%ADD986R,0.0645X0.0001*%
%ADD987R,0.0645X0.0000*%
%ADD988R,0.0643X0.0001*%
%ADD989R,0.0642X0.0000*%
%ADD990R,0.0641X0.0000*%
%ADD991R,0.0640X0.0001*%
%ADD992R,0.0639X0.0000*%
%ADD993R,0.0638X0.0001*%
%ADD994R,0.0637X0.0000*%
%ADD995R,0.0636X0.0000*%
%ADD996R,0.0635X0.0001*%
%ADD997R,0.0634X0.0000*%
%ADD998R,0.0633X0.0001*%
%ADD999R,0.0632X0.0000*%
%ADD1000R,0.0631X0.0000*%
%ADD1001R,0.0630X0.0001*%
%ADD1002R,0.0629X0.0000*%
%ADD1003R,0.0628X0.0001*%
%ADD1004R,0.0627X0.0000*%
%ADD1005R,0.0626X0.0000*%
%ADD1006R,0.0625X0.0001*%
%ADD1007R,0.0624X0.0000*%
%ADD1008R,0.0623X0.0001*%
%ADD1009R,0.0622X0.0000*%
%ADD1010R,0.0621X0.0000*%
%ADD1011R,0.0620X0.0001*%
%ADD1012R,0.0619X0.0000*%
%ADD1013R,0.0618X0.0001*%
%ADD1014R,0.0617X0.0000*%
%ADD1015R,0.0616X0.0000*%
%ADD1016R,0.0615X0.0001*%
%ADD1017R,0.0614X0.0000*%
%ADD1018R,0.0613X0.0001*%
%ADD1019R,0.0612X0.0000*%
%ADD1020R,0.0611X0.0000*%
%ADD1021R,0.0610X0.0001*%
%ADD1022R,0.0609X0.0000*%
%ADD1023R,0.0607X0.0001*%
%ADD1024R,0.0607X0.0000*%
%ADD1025R,0.0605X0.0000*%
%ADD1026R,0.0605X0.0001*%
%ADD1027R,0.0603X0.0000*%
%ADD1028R,0.0602X0.0001*%
%ADD1029R,0.0602X0.0000*%
%ADD1030R,0.0600X0.0000*%
%ADD1031R,0.0600X0.0001*%
%ADD1032R,0.0598X0.0000*%
%ADD1033R,0.0597X0.0001*%
%ADD1034R,0.0597X0.0000*%
%ADD1035R,0.0595X0.0000*%
%ADD1036R,0.0595X0.0001*%
%ADD1037R,0.0593X0.0000*%
%ADD1038R,0.0592X0.0001*%
%ADD1039R,0.0591X0.0000*%
%ADD1040R,0.0590X0.0000*%
%ADD1041R,0.0589X0.0001*%
%ADD1042R,0.0588X0.0000*%
%ADD1043R,0.0587X0.0001*%
%ADD1044R,0.0586X0.0000*%
%ADD1045R,0.0585X0.0000*%
%ADD1046R,0.0584X0.0001*%
%ADD1047R,0.0583X0.0000*%
%ADD1048R,0.0582X0.0001*%
%ADD1049R,0.0581X0.0000*%
%ADD1050R,0.0580X0.0000*%
%ADD1051R,0.0579X0.0001*%
%ADD1052R,0.0578X0.0000*%
%ADD1053R,0.0577X0.0001*%
%ADD1054R,0.0576X0.0000*%
%ADD1055R,0.0575X0.0000*%
%ADD1056R,0.0574X0.0001*%
%ADD1057R,0.0573X0.0000*%
%ADD1058R,0.0571X0.0001*%
%ADD1059R,0.0568X0.0000*%
%ADD1060R,0.0565X0.0000*%
%ADD1061R,0.0563X0.0001*%
%ADD1062R,0.0560X0.0000*%
%ADD1063R,0.0557X0.0001*%
%ADD1064R,0.0554X0.0000*%
%ADD1065R,0.0551X0.0000*%
%ADD1066R,0.0548X0.0001*%
%ADD1067R,0.0545X0.0000*%
%ADD1068R,0.0542X0.0001*%
%ADD1069R,0.0537X0.0000*%
%ADD1070R,0.0533X0.0000*%
%ADD1071R,0.0530X0.0001*%
%ADD1072R,0.0526X0.0000*%
%ADD1073R,0.0522X0.0001*%
%ADD1074R,0.0518X0.0000*%
%ADD1075R,0.0513X0.0000*%
%ADD1076R,0.0508X0.0001*%
%ADD1077R,0.0503X0.0000*%
%ADD1078R,0.0496X0.0001*%
%ADD1079R,0.0489X0.0000*%
%ADD1080R,0.0477X0.0000*%
%ADD1081C,0.0000*%
D10*
X002073Y003915D02*
X002073Y004035D01*
X002133Y004095D01*
X002193Y004035D01*
X002193Y003915D01*
X002257Y003945D02*
X002287Y003915D01*
X002347Y003915D01*
X002377Y003945D01*
X002377Y004065D01*
X002347Y004095D01*
X002287Y004095D01*
X002257Y004065D01*
X002193Y004005D02*
X002073Y004005D01*
X002624Y003945D02*
X002624Y003915D01*
X002654Y003915D01*
X002654Y003945D01*
X002624Y003945D01*
X002624Y003915D02*
X002684Y003855D01*
X002748Y003915D02*
X002748Y004005D01*
X002778Y004035D01*
X002838Y004035D01*
X002838Y003975D02*
X002748Y003975D01*
X002748Y003915D02*
X002838Y003915D01*
X002868Y003945D01*
X002838Y003975D01*
X002932Y004005D02*
X002932Y003915D01*
X002932Y004005D02*
X002962Y004035D01*
X003053Y004035D01*
X003053Y003915D01*
X003117Y003975D02*
X003237Y003975D01*
X003237Y003945D02*
X003237Y004005D01*
X003207Y004035D01*
X003147Y004035D01*
X003117Y004005D01*
X003117Y003975D01*
X003147Y003915D02*
X003207Y003915D01*
X003237Y003945D01*
X003301Y003915D02*
X003391Y003915D01*
X003421Y003945D01*
X003421Y004005D01*
X003391Y004035D01*
X003301Y004035D01*
X003301Y004095D02*
X003301Y003915D01*
X003485Y003915D02*
X003575Y003915D01*
X003605Y003945D01*
X003575Y003975D01*
X003485Y003975D01*
X003485Y004005D02*
X003485Y003915D01*
X003485Y004005D02*
X003515Y004035D01*
X003575Y004035D01*
X003669Y004035D02*
X003759Y004035D01*
X003789Y004005D01*
X003759Y003975D01*
X003699Y003975D01*
X003669Y003945D01*
X003699Y003915D01*
X003789Y003915D01*
X003853Y003915D02*
X003853Y004005D01*
X003883Y004035D01*
X003943Y004035D01*
X003943Y003975D02*
X003853Y003975D01*
X003853Y003915D02*
X003943Y003915D01*
X003973Y003945D01*
X003943Y003975D01*
X004037Y004005D02*
X004067Y003975D01*
X004158Y003975D01*
X004158Y003915D02*
X004158Y004095D01*
X004067Y004095D01*
X004037Y004065D01*
X004037Y004005D01*
X004084Y004765D02*
X004048Y004802D01*
X004048Y004948D01*
X004084Y004985D01*
X004158Y004985D01*
X004195Y004948D01*
X004195Y004912D01*
X004158Y004875D01*
X004048Y004875D01*
X003974Y004985D02*
X003974Y004765D01*
X003863Y004765D01*
X003827Y004802D01*
X003827Y004948D01*
X003863Y004985D01*
X003974Y004985D01*
X004084Y004765D02*
X004158Y004765D01*
X004195Y004802D01*
X004269Y004765D02*
X004269Y004985D01*
X004342Y004912D01*
X004416Y004985D01*
X004416Y004765D01*
X004490Y004802D02*
X004526Y004765D01*
X004600Y004765D01*
X004637Y004802D01*
X004600Y004875D02*
X004526Y004875D01*
X004490Y004838D01*
X004490Y004802D01*
X004600Y004875D02*
X004637Y004912D01*
X004637Y004948D01*
X004600Y004985D01*
X004526Y004985D01*
X004490Y004948D01*
X004711Y004765D02*
X004858Y004765D01*
X004858Y004985D01*
X003753Y004948D02*
X003753Y004912D01*
X003716Y004875D01*
X003642Y004875D01*
X003606Y004838D01*
X003606Y004802D01*
X003642Y004765D01*
X003716Y004765D01*
X003753Y004802D01*
X003753Y004948D02*
X003716Y004985D01*
X003642Y004985D01*
X003606Y004948D01*
X003532Y004948D02*
X003532Y004802D01*
X003385Y004948D01*
X003385Y004802D01*
X003421Y004765D01*
X003495Y004765D01*
X003532Y004802D01*
X003532Y004948D02*
X003495Y004985D01*
X003421Y004985D01*
X003385Y004948D01*
X003090Y004985D02*
X003090Y004765D01*
X002980Y004765D01*
X002943Y004802D01*
X002943Y004838D01*
X002980Y004875D01*
X003090Y004875D01*
X003090Y004985D02*
X002980Y004985D01*
X002943Y004948D01*
X002943Y004912D01*
X002980Y004875D01*
X002869Y004838D02*
X002759Y004838D01*
X002722Y004875D01*
X002722Y004948D01*
X002759Y004985D01*
X002869Y004985D01*
X002869Y004765D01*
X002795Y004838D02*
X002722Y004765D01*
X002648Y004765D02*
X002501Y004765D01*
X002427Y004765D02*
X002427Y004912D01*
X002353Y004985D01*
X002280Y004912D01*
X002280Y004765D01*
X002206Y004765D02*
X002206Y004985D01*
X002169Y004875D02*
X002059Y004765D01*
X001985Y004802D02*
X001948Y004765D01*
X001875Y004765D01*
X001838Y004802D01*
X001838Y004948D01*
X001875Y004985D01*
X001948Y004985D01*
X001985Y004948D01*
X001985Y004802D01*
X002059Y004985D02*
X002206Y004838D01*
X002280Y004875D02*
X002427Y004875D01*
X002501Y004985D02*
X002648Y004985D01*
X002648Y004765D01*
X002648Y004875D02*
X002574Y004875D01*
X001764Y004802D02*
X001727Y004765D01*
X001654Y004765D01*
X001617Y004802D01*
X001617Y004985D01*
X001543Y004985D02*
X001396Y004985D01*
X001469Y004985D02*
X001469Y004765D01*
X001764Y004802D02*
X001764Y004985D01*
D11*
X003514Y005255D03*
D12*
X002897Y005255D03*
D13*
X002897Y005255D03*
X003514Y005255D03*
D14*
X003514Y005256D03*
D15*
X002897Y005256D03*
D16*
X003514Y005256D03*
D17*
X002897Y005256D03*
X002897Y005506D03*
D18*
X002897Y005257D03*
X003514Y005257D03*
D19*
X003514Y005258D03*
D20*
X002897Y005258D03*
D21*
X002897Y005258D03*
X003514Y005258D03*
D22*
X003514Y005259D03*
X002897Y005259D03*
D23*
X002897Y005259D03*
X002897Y005504D03*
X003514Y005259D03*
D24*
X003514Y005259D03*
X002897Y005259D03*
D25*
X003514Y005260D03*
D26*
X002897Y005260D03*
D27*
X003514Y005260D03*
D28*
X002897Y005260D03*
D29*
X003514Y005261D03*
D30*
X002897Y005261D03*
D31*
X002897Y005261D03*
X002897Y005501D03*
X003514Y005261D03*
D32*
X003514Y005262D03*
X002897Y005262D03*
D33*
X002897Y005263D03*
X003514Y005263D03*
D34*
X003514Y005263D03*
D35*
X002897Y005263D03*
D36*
X003514Y005264D03*
D37*
X002897Y005264D03*
D38*
X002897Y005264D03*
X003514Y005264D03*
D39*
X003514Y005264D03*
D40*
X002897Y005264D03*
D41*
X003514Y005265D03*
D42*
X002897Y005265D03*
D43*
X003514Y005265D03*
D44*
X003514Y005494D03*
X002897Y005265D03*
D45*
X003514Y005266D03*
X003514Y005494D03*
D46*
X002897Y005266D03*
D47*
X003514Y005266D03*
D48*
X002897Y005266D03*
X002897Y005496D03*
D49*
X003514Y005493D03*
X003514Y005267D03*
D50*
X002897Y005267D03*
D51*
X002897Y005268D03*
X002897Y005495D03*
X003514Y005268D03*
D52*
X003514Y005268D03*
D53*
X003514Y005492D03*
X002897Y005268D03*
D54*
X002897Y005269D03*
X003514Y005269D03*
X003514Y005491D03*
D55*
X003514Y005269D03*
D56*
X002897Y005269D03*
X002897Y005494D03*
D57*
X002897Y005493D03*
X002897Y005269D03*
X003514Y005269D03*
D58*
X003514Y005270D03*
D59*
X003514Y005490D03*
X002897Y005494D03*
X002897Y005270D03*
D60*
X003514Y005270D03*
D61*
X002897Y005270D03*
X002897Y005492D03*
D62*
X003514Y005489D03*
X003514Y005271D03*
D63*
X002897Y005271D03*
X002897Y005493D03*
D64*
X003514Y005488D03*
X003514Y005273D03*
X003514Y005271D03*
D65*
X003514Y005489D03*
X002897Y005491D03*
X002897Y005271D03*
D66*
X003514Y005272D03*
X003514Y005488D03*
D67*
X002897Y005490D03*
X002897Y005272D03*
D68*
X002897Y005273D03*
X002897Y005491D03*
D69*
X003514Y005487D03*
X003514Y005273D03*
D70*
X002897Y005273D03*
D71*
X002897Y005274D03*
X002897Y005274D03*
X002897Y005489D03*
X002897Y005489D03*
X003514Y005486D03*
X003514Y005486D03*
X003514Y005274D03*
X003514Y005274D03*
D72*
X003514Y005274D03*
D73*
X003514Y005485D03*
X002897Y005489D03*
X002897Y005274D03*
D74*
X003514Y005275D03*
X003514Y005485D03*
D75*
X002897Y005275D03*
D76*
X002897Y005275D03*
X002897Y005277D03*
X002897Y005485D03*
X002897Y005487D03*
X003514Y005484D03*
X003514Y005483D03*
X003514Y005277D03*
X003514Y005275D03*
D77*
X003514Y005276D03*
X003514Y005276D03*
X003514Y005483D03*
X003514Y005484D03*
X003514Y005484D03*
X002897Y005486D03*
X002897Y005486D03*
X002897Y005488D03*
X002897Y005278D03*
X002897Y005276D03*
X002897Y005276D03*
D78*
X003514Y005278D03*
X003514Y005279D03*
X003514Y005279D03*
X003514Y005280D03*
X003514Y005281D03*
X003514Y005281D03*
X003514Y005283D03*
X003514Y005284D03*
X003514Y005284D03*
X003514Y005285D03*
X003514Y005286D03*
X003514Y005286D03*
X003514Y005288D03*
X003514Y005289D03*
X003514Y005289D03*
X003514Y005290D03*
X003514Y005291D03*
X003514Y005291D03*
X003514Y005293D03*
X003514Y005294D03*
X003514Y005294D03*
X003514Y005295D03*
X003514Y005296D03*
X003514Y005296D03*
X003514Y005298D03*
X003514Y005299D03*
X003514Y005299D03*
X003514Y005300D03*
X003514Y005301D03*
X003514Y005301D03*
X003514Y005303D03*
X003514Y005304D03*
X003514Y005304D03*
X003514Y005305D03*
X003514Y005306D03*
X003514Y005306D03*
X003514Y005308D03*
X003514Y005309D03*
X003514Y005309D03*
X003514Y005310D03*
X003514Y005311D03*
X003514Y005311D03*
X003514Y005313D03*
X003514Y005314D03*
X003514Y005314D03*
X003514Y005315D03*
X003514Y005316D03*
X003514Y005316D03*
X003514Y005318D03*
X003514Y005319D03*
X003514Y005319D03*
X003514Y005320D03*
X003514Y005321D03*
X003514Y005321D03*
X003514Y005323D03*
X003514Y005324D03*
X003514Y005324D03*
X003514Y005325D03*
X003514Y005326D03*
X003514Y005326D03*
X003514Y005328D03*
X003514Y005329D03*
X003514Y005329D03*
X003514Y005330D03*
X003514Y005331D03*
X003514Y005331D03*
X003514Y005333D03*
X003514Y005334D03*
X003514Y005334D03*
X003514Y005335D03*
X003514Y005336D03*
X003514Y005336D03*
X003514Y005338D03*
X003514Y005339D03*
X003514Y005339D03*
X003514Y005340D03*
X003514Y005341D03*
X003514Y005341D03*
X003514Y005343D03*
X003514Y005344D03*
X003514Y005344D03*
X003514Y005345D03*
X003514Y005346D03*
X003514Y005346D03*
X003514Y005348D03*
X003514Y005349D03*
X003514Y005349D03*
X003514Y005350D03*
X003514Y005351D03*
X003514Y005351D03*
X003514Y005353D03*
X003514Y005354D03*
X003514Y005354D03*
X003514Y005355D03*
X003514Y005356D03*
X003514Y005356D03*
X003514Y005358D03*
X003514Y005359D03*
X003514Y005359D03*
X003514Y005360D03*
X003514Y005361D03*
X003514Y005361D03*
X003514Y005363D03*
X003514Y005364D03*
X003514Y005364D03*
X003514Y005365D03*
X003514Y005366D03*
X003514Y005366D03*
X003514Y005368D03*
X003514Y005369D03*
X003514Y005369D03*
X003514Y005370D03*
X003514Y005371D03*
X003514Y005371D03*
X003514Y005373D03*
X003514Y005374D03*
X003514Y005374D03*
X003514Y005375D03*
X003514Y005376D03*
X003514Y005376D03*
X003514Y005378D03*
X003514Y005379D03*
X003514Y005379D03*
X003514Y005380D03*
X003514Y005381D03*
X003514Y005381D03*
X003514Y005383D03*
X003514Y005384D03*
X003514Y005384D03*
X003514Y005385D03*
X003514Y005386D03*
X003514Y005386D03*
X003514Y005388D03*
X003514Y005389D03*
X003514Y005389D03*
X003514Y005390D03*
X003514Y005391D03*
X003514Y005391D03*
X003514Y005393D03*
X003514Y005394D03*
X003514Y005394D03*
X003514Y005395D03*
X003514Y005396D03*
X003514Y005396D03*
X003514Y005398D03*
X003514Y005399D03*
X003514Y005399D03*
X003514Y005400D03*
X003514Y005401D03*
X003514Y005401D03*
X003514Y005403D03*
X003514Y005404D03*
X003514Y005404D03*
X003514Y005405D03*
X003514Y005406D03*
X003514Y005406D03*
X003514Y005408D03*
X003514Y005409D03*
X003514Y005409D03*
X003514Y005410D03*
X003514Y005411D03*
X003514Y005411D03*
X003514Y005413D03*
X003514Y005414D03*
X003514Y005414D03*
X003514Y005415D03*
X003514Y005416D03*
X003514Y005416D03*
X003514Y005418D03*
X003514Y005419D03*
X003514Y005419D03*
X003514Y005420D03*
X003514Y005421D03*
X003514Y005421D03*
X003514Y005423D03*
X003514Y005424D03*
X003514Y005424D03*
X003514Y005425D03*
X003514Y005426D03*
X003514Y005426D03*
X003514Y005428D03*
X003514Y005429D03*
X003514Y005429D03*
X003514Y005430D03*
X003514Y005431D03*
X003514Y005431D03*
X003514Y005433D03*
X003514Y005434D03*
X003514Y005434D03*
X003514Y005435D03*
X003514Y005436D03*
X003514Y005436D03*
X003514Y005438D03*
X003514Y005439D03*
X003514Y005439D03*
X003514Y005440D03*
X003514Y005441D03*
X003514Y005441D03*
X003514Y005443D03*
X003514Y005444D03*
X003514Y005444D03*
X003514Y005445D03*
X003514Y005446D03*
X003514Y005446D03*
X003514Y005448D03*
X003514Y005449D03*
X003514Y005449D03*
X003514Y005450D03*
X003514Y005451D03*
X003514Y005451D03*
X003514Y005453D03*
X003514Y005454D03*
X003514Y005454D03*
X003514Y005455D03*
X003514Y005456D03*
X003514Y005456D03*
X003514Y005458D03*
X003514Y005459D03*
X003514Y005459D03*
X003514Y005460D03*
X003514Y005461D03*
X003514Y005461D03*
X003514Y005463D03*
X003514Y005464D03*
X003514Y005464D03*
X003514Y005465D03*
X003514Y005466D03*
X003514Y005466D03*
X003514Y005468D03*
X003514Y005469D03*
X003514Y005469D03*
X003514Y005470D03*
X003514Y005471D03*
X003514Y005471D03*
X003514Y005473D03*
X003514Y005474D03*
X003514Y005474D03*
X003514Y005475D03*
X003514Y005476D03*
X003514Y005476D03*
X003514Y005478D03*
X003514Y005479D03*
X003514Y005479D03*
X003514Y005480D03*
X003514Y005481D03*
X003514Y005481D03*
D79*
X003514Y005480D03*
X003514Y005479D03*
X003514Y005478D03*
X003514Y005477D03*
X003514Y005475D03*
X003514Y005474D03*
X003514Y005473D03*
X003514Y005472D03*
X003514Y005470D03*
X003514Y005469D03*
X003514Y005468D03*
X003514Y005467D03*
X003514Y005465D03*
X003514Y005464D03*
X003514Y005463D03*
X003514Y005462D03*
X003514Y005460D03*
X003514Y005459D03*
X003514Y005458D03*
X003514Y005457D03*
X003514Y005455D03*
X003514Y005454D03*
X003514Y005453D03*
X003514Y005452D03*
X003514Y005450D03*
X003514Y005449D03*
X003514Y005448D03*
X003514Y005447D03*
X003514Y005445D03*
X003514Y005444D03*
X003514Y005443D03*
X003514Y005442D03*
X003514Y005440D03*
X003514Y005439D03*
X003514Y005438D03*
X003514Y005437D03*
X003514Y005435D03*
X003514Y005434D03*
X003514Y005433D03*
X003514Y005432D03*
X003514Y005430D03*
X003514Y005429D03*
X003514Y005428D03*
X003514Y005427D03*
X003514Y005425D03*
X003514Y005424D03*
X003514Y005423D03*
X003514Y005422D03*
X003514Y005420D03*
X003514Y005419D03*
X003514Y005418D03*
X003514Y005417D03*
X003514Y005415D03*
X003514Y005414D03*
X003514Y005413D03*
X003514Y005412D03*
X003514Y005410D03*
X003514Y005409D03*
X003514Y005408D03*
X003514Y005407D03*
X003514Y005405D03*
X003514Y005404D03*
X003514Y005403D03*
X003514Y005402D03*
X003514Y005400D03*
X003514Y005399D03*
X003514Y005398D03*
X003514Y005397D03*
X003514Y005395D03*
X003514Y005394D03*
X003514Y005393D03*
X003514Y005392D03*
X003514Y005390D03*
X003514Y005389D03*
X003514Y005388D03*
X003514Y005387D03*
X003514Y005385D03*
X003514Y005384D03*
X003514Y005383D03*
X003514Y005382D03*
X003514Y005380D03*
X003514Y005379D03*
X003514Y005378D03*
X003514Y005377D03*
X003514Y005375D03*
X003514Y005374D03*
X003514Y005373D03*
X003514Y005372D03*
X003514Y005370D03*
X003514Y005369D03*
X003514Y005368D03*
X003514Y005367D03*
X003514Y005365D03*
X003514Y005364D03*
X003514Y005363D03*
X003514Y005362D03*
X003514Y005360D03*
X003514Y005359D03*
X003514Y005358D03*
X003514Y005357D03*
X003514Y005355D03*
X003514Y005354D03*
X003514Y005353D03*
X003514Y005352D03*
X003514Y005350D03*
X003514Y005349D03*
X003514Y005348D03*
X003514Y005347D03*
X003514Y005345D03*
X003514Y005344D03*
X003514Y005343D03*
X003514Y005342D03*
X003514Y005340D03*
X003514Y005339D03*
X003514Y005338D03*
X003514Y005337D03*
X003514Y005335D03*
X003514Y005334D03*
X003514Y005333D03*
X003514Y005332D03*
X003514Y005330D03*
X003514Y005329D03*
X003514Y005328D03*
X003514Y005327D03*
X003514Y005325D03*
X003514Y005324D03*
X003514Y005323D03*
X003514Y005322D03*
X003514Y005320D03*
X003514Y005319D03*
X003514Y005318D03*
X003514Y005317D03*
X003514Y005315D03*
X003514Y005314D03*
X003514Y005313D03*
X003514Y005312D03*
X003514Y005310D03*
X003514Y005309D03*
X003514Y005308D03*
X003514Y005307D03*
X003514Y005305D03*
X003514Y005304D03*
X003514Y005303D03*
X003514Y005302D03*
X003514Y005300D03*
X003514Y005299D03*
X003514Y005298D03*
X003514Y005297D03*
X003514Y005295D03*
X003514Y005294D03*
X003514Y005293D03*
X003514Y005292D03*
X003514Y005290D03*
X003514Y005289D03*
X003514Y005288D03*
X003514Y005287D03*
X003514Y005285D03*
X003514Y005284D03*
X003514Y005283D03*
X003514Y005282D03*
X003514Y005280D03*
X003514Y005279D03*
X003514Y005278D03*
X003514Y005482D03*
D80*
X002897Y005483D03*
X002897Y005482D03*
X002897Y005480D03*
X002897Y005479D03*
X002897Y005478D03*
X002897Y005477D03*
X002897Y005475D03*
X002897Y005474D03*
X002897Y005473D03*
X002897Y005472D03*
X002897Y005470D03*
X002897Y005469D03*
X002897Y005468D03*
X002897Y005467D03*
X002897Y005465D03*
X002897Y005464D03*
X002897Y005463D03*
X002897Y005462D03*
X002897Y005460D03*
X002897Y005459D03*
X002897Y005458D03*
X002897Y005457D03*
X002897Y005455D03*
X002897Y005454D03*
X002897Y005453D03*
X002897Y005452D03*
X002897Y005450D03*
X002897Y005449D03*
X002897Y005448D03*
X002897Y005447D03*
X002897Y005445D03*
X002897Y005444D03*
X002897Y005443D03*
X002897Y005442D03*
X002897Y005440D03*
X002897Y005439D03*
X002897Y005438D03*
X002897Y005437D03*
X002897Y005435D03*
X002897Y005434D03*
X002897Y005433D03*
X002897Y005432D03*
X002897Y005430D03*
X002897Y005429D03*
X002897Y005428D03*
X002897Y005427D03*
X002897Y005425D03*
X002897Y005424D03*
X002897Y005423D03*
X002897Y005422D03*
X002897Y005420D03*
X002897Y005419D03*
X002897Y005418D03*
X002897Y005417D03*
X002897Y005415D03*
X002897Y005414D03*
X002897Y005413D03*
X002897Y005412D03*
X002897Y005410D03*
X002897Y005409D03*
X002897Y005408D03*
X002897Y005407D03*
X002897Y005405D03*
X002897Y005404D03*
X002897Y005403D03*
X002897Y005402D03*
X002897Y005400D03*
X002897Y005399D03*
X002897Y005398D03*
X002897Y005397D03*
X002897Y005395D03*
X002897Y005394D03*
X002897Y005393D03*
X002897Y005392D03*
X002897Y005390D03*
X002897Y005389D03*
X002897Y005388D03*
X002897Y005387D03*
X002897Y005385D03*
X002897Y005384D03*
X002897Y005383D03*
X002897Y005382D03*
X002897Y005380D03*
X002897Y005379D03*
X002897Y005378D03*
X002897Y005377D03*
X002897Y005375D03*
X002897Y005374D03*
X002897Y005373D03*
X002897Y005372D03*
X002897Y005370D03*
X002897Y005369D03*
X002897Y005368D03*
X002897Y005367D03*
X002897Y005365D03*
X002897Y005364D03*
X002897Y005363D03*
X002897Y005362D03*
X002897Y005360D03*
X002897Y005359D03*
X002897Y005358D03*
X002897Y005357D03*
X002897Y005355D03*
X002897Y005354D03*
X002897Y005353D03*
X002897Y005352D03*
X002897Y005350D03*
X002897Y005349D03*
X002897Y005348D03*
X002897Y005347D03*
X002897Y005345D03*
X002897Y005344D03*
X002897Y005343D03*
X002897Y005342D03*
X002897Y005340D03*
X002897Y005339D03*
X002897Y005338D03*
X002897Y005337D03*
X002897Y005335D03*
X002897Y005334D03*
X002897Y005333D03*
X002897Y005332D03*
X002897Y005330D03*
X002897Y005329D03*
X002897Y005328D03*
X002897Y005327D03*
X002897Y005325D03*
X002897Y005324D03*
X002897Y005323D03*
X002897Y005322D03*
X002897Y005320D03*
X002897Y005319D03*
X002897Y005318D03*
X002897Y005317D03*
X002897Y005315D03*
X002897Y005314D03*
X002897Y005313D03*
X002897Y005312D03*
X002897Y005310D03*
X002897Y005309D03*
X002897Y005308D03*
X002897Y005307D03*
X002897Y005305D03*
X002897Y005304D03*
X002897Y005303D03*
X002897Y005302D03*
X002897Y005300D03*
X002897Y005299D03*
X002897Y005298D03*
X002897Y005297D03*
X002897Y005295D03*
X002897Y005294D03*
X002897Y005293D03*
X002897Y005292D03*
X002897Y005290D03*
X002897Y005289D03*
X002897Y005288D03*
X002897Y005287D03*
X002897Y005285D03*
X002897Y005284D03*
X002897Y005283D03*
X002897Y005282D03*
X002897Y005280D03*
X002897Y005279D03*
X002897Y005278D03*
X002897Y005484D03*
D81*
X002897Y005484D03*
X002897Y005484D03*
X002897Y005485D03*
X002897Y005483D03*
X002897Y005481D03*
X002897Y005481D03*
X002897Y005480D03*
X002897Y005479D03*
X002897Y005479D03*
X002897Y005478D03*
X002897Y005476D03*
X002897Y005476D03*
X002897Y005475D03*
X002897Y005474D03*
X002897Y005474D03*
X002897Y005473D03*
X002897Y005471D03*
X002897Y005471D03*
X002897Y005470D03*
X002897Y005469D03*
X002897Y005469D03*
X002897Y005468D03*
X002897Y005466D03*
X002897Y005466D03*
X002897Y005465D03*
X002897Y005464D03*
X002897Y005464D03*
X002897Y005463D03*
X002897Y005461D03*
X002897Y005461D03*
X002897Y005460D03*
X002897Y005459D03*
X002897Y005459D03*
X002897Y005458D03*
X002897Y005456D03*
X002897Y005456D03*
X002897Y005455D03*
X002897Y005454D03*
X002897Y005454D03*
X002897Y005453D03*
X002897Y005451D03*
X002897Y005451D03*
X002897Y005450D03*
X002897Y005449D03*
X002897Y005449D03*
X002897Y005448D03*
X002897Y005446D03*
X002897Y005446D03*
X002897Y005445D03*
X002897Y005444D03*
X002897Y005444D03*
X002897Y005443D03*
X002897Y005441D03*
X002897Y005441D03*
X002897Y005440D03*
X002897Y005439D03*
X002897Y005439D03*
X002897Y005438D03*
X002897Y005436D03*
X002897Y005436D03*
X002897Y005435D03*
X002897Y005434D03*
X002897Y005434D03*
X002897Y005433D03*
X002897Y005431D03*
X002897Y005431D03*
X002897Y005430D03*
X002897Y005429D03*
X002897Y005429D03*
X002897Y005428D03*
X002897Y005426D03*
X002897Y005426D03*
X002897Y005425D03*
X002897Y005424D03*
X002897Y005424D03*
X002897Y005423D03*
X002897Y005421D03*
X002897Y005421D03*
X002897Y005420D03*
X002897Y005419D03*
X002897Y005419D03*
X002897Y005418D03*
X002897Y005416D03*
X002897Y005416D03*
X002897Y005415D03*
X002897Y005414D03*
X002897Y005414D03*
X002897Y005413D03*
X002897Y005411D03*
X002897Y005411D03*
X002897Y005410D03*
X002897Y005409D03*
X002897Y005409D03*
X002897Y005408D03*
X002897Y005406D03*
X002897Y005406D03*
X002897Y005405D03*
X002897Y005404D03*
X002897Y005404D03*
X002897Y005403D03*
X002897Y005401D03*
X002897Y005401D03*
X002897Y005400D03*
X002897Y005399D03*
X002897Y005399D03*
X002897Y005398D03*
X002897Y005396D03*
X002897Y005396D03*
X002897Y005395D03*
X002897Y005394D03*
X002897Y005394D03*
X002897Y005393D03*
X002897Y005391D03*
X002897Y005391D03*
X002897Y005390D03*
X002897Y005389D03*
X002897Y005389D03*
X002897Y005388D03*
X002897Y005386D03*
X002897Y005386D03*
X002897Y005385D03*
X002897Y005384D03*
X002897Y005384D03*
X002897Y005383D03*
X002897Y005381D03*
X002897Y005381D03*
X002897Y005380D03*
X002897Y005379D03*
X002897Y005379D03*
X002897Y005378D03*
X002897Y005376D03*
X002897Y005376D03*
X002897Y005375D03*
X002897Y005374D03*
X002897Y005374D03*
X002897Y005373D03*
X002897Y005371D03*
X002897Y005371D03*
X002897Y005370D03*
X002897Y005369D03*
X002897Y005369D03*
X002897Y005368D03*
X002897Y005366D03*
X002897Y005366D03*
X002897Y005365D03*
X002897Y005364D03*
X002897Y005364D03*
X002897Y005363D03*
X002897Y005361D03*
X002897Y005361D03*
X002897Y005360D03*
X002897Y005359D03*
X002897Y005359D03*
X002897Y005358D03*
X002897Y005356D03*
X002897Y005356D03*
X002897Y005355D03*
X002897Y005354D03*
X002897Y005354D03*
X002897Y005353D03*
X002897Y005351D03*
X002897Y005351D03*
X002897Y005350D03*
X002897Y005349D03*
X002897Y005349D03*
X002897Y005348D03*
X002897Y005346D03*
X002897Y005346D03*
X002897Y005345D03*
X002897Y005344D03*
X002897Y005344D03*
X002897Y005343D03*
X002897Y005341D03*
X002897Y005341D03*
X002897Y005340D03*
X002897Y005339D03*
X002897Y005339D03*
X002897Y005338D03*
X002897Y005336D03*
X002897Y005336D03*
X002897Y005335D03*
X002897Y005334D03*
X002897Y005334D03*
X002897Y005333D03*
X002897Y005331D03*
X002897Y005331D03*
X002897Y005330D03*
X002897Y005329D03*
X002897Y005329D03*
X002897Y005328D03*
X002897Y005326D03*
X002897Y005326D03*
X002897Y005325D03*
X002897Y005324D03*
X002897Y005324D03*
X002897Y005323D03*
X002897Y005321D03*
X002897Y005321D03*
X002897Y005320D03*
X002897Y005319D03*
X002897Y005319D03*
X002897Y005318D03*
X002897Y005316D03*
X002897Y005316D03*
X002897Y005315D03*
X002897Y005314D03*
X002897Y005314D03*
X002897Y005313D03*
X002897Y005311D03*
X002897Y005311D03*
X002897Y005310D03*
X002897Y005309D03*
X002897Y005309D03*
X002897Y005308D03*
X002897Y005306D03*
X002897Y005306D03*
X002897Y005305D03*
X002897Y005304D03*
X002897Y005304D03*
X002897Y005303D03*
X002897Y005301D03*
X002897Y005301D03*
X002897Y005300D03*
X002897Y005299D03*
X002897Y005299D03*
X002897Y005298D03*
X002897Y005296D03*
X002897Y005296D03*
X002897Y005295D03*
X002897Y005294D03*
X002897Y005294D03*
X002897Y005293D03*
X002897Y005291D03*
X002897Y005291D03*
X002897Y005290D03*
X002897Y005289D03*
X002897Y005289D03*
X002897Y005288D03*
X002897Y005286D03*
X002897Y005286D03*
X002897Y005285D03*
X002897Y005284D03*
X002897Y005284D03*
X002897Y005283D03*
X002897Y005281D03*
X002897Y005281D03*
X002897Y005280D03*
X002897Y005279D03*
X002897Y005279D03*
D82*
X002897Y005488D03*
D83*
X003514Y005489D03*
D84*
X002897Y005490D03*
D85*
X003514Y005490D03*
D86*
X003514Y005491D03*
D87*
X003514Y005493D03*
D88*
X003514Y005494D03*
D89*
X002897Y005494D03*
D90*
X003514Y005495D03*
D91*
X003514Y005495D03*
D92*
X002897Y005495D03*
D93*
X003514Y005496D03*
D94*
X002897Y005496D03*
D95*
X003514Y005496D03*
D96*
X003514Y005497D03*
D97*
X002897Y005497D03*
D98*
X003514Y005498D03*
D99*
X002897Y005498D03*
D100*
X003514Y005498D03*
D101*
X002897Y005498D03*
D102*
X003514Y005499D03*
D103*
X002897Y005499D03*
D104*
X003514Y005499D03*
D105*
X002897Y005499D03*
D106*
X003514Y005499D03*
D107*
X002897Y005499D03*
D108*
X003514Y005500D03*
D109*
X002897Y005500D03*
D110*
X003514Y005500D03*
D111*
X002897Y005500D03*
D112*
X003514Y005501D03*
D113*
X002897Y005501D03*
D114*
X003514Y005501D03*
D115*
X003514Y005502D03*
D116*
X002897Y005502D03*
D117*
X003514Y005503D03*
D118*
X002897Y005503D03*
D119*
X003514Y005503D03*
D120*
X002897Y005503D03*
D121*
X003514Y005504D03*
D122*
X002897Y005504D03*
D123*
X003514Y005504D03*
D124*
X003514Y005504D03*
D125*
X002897Y005504D03*
D126*
X003512Y005505D03*
D127*
X002897Y005505D03*
D128*
X003513Y005505D03*
X003513Y005507D03*
D129*
X002897Y005505D03*
D130*
X003513Y005506D03*
X003513Y005506D03*
D131*
X002897Y005506D03*
D132*
X002897Y005507D03*
D133*
X003513Y005508D03*
X003513Y005509D03*
D134*
X002897Y005508D03*
D135*
X003513Y005508D03*
D136*
X002897Y005508D03*
D137*
X002893Y005509D03*
X002893Y005509D03*
X002893Y005510D03*
D138*
X003513Y005510D03*
X003513Y005509D03*
D139*
X003513Y005509D03*
X003513Y005510D03*
D140*
X002893Y005509D03*
D141*
X002893Y005510D03*
X002893Y005512D03*
X003522Y005569D03*
D142*
X003513Y005511D03*
X003513Y005511D03*
D143*
X003522Y005569D03*
X003522Y005569D03*
X003522Y005570D03*
X002893Y005511D03*
X002893Y005511D03*
D144*
X003513Y005512D03*
D145*
X003514Y005513D03*
X003514Y005514D03*
D146*
X002893Y005514D03*
X002893Y005514D03*
X002893Y005513D03*
D147*
X003514Y005513D03*
D148*
X002893Y005513D03*
D149*
X003514Y005514D03*
X003514Y005515D03*
D150*
X003514Y005515D03*
X003514Y005514D03*
D151*
X003522Y005572D03*
X003522Y005573D03*
X002892Y005515D03*
X002892Y005514D03*
D152*
X002892Y005515D03*
X002892Y005516D03*
X003522Y005573D03*
D153*
X003514Y005516D03*
X003514Y005516D03*
D154*
X003523Y005574D03*
X003523Y005574D03*
X003523Y005575D03*
X002892Y005519D03*
X002892Y005518D03*
X002892Y005516D03*
D155*
X003514Y005517D03*
D156*
X003523Y005574D03*
X002892Y005518D03*
X002892Y005517D03*
D157*
X003514Y005518D03*
X003514Y005519D03*
X003514Y005519D03*
D158*
X003514Y005518D03*
D159*
X002892Y005519D03*
X002892Y005520D03*
D160*
X003515Y005520D03*
X003515Y005519D03*
D161*
X002892Y005519D03*
X002892Y005520D03*
D162*
X003515Y005520D03*
D163*
X003515Y005521D03*
X003515Y005521D03*
D164*
X003523Y005578D03*
X003523Y005579D03*
X002892Y005523D03*
X002892Y005521D03*
X002892Y005521D03*
D165*
X003515Y005522D03*
D166*
X003523Y005577D03*
X003523Y005578D03*
X002892Y005522D03*
D167*
X003515Y005523D03*
X003515Y005524D03*
X003515Y005524D03*
D168*
X003515Y005523D03*
D169*
X002891Y005523D03*
X002891Y005524D03*
D170*
X002891Y005524D03*
X002891Y005524D03*
D171*
X003515Y005524D03*
X003515Y005525D03*
D172*
X003515Y005525D03*
D173*
X003524Y005581D03*
X003524Y005581D03*
X002891Y005526D03*
X002891Y005526D03*
X002891Y005525D03*
D174*
X002891Y005525D03*
X003524Y005580D03*
D175*
X003516Y005528D03*
X003516Y005526D03*
X003516Y005526D03*
D176*
X003516Y005527D03*
D177*
X003524Y005582D03*
X003524Y005583D03*
X002891Y005528D03*
X002891Y005527D03*
D178*
X002891Y005528D03*
X002891Y005529D03*
X003524Y005583D03*
X003524Y005584D03*
D179*
X003516Y005528D03*
D180*
X003516Y005529D03*
X003516Y005529D03*
D181*
X002891Y005530D03*
X002891Y005531D03*
X002891Y005529D03*
D182*
X003516Y005529D03*
X003516Y005530D03*
D183*
X002891Y005530D03*
X002891Y005529D03*
D184*
X003516Y005530D03*
D185*
X003516Y005531D03*
X003516Y005531D03*
X003516Y005533D03*
D186*
X003524Y005586D03*
X003524Y005586D03*
X002890Y005533D03*
X002890Y005531D03*
D187*
X003516Y005532D03*
D188*
X003524Y005585D03*
X003524Y005587D03*
X002890Y005533D03*
X002890Y005532D03*
D189*
X003516Y005533D03*
D190*
X003516Y005534D03*
X003516Y005534D03*
D191*
X002890Y005535D03*
X002890Y005534D03*
X002890Y005534D03*
D192*
X003517Y005534D03*
X003517Y005535D03*
D193*
X002890Y005534D03*
D194*
X003517Y005535D03*
X003517Y005536D03*
D195*
X003525Y005589D03*
X002890Y005537D03*
X002890Y005535D03*
D196*
X002890Y005536D03*
X002890Y005536D03*
X003525Y005589D03*
X003525Y005590D03*
D197*
X003517Y005538D03*
X003517Y005536D03*
D198*
X003517Y005537D03*
D199*
X003525Y005591D03*
X003525Y005591D03*
X002890Y005539D03*
X002890Y005539D03*
X002890Y005538D03*
D200*
X003517Y005538D03*
D201*
X003525Y005590D03*
X003525Y005592D03*
X002890Y005538D03*
D202*
X003517Y005539D03*
X003517Y005539D03*
D203*
X003518Y005539D03*
X003518Y005540D03*
D204*
X002889Y005540D03*
X002889Y005539D03*
D205*
X003518Y005540D03*
X003518Y005541D03*
D206*
X002889Y005541D03*
X002889Y005540D03*
D207*
X003518Y005541D03*
X003518Y005543D03*
D208*
X003526Y005594D03*
X003526Y005595D03*
X002889Y005544D03*
X002889Y005543D03*
X002889Y005541D03*
D209*
X003518Y005542D03*
D210*
X003526Y005594D03*
X003526Y005595D03*
X002889Y005543D03*
X002889Y005542D03*
D211*
X003518Y005543D03*
X003518Y005544D03*
D212*
X003518Y005544D03*
X003518Y005544D03*
D213*
X002889Y005545D03*
X002889Y005544D03*
D214*
X002889Y005544D03*
X002889Y005545D03*
D215*
X003518Y005546D03*
X003518Y005545D03*
D216*
X003518Y005545D03*
D217*
X003526Y005598D03*
X003526Y005599D03*
X002889Y005548D03*
X002889Y005546D03*
X002889Y005546D03*
D218*
X003519Y005546D03*
X003519Y005548D03*
D219*
X003519Y005547D03*
D220*
X003526Y005598D03*
X002889Y005547D03*
D221*
X003519Y005548D03*
X003519Y005549D03*
D222*
X003526Y005599D03*
X003526Y005600D03*
X002888Y005549D03*
X002888Y005548D03*
D223*
X003519Y005549D03*
X003519Y005549D03*
D224*
X003526Y005599D03*
X003526Y005600D03*
X002888Y005549D03*
X002888Y005549D03*
D225*
X003519Y005550D03*
X003519Y005551D03*
D226*
X002888Y005551D03*
X002888Y005551D03*
X002888Y005550D03*
D227*
X003519Y005550D03*
D228*
X002888Y005550D03*
D229*
X003519Y005551D03*
X003519Y005553D03*
D230*
X003519Y005553D03*
X003519Y005552D03*
D231*
X003527Y005603D03*
X002888Y005553D03*
X002888Y005552D03*
D232*
X002888Y005553D03*
X002888Y005554D03*
X003527Y005603D03*
X003527Y005604D03*
X003527Y005604D03*
D233*
X003520Y005554D03*
X003520Y005554D03*
D234*
X002888Y005555D03*
X002888Y005556D03*
X002888Y005554D03*
D235*
X003520Y005554D03*
D236*
X002888Y005554D03*
X002888Y005555D03*
D237*
X003520Y005556D03*
X003520Y005555D03*
D238*
X003520Y005555D03*
D239*
X003520Y005556D03*
X003520Y005558D03*
D240*
X003527Y005606D03*
X003527Y005606D03*
X002887Y005558D03*
X002887Y005556D03*
D241*
X003520Y005557D03*
X003520Y005558D03*
D242*
X003527Y005607D03*
X002887Y005558D03*
X002887Y005557D03*
D243*
X003520Y005559D03*
X003520Y005559D03*
D244*
X003528Y005608D03*
X003528Y005609D03*
X003528Y005609D03*
X002887Y005560D03*
X002887Y005559D03*
X002887Y005559D03*
D245*
X003520Y005559D03*
D246*
X003528Y005608D03*
X002887Y005559D03*
D247*
X003521Y005560D03*
X003521Y005561D03*
X003521Y005561D03*
D248*
X003521Y005560D03*
D249*
X002887Y005560D03*
X002887Y005562D03*
D250*
X002887Y005561D03*
X002887Y005561D03*
D251*
X003521Y005562D03*
X003521Y005563D03*
D252*
X003521Y005563D03*
D253*
X003528Y005611D03*
X003528Y005611D03*
X003528Y005613D03*
X002887Y005564D03*
X002887Y005564D03*
X002887Y005563D03*
D254*
X002887Y005563D03*
X003528Y005612D03*
D255*
X003521Y005564D03*
X003521Y005564D03*
D256*
X003521Y005564D03*
D257*
X002886Y005564D03*
X002886Y005565D03*
D258*
X003521Y005566D03*
X003521Y005566D03*
X003521Y005565D03*
D259*
X002886Y005566D03*
X002886Y005565D03*
D260*
X003521Y005565D03*
D261*
X003529Y005615D03*
X003529Y005616D03*
X002886Y005569D03*
X002886Y005568D03*
X002886Y005566D03*
D262*
X003521Y005567D03*
X003521Y005568D03*
D263*
X003529Y005614D03*
X003529Y005615D03*
X002886Y005568D03*
X002886Y005567D03*
D264*
X003521Y005568D03*
D265*
X003529Y005616D03*
X003529Y005618D03*
X002886Y005570D03*
X002886Y005569D03*
D266*
X002886Y005569D03*
X002886Y005570D03*
X003529Y005617D03*
D267*
X003522Y005570D03*
D268*
X003522Y005571D03*
X003522Y005571D03*
D269*
X002886Y005571D03*
X002886Y005571D03*
X002886Y005573D03*
D270*
X002886Y005572D03*
D271*
X002885Y005573D03*
X002885Y005574D03*
X003529Y005619D03*
X003529Y005620D03*
D272*
X003529Y005620D03*
X003529Y005621D03*
X002885Y005574D03*
X002885Y005574D03*
D273*
X002885Y005575D03*
X002885Y005576D03*
X002885Y005576D03*
D274*
X003523Y005575D03*
D275*
X002885Y005575D03*
D276*
X003523Y005576D03*
X003523Y005576D03*
D277*
X003530Y005623D03*
X003530Y005624D03*
X002885Y005578D03*
X002885Y005577D03*
D278*
X002885Y005578D03*
X002885Y005579D03*
X003530Y005624D03*
X003530Y005624D03*
D279*
X003523Y005580D03*
X003523Y005579D03*
D280*
X003530Y005625D03*
X003530Y005626D03*
X002885Y005581D03*
X002885Y005580D03*
X002885Y005579D03*
D281*
X003523Y005579D03*
D282*
X003530Y005625D03*
X002885Y005580D03*
X002885Y005579D03*
D283*
X002884Y005581D03*
X002884Y005583D03*
D284*
X002884Y005583D03*
X002884Y005582D03*
D285*
X002884Y005584D03*
X002884Y005584D03*
X002884Y005585D03*
X003531Y005629D03*
X003531Y005629D03*
D286*
X003524Y005585D03*
X003524Y005584D03*
D287*
X003524Y005584D03*
D288*
X003531Y005628D03*
X003531Y005629D03*
X002884Y005584D03*
D289*
X002884Y005585D03*
X002884Y005587D03*
D290*
X002884Y005586D03*
X002884Y005586D03*
D291*
X003525Y005588D03*
X003525Y005589D03*
D292*
X003531Y005631D03*
X003531Y005633D03*
X002884Y005589D03*
X002884Y005589D03*
X002884Y005588D03*
D293*
X003525Y005588D03*
D294*
X003531Y005632D03*
X003531Y005633D03*
X002884Y005588D03*
D295*
X002883Y005589D03*
X002883Y005590D03*
X003531Y005634D03*
D296*
X003531Y005634D03*
X003531Y005634D03*
X002883Y005591D03*
X002883Y005590D03*
D297*
X002883Y005591D03*
X002883Y005593D03*
X002883Y005594D03*
D298*
X002883Y005593D03*
X002883Y005592D03*
D299*
X003525Y005593D03*
X003525Y005594D03*
D300*
X003525Y005593D03*
D301*
X003532Y005636D03*
X003532Y005638D03*
X002883Y005595D03*
X002883Y005594D03*
D302*
X002883Y005594D03*
X002883Y005595D03*
X003532Y005637D03*
X003532Y005638D03*
D303*
X003526Y005596D03*
X003526Y005596D03*
D304*
X002883Y005596D03*
X002883Y005596D03*
X002883Y005598D03*
D305*
X003526Y005597D03*
D306*
X002883Y005597D03*
D307*
X002882Y005598D03*
X002882Y005599D03*
X003532Y005640D03*
D308*
X003532Y005640D03*
X003532Y005641D03*
X003532Y005641D03*
X002882Y005599D03*
X002882Y005599D03*
D309*
X002882Y005600D03*
X002882Y005601D03*
X002882Y005601D03*
X003533Y005643D03*
D310*
X003533Y005643D03*
X003533Y005642D03*
X002882Y005600D03*
D311*
X003526Y005601D03*
X003526Y005601D03*
D312*
X003526Y005602D03*
D313*
X002882Y005603D03*
X002882Y005602D03*
D314*
X002882Y005603D03*
X002882Y005604D03*
D315*
X002882Y005604D03*
X002882Y005605D03*
X002882Y005606D03*
X003533Y005645D03*
X003533Y005646D03*
X003533Y005646D03*
D316*
X003527Y005605D03*
X003527Y005604D03*
D317*
X003533Y005645D03*
X002882Y005605D03*
X002882Y005604D03*
D318*
X003527Y005605D03*
D319*
X002881Y005606D03*
X002881Y005608D03*
D320*
X002881Y005608D03*
X002881Y005607D03*
D321*
X002881Y005609D03*
X002881Y005609D03*
X002881Y005610D03*
X003534Y005649D03*
X003534Y005649D03*
X003534Y005650D03*
D322*
X003528Y005610D03*
X003528Y005609D03*
D323*
X003534Y005649D03*
X002881Y005609D03*
D324*
X003528Y005610D03*
D325*
X003534Y005650D03*
X002881Y005612D03*
X002881Y005610D03*
D326*
X002881Y005611D03*
X002881Y005611D03*
X003534Y005651D03*
X003534Y005651D03*
D327*
X002881Y005614D03*
X002881Y005614D03*
X002881Y005613D03*
D328*
X003528Y005613D03*
D329*
X002881Y005613D03*
D330*
X003528Y005614D03*
X003528Y005614D03*
D331*
X003534Y005654D03*
X002880Y005615D03*
X002880Y005614D03*
D332*
X002880Y005615D03*
X002880Y005616D03*
X003534Y005654D03*
X003534Y005654D03*
X003534Y005655D03*
D333*
X002880Y005619D03*
X002880Y005618D03*
X002880Y005616D03*
D334*
X002880Y005617D03*
X002880Y005618D03*
D335*
X003529Y005618D03*
D336*
X003529Y005619D03*
X003529Y005619D03*
D337*
X003535Y005658D03*
X003535Y005659D03*
X002880Y005620D03*
X002880Y005619D03*
D338*
X002880Y005619D03*
X002880Y005620D03*
X003535Y005657D03*
X003535Y005658D03*
D339*
X003535Y005659D03*
X003535Y005660D03*
X002880Y005623D03*
X002880Y005621D03*
X002880Y005621D03*
D340*
X003530Y005621D03*
X003530Y005623D03*
D341*
X003530Y005622D03*
D342*
X003535Y005659D03*
X002880Y005622D03*
D343*
X002879Y005623D03*
X002879Y005624D03*
D344*
X002879Y005624D03*
X002879Y005624D03*
D345*
X002879Y005625D03*
X002879Y005626D03*
X002879Y005626D03*
X003536Y005663D03*
X003536Y005664D03*
D346*
X003536Y005663D03*
X003536Y005662D03*
X002879Y005625D03*
D347*
X003530Y005626D03*
X003530Y005628D03*
D348*
X003530Y005627D03*
D349*
X002879Y005628D03*
X002879Y005627D03*
D350*
X002879Y005628D03*
X002879Y005629D03*
D351*
X002879Y005629D03*
X002879Y005630D03*
X002879Y005631D03*
X003536Y005666D03*
X003536Y005666D03*
D352*
X003536Y005665D03*
X003536Y005667D03*
X002879Y005630D03*
X002879Y005629D03*
D353*
X003531Y005630D03*
X003531Y005631D03*
D354*
X003531Y005630D03*
D355*
X003536Y005668D03*
X003536Y005669D03*
X002878Y005633D03*
X002878Y005631D03*
D356*
X002878Y005632D03*
X002878Y005633D03*
X003536Y005668D03*
D357*
X002878Y005635D03*
X002878Y005634D03*
X002878Y005634D03*
D358*
X002878Y005634D03*
D359*
X003531Y005635D03*
X003531Y005636D03*
D360*
X003531Y005635D03*
D361*
X003537Y005670D03*
X003537Y005672D03*
X002878Y005637D03*
X002878Y005635D03*
D362*
X002878Y005636D03*
X002878Y005636D03*
X003537Y005671D03*
X003537Y005671D03*
D363*
X002878Y005639D03*
X002878Y005639D03*
X002878Y005638D03*
D364*
X002878Y005638D03*
D365*
X003532Y005639D03*
X003532Y005639D03*
D366*
X003532Y005639D03*
D367*
X003537Y005674D03*
X003537Y005675D03*
X002877Y005640D03*
X002877Y005639D03*
D368*
X002877Y005640D03*
X002877Y005641D03*
X003537Y005674D03*
X003537Y005675D03*
D369*
X003538Y005676D03*
X003538Y005676D03*
X002877Y005644D03*
X002877Y005643D03*
X002877Y005641D03*
D370*
X002877Y005642D03*
X002877Y005643D03*
X003538Y005677D03*
D371*
X003533Y005644D03*
X003533Y005644D03*
D372*
X002877Y005645D03*
X002877Y005644D03*
D373*
X003533Y005644D03*
D374*
X002877Y005644D03*
X002877Y005645D03*
D375*
X002877Y005646D03*
X002877Y005646D03*
X002877Y005648D03*
X003538Y005679D03*
X003538Y005680D03*
D376*
X003533Y005648D03*
X003533Y005647D03*
D377*
X003538Y005679D03*
X003538Y005680D03*
X002877Y005647D03*
D378*
X003533Y005648D03*
D379*
X002876Y005648D03*
X002876Y005649D03*
D380*
X002876Y005649D03*
X002876Y005649D03*
D381*
X002876Y005650D03*
X002876Y005651D03*
X002876Y005651D03*
X003539Y005683D03*
X003539Y005684D03*
X003539Y005684D03*
D382*
X003539Y005683D03*
X002876Y005650D03*
D383*
X003534Y005652D03*
X003534Y005653D03*
D384*
X003539Y005684D03*
X003539Y005685D03*
X002876Y005653D03*
X002876Y005652D03*
D385*
X003534Y005653D03*
D386*
X003539Y005685D03*
X002876Y005654D03*
X002876Y005653D03*
D387*
X002876Y005654D03*
X002876Y005655D03*
X002876Y005656D03*
D388*
X002876Y005655D03*
X002876Y005654D03*
D389*
X003535Y005655D03*
D390*
X003535Y005656D03*
X003535Y005656D03*
D391*
X003539Y005688D03*
X003539Y005689D03*
X003539Y005689D03*
X002875Y005658D03*
X002875Y005656D03*
D392*
X002875Y005657D03*
X002875Y005658D03*
X003539Y005688D03*
D393*
X002875Y005660D03*
X002875Y005659D03*
X002875Y005659D03*
D394*
X002875Y005659D03*
D395*
X003535Y005660D03*
D396*
X003540Y005692D03*
X002875Y005662D03*
X002875Y005660D03*
D397*
X003535Y005661D03*
X003535Y005661D03*
D398*
X003540Y005691D03*
X003540Y005691D03*
X003540Y005693D03*
X002875Y005661D03*
X002875Y005661D03*
D399*
X002875Y005663D03*
X002875Y005664D03*
X002875Y005664D03*
X003540Y005694D03*
X003540Y005694D03*
D400*
X003540Y005693D03*
X002875Y005663D03*
D401*
X003536Y005664D03*
X003536Y005665D03*
D402*
X003536Y005664D03*
D403*
X002874Y005664D03*
X002874Y005665D03*
D404*
X002874Y005665D03*
X002874Y005666D03*
D405*
X002874Y005666D03*
X002874Y005668D03*
X002874Y005669D03*
X003541Y005696D03*
X003541Y005696D03*
X003541Y005698D03*
D406*
X003541Y005697D03*
X002874Y005668D03*
X002874Y005667D03*
D407*
X003536Y005669D03*
X003536Y005670D03*
D408*
X002874Y005670D03*
X002874Y005669D03*
D409*
X003536Y005669D03*
D410*
X002874Y005669D03*
X002874Y005670D03*
D411*
X002874Y005671D03*
X002874Y005671D03*
X002874Y005673D03*
X003541Y005700D03*
X003541Y005701D03*
D412*
X003541Y005700D03*
X003541Y005699D03*
X002874Y005672D03*
D413*
X003537Y005673D03*
X003537Y005674D03*
D414*
X003537Y005673D03*
D415*
X003541Y005702D03*
X002873Y005674D03*
X002873Y005673D03*
D416*
X002873Y005674D03*
X002873Y005674D03*
X003541Y005701D03*
X003541Y005703D03*
D417*
X002873Y005676D03*
X002873Y005676D03*
X002873Y005675D03*
D418*
X002873Y005675D03*
D419*
X002873Y005677D03*
X002873Y005678D03*
X003542Y005704D03*
X003542Y005705D03*
D420*
X003538Y005679D03*
X003538Y005678D03*
D421*
X003542Y005705D03*
X003542Y005706D03*
X002873Y005679D03*
X002873Y005678D03*
D422*
X003538Y005678D03*
D423*
X002873Y005679D03*
X002873Y005680D03*
X002873Y005681D03*
D424*
X002873Y005680D03*
X002873Y005679D03*
D425*
X003538Y005681D03*
X003538Y005681D03*
D426*
X003542Y005709D03*
X003542Y005709D03*
X002872Y005683D03*
X002872Y005681D03*
D427*
X003538Y005682D03*
D428*
X003542Y005708D03*
X003542Y005709D03*
X002872Y005683D03*
X002872Y005682D03*
D429*
X002872Y005684D03*
X002872Y005684D03*
X002872Y005685D03*
X003543Y005710D03*
X003543Y005711D03*
D430*
X003543Y005710D03*
X002872Y005684D03*
D431*
X002872Y005685D03*
X002872Y005687D03*
D432*
X003539Y005686D03*
X003539Y005686D03*
D433*
X002872Y005686D03*
X002872Y005686D03*
D434*
X003539Y005687D03*
D435*
X003543Y005714D03*
X003543Y005714D03*
X002872Y005689D03*
X002872Y005689D03*
X002872Y005688D03*
D436*
X002872Y005688D03*
X003543Y005713D03*
X003543Y005714D03*
D437*
X003540Y005690D03*
X003540Y005689D03*
D438*
X002871Y005689D03*
X002871Y005690D03*
D439*
X003540Y005690D03*
D440*
X002871Y005691D03*
X002871Y005690D03*
D441*
X002871Y005691D03*
X002871Y005693D03*
X002871Y005694D03*
X003544Y005716D03*
X003544Y005718D03*
D442*
X003544Y005718D03*
X003544Y005717D03*
X002871Y005693D03*
X002871Y005692D03*
D443*
X002871Y005694D03*
X002871Y005695D03*
X003544Y005719D03*
X003544Y005719D03*
D444*
X003540Y005695D03*
X003540Y005694D03*
D445*
X003544Y005719D03*
X002871Y005695D03*
X002871Y005694D03*
D446*
X003540Y005695D03*
D447*
X002871Y005696D03*
X002871Y005696D03*
X002871Y005698D03*
D448*
X002871Y005697D03*
D449*
X003541Y005698D03*
D450*
X003544Y005722D03*
X003544Y005723D03*
X002870Y005699D03*
X002870Y005698D03*
D451*
X003541Y005699D03*
X003541Y005699D03*
D452*
X003544Y005721D03*
X003544Y005723D03*
X002870Y005699D03*
X002870Y005699D03*
D453*
X002870Y005700D03*
X002870Y005701D03*
X002870Y005701D03*
D454*
X002870Y005700D03*
D455*
X002870Y005702D03*
X002870Y005703D03*
X003545Y005725D03*
D456*
X003545Y005725D03*
X003545Y005726D03*
X003545Y005726D03*
X002870Y005704D03*
X002870Y005703D03*
D457*
X003541Y005703D03*
D458*
X003541Y005704D03*
X003541Y005704D03*
D459*
X003545Y005728D03*
X002870Y005706D03*
X002870Y005705D03*
X002870Y005704D03*
D460*
X002870Y005704D03*
X002870Y005705D03*
X003545Y005727D03*
X003545Y005728D03*
D461*
X003542Y005708D03*
X003542Y005706D03*
D462*
X002869Y005706D03*
X002869Y005708D03*
D463*
X003542Y005707D03*
D464*
X002869Y005708D03*
X002869Y005707D03*
D465*
X002869Y005709D03*
X002869Y005709D03*
X002869Y005710D03*
X003546Y005730D03*
X003546Y005731D03*
X003546Y005731D03*
D466*
X003546Y005730D03*
X002869Y005709D03*
D467*
X002869Y005710D03*
X002869Y005712D03*
D468*
X002869Y005711D03*
X002869Y005711D03*
D469*
X003543Y005711D03*
X003543Y005713D03*
D470*
X003543Y005712D03*
D471*
X003546Y005734D03*
X003546Y005734D03*
X003546Y005735D03*
X002869Y005714D03*
X002869Y005714D03*
X002869Y005713D03*
D472*
X002869Y005713D03*
X003546Y005734D03*
D473*
X003546Y005735D03*
X002868Y005715D03*
X002868Y005714D03*
D474*
X003543Y005715D03*
X003543Y005716D03*
D475*
X003546Y005736D03*
X003546Y005736D03*
X002868Y005716D03*
X002868Y005715D03*
D476*
X003543Y005715D03*
D477*
X002868Y005716D03*
X002868Y005718D03*
X002868Y005719D03*
D478*
X002868Y005718D03*
X002868Y005717D03*
D479*
X002868Y005719D03*
X002868Y005720D03*
X003547Y005739D03*
X003547Y005739D03*
X003547Y005740D03*
D480*
X003547Y005739D03*
X002868Y005720D03*
X002868Y005719D03*
D481*
X003544Y005720D03*
X003544Y005721D03*
D482*
X003544Y005720D03*
D483*
X002868Y005721D03*
X002868Y005721D03*
X002868Y005723D03*
D484*
X002868Y005722D03*
D485*
X002867Y005723D03*
X002867Y005724D03*
X003547Y005742D03*
X003547Y005743D03*
D486*
X003545Y005724D03*
X003545Y005724D03*
D487*
X003547Y005743D03*
X003547Y005744D03*
X002867Y005724D03*
X002867Y005724D03*
D488*
X003545Y005724D03*
D489*
X003548Y005744D03*
X003548Y005745D03*
X002867Y005726D03*
X002867Y005726D03*
X002867Y005725D03*
D490*
X002867Y005725D03*
X003548Y005744D03*
D491*
X002867Y005728D03*
X002867Y005727D03*
D492*
X002867Y005728D03*
X002867Y005729D03*
D493*
X003545Y005729D03*
X003545Y005729D03*
D494*
X003548Y005748D03*
X003548Y005749D03*
X002867Y005731D03*
X002867Y005730D03*
X002867Y005729D03*
D495*
X003545Y005729D03*
D496*
X003548Y005747D03*
X003548Y005748D03*
X002867Y005730D03*
X002867Y005729D03*
D497*
X002866Y005731D03*
X002866Y005733D03*
D498*
X003546Y005733D03*
X003546Y005732D03*
D499*
X002866Y005733D03*
X002866Y005732D03*
D500*
X003546Y005733D03*
D501*
X003549Y005751D03*
X003549Y005751D03*
X002866Y005735D03*
X002866Y005734D03*
X002866Y005734D03*
D502*
X002866Y005734D03*
X003549Y005750D03*
X003549Y005752D03*
D503*
X003549Y005753D03*
X002866Y005737D03*
X002866Y005735D03*
D504*
X002866Y005736D03*
X002866Y005736D03*
X003549Y005753D03*
X003549Y005754D03*
D505*
X003546Y005738D03*
X003546Y005737D03*
D506*
X003546Y005738D03*
D507*
X002866Y005738D03*
X002866Y005739D03*
X002866Y005739D03*
D508*
X002866Y005738D03*
D509*
X002865Y005739D03*
X002865Y005740D03*
X003549Y005755D03*
X003549Y005757D03*
D510*
X003549Y005756D03*
X003549Y005756D03*
X002865Y005741D03*
X002865Y005740D03*
D511*
X003547Y005740D03*
D512*
X003547Y005741D03*
X003547Y005741D03*
D513*
X002865Y005741D03*
X002865Y005743D03*
X002865Y005744D03*
D514*
X002865Y005743D03*
X002865Y005742D03*
D515*
X002865Y005744D03*
X002865Y005745D03*
X003550Y005759D03*
X003550Y005760D03*
D516*
X003550Y005760D03*
X003550Y005759D03*
X002865Y005745D03*
X002865Y005744D03*
D517*
X003548Y005745D03*
D518*
X003548Y005746D03*
X003548Y005746D03*
D519*
X003550Y005761D03*
X003550Y005761D03*
X002865Y005748D03*
X002865Y005746D03*
X002865Y005746D03*
D520*
X002865Y005747D03*
X003550Y005762D03*
D521*
X002864Y005749D03*
X002864Y005748D03*
D522*
X002864Y005749D03*
X002864Y005749D03*
D523*
X003548Y005750D03*
X003548Y005749D03*
D524*
X003548Y005749D03*
D525*
X003551Y005764D03*
X003551Y005765D03*
X002864Y005751D03*
X002864Y005751D03*
X002864Y005750D03*
D526*
X002864Y005750D03*
X003551Y005764D03*
X003551Y005765D03*
D527*
X002864Y005753D03*
X002864Y005752D03*
D528*
X002864Y005753D03*
X002864Y005754D03*
D529*
X003549Y005755D03*
X003549Y005754D03*
D530*
X003551Y005768D03*
X003551Y005769D03*
X003551Y005769D03*
X002864Y005756D03*
X002864Y005755D03*
X002864Y005754D03*
D531*
X003549Y005754D03*
D532*
X003551Y005768D03*
X002864Y005755D03*
X002864Y005754D03*
D533*
X002863Y005756D03*
X002863Y005758D03*
X003551Y005770D03*
D534*
X003551Y005770D03*
X003551Y005769D03*
X002863Y005758D03*
X002863Y005757D03*
D535*
X003550Y005758D03*
X003550Y005759D03*
D536*
X003550Y005758D03*
D537*
X002863Y005759D03*
X002863Y005759D03*
X002863Y005760D03*
D538*
X002863Y005759D03*
D539*
X002863Y005760D03*
X002863Y005762D03*
X003552Y005773D03*
D540*
X003552Y005773D03*
X003552Y005774D03*
X003552Y005774D03*
X002863Y005761D03*
X002863Y005761D03*
D541*
X003550Y005763D03*
X003550Y005764D03*
D542*
X002863Y005764D03*
X002863Y005764D03*
X002863Y005763D03*
D543*
X003550Y005763D03*
D544*
X002863Y005763D03*
D545*
X002862Y005764D03*
X002862Y005765D03*
X003552Y005777D03*
D546*
X003552Y005778D03*
X003552Y005776D03*
X003552Y005776D03*
X002862Y005766D03*
X002862Y005765D03*
D547*
X003551Y005766D03*
X003551Y005766D03*
D548*
X003553Y005779D03*
X003553Y005779D03*
X002862Y005769D03*
X002862Y005768D03*
X002862Y005766D03*
D549*
X003551Y005767D03*
D550*
X003553Y005778D03*
X002862Y005768D03*
X002862Y005767D03*
D551*
X002862Y005769D03*
X002862Y005770D03*
D552*
X002862Y005770D03*
X002862Y005769D03*
D553*
X003551Y005771D03*
X003551Y005771D03*
D554*
X003553Y005781D03*
X003553Y005781D03*
X003553Y005783D03*
X002862Y005773D03*
X002862Y005771D03*
X002862Y005771D03*
D555*
X003551Y005772D03*
D556*
X003553Y005782D03*
X002862Y005772D03*
D557*
X002861Y005773D03*
X002861Y005774D03*
D558*
X002861Y005774D03*
X002861Y005774D03*
D559*
X003552Y005774D03*
X003552Y005775D03*
D560*
X003552Y005775D03*
D561*
X003554Y005785D03*
X003554Y005786D03*
X002861Y005776D03*
X002861Y005776D03*
X002861Y005775D03*
D562*
X002861Y005775D03*
X003554Y005784D03*
X003554Y005785D03*
D563*
X003554Y005787D03*
X002861Y005778D03*
X002861Y005777D03*
D564*
X002861Y005778D03*
X002861Y005779D03*
X003554Y005786D03*
X003554Y005788D03*
D565*
X002861Y005781D03*
X002861Y005780D03*
X002861Y005779D03*
D566*
X003553Y005779D03*
X003553Y005780D03*
D567*
X002861Y005780D03*
X002861Y005779D03*
D568*
X003553Y005780D03*
D569*
X003554Y005790D03*
X003554Y005791D03*
X002860Y005783D03*
X002860Y005781D03*
D570*
X002860Y005782D03*
X002860Y005783D03*
X003554Y005789D03*
X003554Y005790D03*
D571*
X003553Y005783D03*
D572*
X003553Y005784D03*
X003553Y005784D03*
D573*
X002860Y005785D03*
X002860Y005784D03*
X002860Y005784D03*
D574*
X002860Y005784D03*
D575*
X002860Y005785D03*
X002860Y005787D03*
X003555Y005793D03*
X003555Y005794D03*
D576*
X003555Y005794D03*
X003555Y005794D03*
X002860Y005786D03*
X002860Y005786D03*
D577*
X002860Y005788D03*
X002860Y005789D03*
X002860Y005789D03*
X003555Y005795D03*
X003555Y005796D03*
D578*
X003554Y005788D03*
D579*
X003555Y005795D03*
X002860Y005788D03*
D580*
X003554Y005789D03*
X003554Y005789D03*
D581*
X002859Y005789D03*
X002859Y005790D03*
D582*
X002859Y005790D03*
X002859Y005791D03*
D583*
X003555Y005791D03*
X003555Y005793D03*
D584*
X003556Y005799D03*
X003556Y005799D03*
X002859Y005794D03*
X002859Y005793D03*
X002859Y005791D03*
D585*
X003555Y005792D03*
D586*
X003556Y005798D03*
X003556Y005799D03*
X002859Y005793D03*
X002859Y005792D03*
D587*
X002859Y005794D03*
X002859Y005795D03*
D588*
X002859Y005795D03*
X002859Y005794D03*
D589*
X002859Y005796D03*
X002859Y005796D03*
X002859Y005798D03*
X003556Y005801D03*
X003556Y005803D03*
D590*
X003555Y005798D03*
X003555Y005796D03*
D591*
X003555Y005797D03*
D592*
X003556Y005802D03*
X003556Y005803D03*
X002859Y005797D03*
D593*
X002858Y005798D03*
X002858Y005799D03*
X003556Y005804D03*
D594*
X003556Y005804D03*
X003556Y005804D03*
X002858Y005799D03*
X002858Y005799D03*
D595*
X003556Y005800D03*
X003556Y005801D03*
D596*
X002858Y005801D03*
X002858Y005801D03*
X002858Y005800D03*
D597*
X003556Y005800D03*
D598*
X002858Y005800D03*
D599*
X002858Y005802D03*
X002858Y005803D03*
X003557Y005807D03*
X003557Y005808D03*
D600*
X003557Y005808D03*
X003557Y005806D03*
X002858Y005804D03*
X002858Y005803D03*
D601*
X002858Y005804D03*
X002858Y005805D03*
X002858Y005806D03*
D602*
X002858Y005805D03*
X002858Y005804D03*
D603*
X003556Y005805D03*
X003556Y005806D03*
D604*
X003556Y005805D03*
D605*
X003557Y005810D03*
X003557Y005811D03*
X003557Y005811D03*
X002857Y005808D03*
X002857Y005806D03*
D606*
X002857Y005807D03*
X002857Y005808D03*
X003557Y005810D03*
D607*
X003557Y005809D03*
X003557Y005809D03*
D608*
X003558Y005813D03*
X002857Y005810D03*
X002857Y005809D03*
X002857Y005809D03*
D609*
X003557Y005809D03*
D610*
X003558Y005812D03*
X003558Y005813D03*
X002857Y005809D03*
D611*
X002857Y005810D03*
X002857Y005812D03*
D612*
X002857Y005811D03*
X002857Y005811D03*
D613*
X002857Y005813D03*
X002857Y005814D03*
X002857Y005814D03*
X003558Y005815D03*
X003558Y005816D03*
X003558Y005816D03*
D614*
X003558Y005815D03*
X002857Y005813D03*
D615*
X003558Y005814D03*
X003558Y005814D03*
D616*
X003558Y005814D03*
D617*
X002856Y005814D03*
X002856Y005815D03*
D618*
X002856Y005815D03*
X002856Y005816D03*
D619*
X002856Y005816D03*
X002856Y005818D03*
X002856Y005819D03*
X003559Y005820D03*
X003559Y005819D03*
X003559Y005819D03*
D620*
X003558Y005818D03*
X003558Y005817D03*
D621*
X003559Y005819D03*
X002856Y005818D03*
X002856Y005817D03*
D622*
X003558Y005818D03*
D623*
X003559Y005821D03*
X003559Y005821D03*
X002856Y005820D03*
X002856Y005819D03*
D624*
X002856Y005819D03*
X002856Y005820D03*
X003559Y005820D03*
D625*
X002856Y005821D03*
X002856Y005821D03*
X002856Y005823D03*
D626*
X003559Y005823D03*
X003559Y005822D03*
D627*
X002856Y005822D03*
D628*
X003559Y005823D03*
D629*
X003559Y005824D03*
X002855Y005824D03*
X002855Y005823D03*
D630*
X002855Y005824D03*
X002855Y005824D03*
X003559Y005825D03*
X003559Y005824D03*
X003559Y005824D03*
D631*
X002855Y005825D03*
X002855Y005826D03*
X002855Y005826D03*
D632*
X003560Y005825D03*
D633*
X002855Y005825D03*
D634*
X003560Y005826D03*
X003560Y005826D03*
D635*
X003560Y005827D03*
X003560Y005828D03*
X002855Y005828D03*
X002855Y005827D03*
D636*
X002855Y005828D03*
X002855Y005829D03*
X003560Y005829D03*
X003560Y005828D03*
D637*
X003560Y005829D03*
X003560Y005830D03*
X002855Y005831D03*
X002855Y005830D03*
X002855Y005829D03*
D638*
X002855Y005829D03*
X002855Y005830D03*
X003560Y005829D03*
D639*
X003560Y005830D03*
D640*
X003560Y005831D03*
X003560Y005831D03*
D641*
X002854Y005831D03*
X002854Y005833D03*
D642*
X002854Y005834D03*
X003561Y005833D03*
X003561Y005832D03*
D643*
X002854Y005833D03*
X002854Y005832D03*
D644*
X002854Y005834D03*
X002854Y005834D03*
X002854Y005835D03*
X003561Y005834D03*
X003561Y005833D03*
D645*
X003561Y005834D03*
X003561Y005835D03*
D646*
X003561Y005834D03*
D647*
X003561Y005835D03*
X003561Y005837D03*
X002854Y005838D03*
D648*
X002854Y005837D03*
X002854Y005835D03*
D649*
X002854Y005838D03*
X002854Y005839D03*
X002854Y005839D03*
X003561Y005836D03*
X003561Y005836D03*
D650*
X002854Y005836D03*
X002854Y005836D03*
D651*
X002853Y005840D03*
X002853Y005841D03*
X003561Y005839D03*
X003561Y005838D03*
D652*
X003561Y005838D03*
X002853Y005839D03*
X002853Y005840D03*
D653*
X003561Y005840D03*
X003561Y005839D03*
D654*
X003561Y005839D03*
D655*
X003562Y005840D03*
X003562Y005842D03*
X002853Y005844D03*
X002853Y005845D03*
D656*
X002853Y005845D03*
X002853Y005844D03*
X003562Y005841D03*
X003562Y005841D03*
D657*
X002853Y005841D03*
X002853Y005843D03*
X002853Y005844D03*
D658*
X002853Y005843D03*
X002853Y005842D03*
D659*
X003562Y005843D03*
X003562Y005844D03*
D660*
X003562Y005843D03*
D661*
X003562Y005844D03*
X003562Y005845D03*
X002852Y005849D03*
X002852Y005849D03*
D662*
X002852Y005849D03*
X002852Y005848D03*
X003562Y005845D03*
X003562Y005844D03*
D663*
X003563Y005846D03*
X003563Y005846D03*
X002852Y005850D03*
X002852Y005851D03*
X002852Y005851D03*
D664*
X002853Y005848D03*
X002853Y005846D03*
X002853Y005846D03*
D665*
X002852Y005850D03*
X003563Y005847D03*
D666*
X002853Y005847D03*
D667*
X003563Y005848D03*
X003563Y005849D03*
D668*
X003563Y005848D03*
D669*
X003563Y005849D03*
X003563Y005850D03*
X002852Y005854D03*
X002852Y005855D03*
X002852Y005856D03*
D670*
X002852Y005855D03*
X002852Y005854D03*
X003563Y005850D03*
X003563Y005849D03*
D671*
X003563Y005851D03*
X003563Y005851D03*
D672*
X003563Y005852D03*
D673*
X002852Y005853D03*
X002852Y005852D03*
D674*
X002851Y005859D03*
X002851Y005859D03*
X002851Y005860D03*
X003564Y005854D03*
X003564Y005854D03*
X003564Y005853D03*
D675*
X002852Y005854D03*
X002852Y005853D03*
D676*
X002851Y005859D03*
X003564Y005853D03*
D677*
X003564Y005854D03*
X003564Y005855D03*
X002851Y005860D03*
X002851Y005862D03*
D678*
X002851Y005861D03*
X002851Y005861D03*
X003564Y005855D03*
D679*
X003564Y005856D03*
X003564Y005856D03*
D680*
X002851Y005856D03*
X002851Y005858D03*
D681*
X003564Y005857D03*
D682*
X002851Y005858D03*
X002851Y005857D03*
D683*
X002850Y005865D03*
X002850Y005866D03*
X003564Y005859D03*
X003564Y005859D03*
X003564Y005858D03*
D684*
X003564Y005858D03*
X002850Y005864D03*
X002850Y005865D03*
D685*
X003565Y005860D03*
X003565Y005859D03*
D686*
X003565Y005860D03*
D687*
X003565Y005861D03*
X003565Y005861D03*
X003565Y005863D03*
X002850Y005869D03*
X002850Y005870D03*
D688*
X002850Y005870D03*
X002850Y005869D03*
X003565Y005862D03*
D689*
X002851Y005863D03*
X002851Y005864D03*
X002851Y005864D03*
D690*
X002850Y005872D03*
X003565Y005863D03*
D691*
X002851Y005863D03*
D692*
X002850Y005871D03*
X002850Y005871D03*
X002850Y005873D03*
X003565Y005864D03*
X003565Y005864D03*
D693*
X003565Y005864D03*
X003565Y005865D03*
D694*
X003565Y005865D03*
D695*
X003566Y005866D03*
X003566Y005866D03*
X003566Y005868D03*
X002849Y005875D03*
X002849Y005876D03*
X002849Y005876D03*
D696*
X002850Y005869D03*
X002850Y005868D03*
X002850Y005866D03*
D697*
X002849Y005875D03*
X003566Y005867D03*
D698*
X002850Y005868D03*
X002850Y005867D03*
D699*
X003566Y005868D03*
D700*
X003566Y005869D03*
X003566Y005869D03*
D701*
X003566Y005869D03*
X003566Y005870D03*
X002849Y005879D03*
D702*
X002849Y005879D03*
X003566Y005871D03*
X003566Y005870D03*
D703*
X003566Y005871D03*
X003566Y005873D03*
D704*
X003566Y005872D03*
D705*
X003566Y005873D03*
X003566Y005874D03*
D706*
X002849Y005874D03*
X002849Y005873D03*
D707*
X003566Y005874D03*
X003566Y005874D03*
D708*
X002849Y005874D03*
X002849Y005874D03*
D709*
X003567Y005875D03*
X003567Y005876D03*
D710*
X003567Y005875D03*
D711*
X003567Y005876D03*
X003567Y005878D03*
D712*
X003567Y005877D03*
D713*
X002849Y005878D03*
X002849Y005877D03*
D714*
X002849Y005878D03*
X002849Y005879D03*
D715*
X003567Y005879D03*
X003567Y005878D03*
D716*
X003567Y005879D03*
X003567Y005879D03*
D717*
X003511Y005880D03*
X003511Y005881D03*
X003511Y005881D03*
X003511Y005883D03*
X003511Y005884D03*
X003511Y005884D03*
X003511Y005885D03*
X003511Y005886D03*
X003511Y005886D03*
X003511Y005888D03*
X003511Y005889D03*
X003511Y005889D03*
X003511Y005890D03*
X003511Y005891D03*
X003511Y005891D03*
X003511Y005893D03*
X003511Y005894D03*
X003511Y005894D03*
X003511Y005895D03*
X003511Y005896D03*
X003511Y005896D03*
X003511Y005898D03*
X003511Y005899D03*
X003511Y005899D03*
X003511Y005900D03*
X003511Y005901D03*
X003511Y005901D03*
X003511Y005903D03*
X003511Y005904D03*
X003511Y005904D03*
X003511Y005905D03*
D718*
X002903Y005905D03*
X002903Y005904D03*
X002903Y005904D03*
X002903Y005903D03*
X002903Y005901D03*
X002903Y005901D03*
X002903Y005900D03*
X002903Y005899D03*
X002903Y005899D03*
X002903Y005898D03*
X002903Y005896D03*
X002903Y005896D03*
X002903Y005895D03*
X002903Y005894D03*
X002903Y005894D03*
X002903Y005893D03*
X002903Y005891D03*
X002903Y005891D03*
X002903Y005890D03*
X002903Y005889D03*
X002903Y005889D03*
X002903Y005888D03*
X002903Y005886D03*
X002903Y005886D03*
X002903Y005885D03*
X002903Y005884D03*
X002903Y005884D03*
X002903Y005883D03*
X002903Y005881D03*
X002903Y005881D03*
X002903Y005880D03*
D719*
X003511Y005880D03*
X003511Y005882D03*
X003511Y005883D03*
X003511Y005884D03*
X003511Y005885D03*
X003511Y005887D03*
X003511Y005888D03*
X003511Y005889D03*
X003511Y005890D03*
X003511Y005892D03*
X003511Y005893D03*
X003511Y005894D03*
X003511Y005895D03*
X003511Y005897D03*
X003511Y005898D03*
X003511Y005899D03*
X003511Y005900D03*
X003511Y005902D03*
X003511Y005903D03*
X003511Y005904D03*
X003511Y005905D03*
D720*
X002903Y005905D03*
X002903Y005904D03*
X002903Y005903D03*
X002903Y005902D03*
X002903Y005900D03*
X002903Y005899D03*
X002903Y005898D03*
X002903Y005897D03*
X002903Y005895D03*
X002903Y005894D03*
X002903Y005893D03*
X002903Y005892D03*
X002903Y005890D03*
X002903Y005889D03*
X002903Y005888D03*
X002903Y005887D03*
X002903Y005885D03*
X002903Y005884D03*
X002903Y005883D03*
X002903Y005882D03*
X002903Y005880D03*
D721*
X003207Y005906D03*
X003207Y005906D03*
X003207Y005908D03*
X003207Y005909D03*
X003207Y005909D03*
X003207Y005910D03*
X003207Y005911D03*
X003207Y005911D03*
X003207Y005913D03*
X003207Y005914D03*
X003207Y005914D03*
X003207Y005915D03*
X003207Y005916D03*
X003207Y005916D03*
X003207Y005918D03*
X003207Y005919D03*
X003207Y005919D03*
X003207Y005920D03*
X003207Y005921D03*
X003207Y005921D03*
X003207Y005923D03*
X003207Y005924D03*
X003207Y005924D03*
X003207Y005925D03*
X003207Y005926D03*
X003207Y006055D03*
X003207Y006056D03*
X003207Y006056D03*
X003207Y006058D03*
X003207Y006059D03*
X003207Y006059D03*
X003207Y006060D03*
X003207Y006061D03*
X003207Y006061D03*
X003207Y006063D03*
X003207Y006064D03*
X003207Y006064D03*
X003207Y006065D03*
X003207Y006066D03*
X003207Y006066D03*
X003207Y006068D03*
X003207Y006069D03*
X003207Y006069D03*
X003207Y006070D03*
X003207Y006071D03*
X003207Y006071D03*
X003207Y006073D03*
X003207Y006074D03*
X003207Y006074D03*
X003207Y006075D03*
X003207Y006076D03*
X003207Y006076D03*
X003207Y006078D03*
X003207Y006079D03*
X003207Y006079D03*
X003207Y006080D03*
X003207Y006081D03*
X003207Y006081D03*
X003207Y006083D03*
X003207Y006084D03*
X003207Y006084D03*
X003207Y006085D03*
X003207Y006086D03*
X003207Y006086D03*
X003207Y006088D03*
X003207Y006089D03*
X003207Y006089D03*
X003207Y006090D03*
X003207Y006091D03*
D722*
X003207Y006090D03*
X003207Y006089D03*
X003207Y006088D03*
X003207Y006087D03*
X003207Y006085D03*
X003207Y006084D03*
X003207Y006083D03*
X003207Y006082D03*
X003207Y006080D03*
X003207Y006079D03*
X003207Y006078D03*
X003207Y006077D03*
X003207Y006075D03*
X003207Y006074D03*
X003207Y006073D03*
X003207Y006072D03*
X003207Y006070D03*
X003207Y006069D03*
X003207Y006068D03*
X003207Y006067D03*
X003207Y006065D03*
X003207Y006064D03*
X003207Y006063D03*
X003207Y006062D03*
X003207Y006060D03*
X003207Y006059D03*
X003207Y006058D03*
X003207Y006057D03*
X003207Y006055D03*
X003207Y005925D03*
X003207Y005924D03*
X003207Y005923D03*
X003207Y005922D03*
X003207Y005920D03*
X003207Y005919D03*
X003207Y005918D03*
X003207Y005917D03*
X003207Y005915D03*
X003207Y005914D03*
X003207Y005913D03*
X003207Y005912D03*
X003207Y005910D03*
X003207Y005909D03*
X003207Y005908D03*
X003207Y005907D03*
D723*
X003481Y005926D03*
X003481Y005928D03*
X003481Y005929D03*
X003481Y005929D03*
X003481Y005930D03*
X003481Y005931D03*
X003481Y005931D03*
X003481Y005933D03*
X003481Y005934D03*
X003481Y005934D03*
X003481Y005935D03*
X003481Y005936D03*
X003481Y005936D03*
X003481Y005938D03*
X003481Y005939D03*
X003481Y005939D03*
X003481Y005940D03*
X003481Y005941D03*
X003481Y005941D03*
X003481Y005943D03*
X003481Y005944D03*
X003481Y005944D03*
X003481Y005945D03*
X003481Y005946D03*
X003481Y005946D03*
X003481Y005948D03*
X003481Y005949D03*
X003481Y005949D03*
X003481Y005950D03*
X003481Y005951D03*
X003481Y005951D03*
X003481Y005953D03*
X003481Y005954D03*
X003481Y005954D03*
X003481Y005955D03*
X003481Y005956D03*
X003481Y005956D03*
X003481Y005958D03*
X003481Y005959D03*
X003481Y005959D03*
X003481Y005960D03*
X003481Y005961D03*
X003481Y005961D03*
X003481Y005963D03*
X003481Y005964D03*
X003481Y005964D03*
X003481Y005965D03*
X003481Y005966D03*
X003481Y005966D03*
X003481Y005968D03*
X003481Y005969D03*
X003481Y005969D03*
X003481Y005970D03*
X003481Y005971D03*
X003481Y005971D03*
X003481Y005973D03*
X003481Y005974D03*
X003481Y005974D03*
X003481Y005975D03*
X003481Y005976D03*
X003481Y005976D03*
X003481Y005978D03*
X003481Y005979D03*
X003481Y005979D03*
X003481Y005980D03*
X003481Y005981D03*
X003481Y005981D03*
X003481Y005983D03*
X003481Y005984D03*
X003481Y005984D03*
X003481Y005985D03*
X003481Y005986D03*
X003481Y005986D03*
X003481Y005988D03*
X003481Y005989D03*
X003481Y005989D03*
X003481Y005990D03*
X003481Y005991D03*
X003481Y005991D03*
X003481Y005993D03*
X003481Y005994D03*
X003481Y005994D03*
X003481Y005995D03*
X003481Y005996D03*
X003481Y005996D03*
X003481Y005998D03*
X003481Y005999D03*
X003481Y005999D03*
X003481Y006000D03*
X003481Y006001D03*
X003481Y006001D03*
X003481Y006003D03*
X003481Y006004D03*
X003481Y006004D03*
X003481Y006005D03*
X003481Y006006D03*
X003481Y006006D03*
X003481Y006008D03*
X003481Y006009D03*
X003481Y006009D03*
X003481Y006010D03*
X003481Y006011D03*
X003481Y006011D03*
X003481Y006013D03*
X003481Y006014D03*
X003481Y006014D03*
X003481Y006015D03*
X003481Y006016D03*
X003481Y006016D03*
X003481Y006018D03*
X003481Y006019D03*
X003481Y006019D03*
X003481Y006020D03*
X003481Y006021D03*
X003481Y006021D03*
X003481Y006023D03*
X003481Y006024D03*
X003481Y006024D03*
X003481Y006025D03*
X003481Y006026D03*
X003481Y006026D03*
X003481Y006028D03*
X003481Y006029D03*
X003481Y006029D03*
X003481Y006030D03*
X003481Y006031D03*
X003481Y006031D03*
X003481Y006033D03*
X003481Y006034D03*
X003481Y006034D03*
X003481Y006035D03*
X003481Y006036D03*
X003481Y006036D03*
X003481Y006038D03*
X003481Y006039D03*
X003481Y006039D03*
X003481Y006040D03*
X003481Y006041D03*
X003481Y006041D03*
X003481Y006043D03*
X003481Y006044D03*
X003481Y006044D03*
X003481Y006045D03*
X003481Y006046D03*
X003481Y006046D03*
X003481Y006048D03*
X003481Y006049D03*
X003481Y006049D03*
X003481Y006050D03*
X003481Y006051D03*
X003481Y006051D03*
X003481Y006053D03*
X003481Y006054D03*
X003481Y006054D03*
D724*
X002926Y006054D03*
X002926Y006054D03*
X002926Y006053D03*
X002926Y006051D03*
X002926Y006051D03*
X002926Y006050D03*
X002926Y006049D03*
X002926Y006049D03*
X002926Y006048D03*
X002926Y006046D03*
X002926Y006046D03*
X002926Y006045D03*
X002926Y006044D03*
X002926Y006044D03*
X002926Y006043D03*
X002926Y006041D03*
X002926Y006041D03*
X002926Y006040D03*
X002926Y006039D03*
X002926Y006039D03*
X002926Y006038D03*
X002926Y006036D03*
X002926Y006036D03*
X002926Y006035D03*
X002926Y006034D03*
X002926Y006034D03*
X002926Y006033D03*
X002926Y006031D03*
X002926Y006031D03*
X002926Y006030D03*
X002926Y006029D03*
X002926Y006029D03*
X002926Y006028D03*
X002926Y006026D03*
X002926Y006026D03*
X002926Y006025D03*
X002926Y006024D03*
X002926Y006024D03*
X002926Y006023D03*
X002926Y006021D03*
X002926Y006021D03*
X002926Y006020D03*
X002926Y006019D03*
X002926Y006019D03*
X002926Y006018D03*
X002926Y006016D03*
X002926Y006016D03*
X002926Y006015D03*
X002926Y006014D03*
X002926Y006014D03*
X002926Y006013D03*
X002926Y006011D03*
X002926Y006011D03*
X002926Y006010D03*
X002926Y006009D03*
X002926Y006009D03*
X002926Y006008D03*
X002926Y006006D03*
X002926Y006006D03*
X002926Y006005D03*
X002926Y006004D03*
X002926Y006004D03*
X002926Y006003D03*
X002926Y006001D03*
X002926Y006001D03*
X002926Y006000D03*
X002926Y005999D03*
X002926Y005999D03*
X002926Y005998D03*
X002926Y005996D03*
X002926Y005996D03*
X002926Y005995D03*
X002926Y005994D03*
X002926Y005994D03*
X002926Y005993D03*
X002926Y005991D03*
X002926Y005991D03*
X002926Y005990D03*
X002926Y005989D03*
X002926Y005989D03*
X002926Y005988D03*
X002926Y005986D03*
X002926Y005986D03*
X002926Y005985D03*
X002926Y005984D03*
X002926Y005984D03*
X002926Y005983D03*
X002926Y005981D03*
X002926Y005981D03*
X002926Y005980D03*
X002926Y005979D03*
X002926Y005979D03*
X002926Y005978D03*
X002926Y005976D03*
X002926Y005976D03*
X002926Y005975D03*
X002926Y005974D03*
X002926Y005974D03*
X002926Y005973D03*
X002926Y005971D03*
X002926Y005971D03*
X002926Y005970D03*
X002926Y005969D03*
X002926Y005969D03*
X002926Y005968D03*
X002926Y005966D03*
X002926Y005966D03*
X002926Y005965D03*
X002926Y005964D03*
X002926Y005964D03*
X002926Y005963D03*
X002926Y005961D03*
X002926Y005961D03*
X002926Y005960D03*
X002926Y005959D03*
X002926Y005959D03*
X002926Y005958D03*
X002926Y005956D03*
X002926Y005956D03*
X002926Y005955D03*
X002926Y005954D03*
X002926Y005954D03*
X002926Y005953D03*
X002926Y005951D03*
X002926Y005951D03*
X002926Y005950D03*
X002926Y005949D03*
X002926Y005949D03*
X002926Y005948D03*
X002926Y005946D03*
X002926Y005946D03*
X002926Y005945D03*
X002926Y005944D03*
X002926Y005944D03*
X002926Y005943D03*
X002926Y005941D03*
X002926Y005941D03*
X002926Y005940D03*
X002926Y005939D03*
X002926Y005939D03*
X002926Y005938D03*
X002926Y005936D03*
X002926Y005936D03*
X002926Y005935D03*
X002926Y005934D03*
X002926Y005934D03*
X002926Y005933D03*
X002926Y005931D03*
X002926Y005931D03*
X002926Y005930D03*
X002926Y005929D03*
X002926Y005929D03*
X002926Y005928D03*
X002926Y005926D03*
D725*
X003481Y005927D03*
X003481Y005928D03*
X003481Y005929D03*
X003481Y005930D03*
X003481Y005932D03*
X003481Y005933D03*
X003481Y005934D03*
X003481Y005935D03*
X003481Y005937D03*
X003481Y005938D03*
X003481Y005939D03*
X003481Y005940D03*
X003481Y005942D03*
X003481Y005943D03*
X003481Y005944D03*
X003481Y005945D03*
X003481Y005947D03*
X003481Y005948D03*
X003481Y005949D03*
X003481Y005950D03*
X003481Y005952D03*
X003481Y005953D03*
X003481Y005954D03*
X003481Y005955D03*
X003481Y005957D03*
X003481Y005958D03*
X003481Y005959D03*
X003481Y005960D03*
X003481Y005962D03*
X003481Y005963D03*
X003481Y005964D03*
X003481Y005965D03*
X003481Y005967D03*
X003481Y005968D03*
X003481Y005969D03*
X003481Y005970D03*
X003481Y005972D03*
X003481Y005973D03*
X003481Y005974D03*
X003481Y005975D03*
X003481Y005977D03*
X003481Y005978D03*
X003481Y005979D03*
X003481Y005980D03*
X003481Y005982D03*
X003481Y005983D03*
X003481Y005984D03*
X003481Y005985D03*
X003481Y005987D03*
X003481Y005988D03*
X003481Y005989D03*
X003481Y005990D03*
X003481Y005992D03*
X003481Y005993D03*
X003481Y005994D03*
X003481Y005995D03*
X003481Y005997D03*
X003481Y005998D03*
X003481Y005999D03*
X003481Y006000D03*
X003481Y006002D03*
X003481Y006003D03*
X003481Y006004D03*
X003481Y006005D03*
X003481Y006007D03*
X003481Y006008D03*
X003481Y006009D03*
X003481Y006010D03*
X003481Y006012D03*
X003481Y006013D03*
X003481Y006014D03*
X003481Y006015D03*
X003481Y006017D03*
X003481Y006018D03*
X003481Y006019D03*
X003481Y006020D03*
X003481Y006022D03*
X003481Y006023D03*
X003481Y006024D03*
X003481Y006025D03*
X003481Y006027D03*
X003481Y006028D03*
X003481Y006029D03*
X003481Y006030D03*
X003481Y006032D03*
X003481Y006033D03*
X003481Y006034D03*
X003481Y006035D03*
X003481Y006037D03*
X003481Y006038D03*
X003481Y006039D03*
X003481Y006040D03*
X003481Y006042D03*
X003481Y006043D03*
X003481Y006044D03*
X003481Y006045D03*
X003481Y006047D03*
X003481Y006048D03*
X003481Y006049D03*
X003481Y006050D03*
X003481Y006052D03*
X003481Y006053D03*
X003481Y006054D03*
D726*
X002926Y006054D03*
X002926Y006053D03*
X002926Y006052D03*
X002926Y006050D03*
X002926Y006049D03*
X002926Y006048D03*
X002926Y006047D03*
X002926Y006045D03*
X002926Y006044D03*
X002926Y006043D03*
X002926Y006042D03*
X002926Y006040D03*
X002926Y006039D03*
X002926Y006038D03*
X002926Y006037D03*
X002926Y006035D03*
X002926Y006034D03*
X002926Y006033D03*
X002926Y006032D03*
X002926Y006030D03*
X002926Y006029D03*
X002926Y006028D03*
X002926Y006027D03*
X002926Y006025D03*
X002926Y006024D03*
X002926Y006023D03*
X002926Y006022D03*
X002926Y006020D03*
X002926Y006019D03*
X002926Y006018D03*
X002926Y006017D03*
X002926Y006015D03*
X002926Y006014D03*
X002926Y006013D03*
X002926Y006012D03*
X002926Y006010D03*
X002926Y006009D03*
X002926Y006008D03*
X002926Y006007D03*
X002926Y006005D03*
X002926Y006004D03*
X002926Y006003D03*
X002926Y006002D03*
X002926Y006000D03*
X002926Y005999D03*
X002926Y005998D03*
X002926Y005997D03*
X002926Y005995D03*
X002926Y005994D03*
X002926Y005993D03*
X002926Y005992D03*
X002926Y005990D03*
X002926Y005989D03*
X002926Y005988D03*
X002926Y005987D03*
X002926Y005985D03*
X002926Y005984D03*
X002926Y005983D03*
X002926Y005982D03*
X002926Y005980D03*
X002926Y005979D03*
X002926Y005978D03*
X002926Y005977D03*
X002926Y005975D03*
X002926Y005974D03*
X002926Y005973D03*
X002926Y005972D03*
X002926Y005970D03*
X002926Y005969D03*
X002926Y005968D03*
X002926Y005967D03*
X002926Y005965D03*
X002926Y005964D03*
X002926Y005963D03*
X002926Y005962D03*
X002926Y005960D03*
X002926Y005959D03*
X002926Y005958D03*
X002926Y005957D03*
X002926Y005955D03*
X002926Y005954D03*
X002926Y005953D03*
X002926Y005952D03*
X002926Y005950D03*
X002926Y005949D03*
X002926Y005948D03*
X002926Y005947D03*
X002926Y005945D03*
X002926Y005944D03*
X002926Y005943D03*
X002926Y005942D03*
X002926Y005940D03*
X002926Y005939D03*
X002926Y005938D03*
X002926Y005937D03*
X002926Y005935D03*
X002926Y005934D03*
X002926Y005933D03*
X002926Y005932D03*
X002926Y005930D03*
X002926Y005929D03*
X002926Y005928D03*
X002926Y005927D03*
D727*
X003208Y006091D03*
D728*
X003208Y006092D03*
D729*
X003207Y006093D03*
X003207Y006094D03*
X003207Y006094D03*
X003207Y006095D03*
D730*
X003207Y006095D03*
X003207Y006094D03*
X003207Y006093D03*
D731*
X003207Y006096D03*
D732*
X003207Y006096D03*
X003207Y006098D03*
X003207Y006099D03*
D733*
X003207Y006098D03*
X003207Y006097D03*
D734*
X003207Y006099D03*
D735*
X003207Y006099D03*
D736*
X003207Y006100D03*
X003207Y006101D03*
X003207Y006101D03*
D737*
X003207Y006100D03*
D738*
X003207Y006102D03*
D739*
X003207Y006103D03*
D740*
X003207Y006103D03*
D741*
X003207Y006104D03*
X003207Y006104D03*
D742*
X003207Y006104D03*
D743*
X003207Y006105D03*
D744*
X003207Y006105D03*
D745*
X003207Y006106D03*
X003207Y006106D03*
D746*
X003207Y006107D03*
D747*
X003207Y006108D03*
D748*
X003207Y006108D03*
D749*
X003207Y006109D03*
X003207Y006109D03*
D750*
X003207Y006109D03*
D751*
X003207Y006110D03*
X003207Y006111D03*
X003207Y006111D03*
D752*
X003207Y006110D03*
D753*
X003207Y006112D03*
X003207Y006113D03*
D754*
X003207Y006113D03*
X003207Y006114D03*
D755*
X003207Y006114D03*
X003207Y006115D03*
D756*
X003207Y006115D03*
X003207Y006114D03*
D757*
X003207Y006116D03*
X003207Y006116D03*
X003207Y006118D03*
D758*
X003207Y006117D03*
D759*
X003207Y006118D03*
X003207Y006119D03*
D760*
X003207Y006119D03*
X003207Y006119D03*
D761*
X003207Y006120D03*
X003207Y006121D03*
D762*
X003207Y006120D03*
D763*
X003208Y006121D03*
D764*
X003207Y006122D03*
D765*
X003207Y006123D03*
D766*
X003208Y006123D03*
D767*
X003207Y006124D03*
X003207Y006124D03*
D768*
X003207Y006124D03*
D769*
X003208Y006125D03*
D770*
X003207Y006125D03*
D771*
X003207Y006126D03*
D772*
X003208Y006126D03*
D773*
X003207Y006127D03*
D774*
X003207Y006128D03*
D775*
X003208Y006128D03*
D776*
X003207Y006129D03*
X003207Y006129D03*
D777*
X003208Y006129D03*
D778*
X003207Y006130D03*
D779*
X003208Y006130D03*
D780*
X003207Y006131D03*
X003207Y006131D03*
D781*
X003208Y006132D03*
D782*
X003207Y006133D03*
D783*
X003207Y006133D03*
D784*
X003208Y006134D03*
D785*
X003207Y006134D03*
D786*
X003208Y006134D03*
D787*
X003207Y006135D03*
D788*
X003207Y006135D03*
D789*
X003208Y006136D03*
D790*
X003207Y006136D03*
D791*
X003208Y006137D03*
D792*
X003208Y006138D03*
D793*
X003208Y006138D03*
D794*
X003207Y006139D03*
D795*
X003207Y006139D03*
D796*
X003207Y006139D03*
D797*
X003207Y006140D03*
D798*
X003207Y006140D03*
D799*
X003207Y006141D03*
D800*
X003207Y006141D03*
D801*
X003207Y006142D03*
D802*
X003207Y006143D03*
D803*
X003207Y006143D03*
D804*
X003207Y006144D03*
D805*
X003207Y006144D03*
D806*
X003207Y006144D03*
D807*
X003207Y006145D03*
D808*
X003207Y006145D03*
D809*
X003207Y006146D03*
D810*
X003207Y006146D03*
D811*
X003207Y006147D03*
D812*
X003207Y006148D03*
D813*
X003207Y006148D03*
D814*
X003207Y006149D03*
D815*
X003207Y006149D03*
D816*
X003207Y006149D03*
D817*
X003207Y006150D03*
D818*
X003207Y006150D03*
D819*
X003207Y006151D03*
D820*
X003207Y006151D03*
D821*
X003207Y006152D03*
D822*
X003207Y006153D03*
D823*
X003207Y006153D03*
D824*
X003207Y006154D03*
D825*
X003207Y006154D03*
D826*
X003208Y006154D03*
D827*
X003208Y006155D03*
D828*
X003208Y006155D03*
D829*
X003208Y006156D03*
D830*
X003208Y006156D03*
D831*
X003208Y006157D03*
D832*
X003208Y006158D03*
D833*
X003208Y006158D03*
D834*
X003208Y006159D03*
D835*
X003208Y006159D03*
D836*
X003208Y006159D03*
D837*
X003208Y006160D03*
D838*
X003208Y006160D03*
D839*
X003208Y006161D03*
D840*
X003208Y006161D03*
D841*
X003208Y006162D03*
D842*
X003208Y006163D03*
D843*
X003207Y006163D03*
D844*
X003207Y006164D03*
D845*
X003207Y006164D03*
D846*
X003207Y006164D03*
D847*
X003207Y006165D03*
D848*
X003207Y006165D03*
D849*
X003207Y006166D03*
D850*
X003207Y006166D03*
D851*
X003207Y006167D03*
D852*
X003207Y006168D03*
D853*
X003207Y006168D03*
D854*
X003207Y006169D03*
D855*
X003207Y006169D03*
D856*
X003207Y006169D03*
D857*
X003207Y006170D03*
D858*
X003207Y006170D03*
D859*
X003207Y006171D03*
D860*
X003207Y006171D03*
D861*
X003207Y006172D03*
D862*
X003207Y006173D03*
D863*
X003207Y006173D03*
D864*
X003207Y006174D03*
D865*
X003207Y006174D03*
D866*
X003207Y006174D03*
D867*
X003207Y006175D03*
D868*
X003207Y006175D03*
D869*
X003207Y006176D03*
D870*
X003207Y006176D03*
D871*
X003207Y006177D03*
D872*
X003207Y006178D03*
D873*
X003207Y006178D03*
D874*
X003207Y006179D03*
D875*
X003208Y006179D03*
D876*
X003208Y006179D03*
D877*
X003208Y006180D03*
D878*
X003208Y006180D03*
D879*
X003208Y006181D03*
D880*
X003208Y006181D03*
D881*
X003208Y006182D03*
D882*
X003208Y006183D03*
D883*
X003208Y006183D03*
D884*
X003208Y006184D03*
D885*
X003208Y006184D03*
D886*
X003208Y006184D03*
D887*
X003208Y006185D03*
D888*
X003208Y006185D03*
D889*
X003208Y006186D03*
D890*
X003208Y006186D03*
D891*
X003208Y006187D03*
D892*
X003207Y006188D03*
D893*
X003207Y006188D03*
D894*
X003207Y006189D03*
D895*
X003207Y006189D03*
D896*
X003207Y006189D03*
D897*
X003207Y006190D03*
D898*
X003207Y006190D03*
D899*
X003207Y006191D03*
D900*
X003207Y006191D03*
D901*
X003207Y006192D03*
D902*
X003207Y006193D03*
D903*
X003207Y006193D03*
D904*
X003207Y006194D03*
D905*
X003207Y006194D03*
D906*
X003207Y006194D03*
D907*
X003207Y006195D03*
D908*
X003207Y006195D03*
D909*
X003207Y006196D03*
D910*
X003207Y006196D03*
D911*
X003207Y006197D03*
D912*
X003207Y006198D03*
D913*
X003207Y006198D03*
D914*
X003207Y006199D03*
D915*
X003207Y006199D03*
D916*
X003207Y006199D03*
D917*
X003207Y006200D03*
D918*
X003207Y006200D03*
D919*
X003207Y006201D03*
D920*
X003207Y006201D03*
D921*
X003207Y006202D03*
D922*
X003207Y006203D03*
D923*
X003207Y006203D03*
D924*
X003207Y006204D03*
D925*
X003208Y006204D03*
D926*
X003208Y006204D03*
D927*
X003208Y006205D03*
D928*
X003208Y006205D03*
D929*
X003208Y006206D03*
D930*
X003208Y006206D03*
D931*
X003208Y006207D03*
D932*
X003208Y006208D03*
D933*
X003208Y006208D03*
D934*
X003208Y006209D03*
D935*
X003208Y006209D03*
D936*
X003208Y006209D03*
D937*
X003208Y006210D03*
D938*
X003208Y006210D03*
D939*
X003208Y006211D03*
D940*
X003207Y006211D03*
D941*
X003207Y006212D03*
D942*
X003207Y006213D03*
D943*
X003207Y006213D03*
D944*
X003207Y006214D03*
D945*
X003207Y006214D03*
D946*
X003207Y006214D03*
D947*
X003207Y006215D03*
D948*
X003207Y006215D03*
D949*
X003207Y006216D03*
D950*
X003207Y006216D03*
D951*
X003207Y006217D03*
D952*
X003207Y006218D03*
D953*
X003207Y006218D03*
D954*
X003207Y006219D03*
D955*
X003207Y006219D03*
D956*
X003207Y006219D03*
D957*
X003207Y006220D03*
D958*
X003207Y006220D03*
D959*
X003207Y006221D03*
D960*
X003207Y006221D03*
D961*
X003207Y006222D03*
D962*
X003207Y006223D03*
D963*
X003207Y006223D03*
D964*
X003207Y006224D03*
D965*
X003207Y006224D03*
D966*
X003207Y006224D03*
D967*
X003207Y006225D03*
D968*
X003207Y006225D03*
D969*
X003207Y006226D03*
D970*
X003207Y006226D03*
D971*
X003207Y006227D03*
D972*
X003207Y006228D03*
D973*
X003207Y006228D03*
D974*
X003208Y006229D03*
D975*
X003208Y006229D03*
D976*
X003208Y006229D03*
D977*
X003208Y006230D03*
D978*
X003208Y006230D03*
D979*
X003208Y006231D03*
D980*
X003208Y006231D03*
D981*
X003208Y006232D03*
D982*
X003208Y006233D03*
D983*
X003208Y006233D03*
D984*
X003208Y006234D03*
D985*
X003208Y006234D03*
D986*
X003208Y006234D03*
D987*
X003208Y006235D03*
D988*
X003208Y006235D03*
D989*
X003207Y006236D03*
D990*
X003207Y006236D03*
D991*
X003207Y006237D03*
D992*
X003207Y006238D03*
D993*
X003207Y006238D03*
D994*
X003207Y006239D03*
D995*
X003207Y006239D03*
D996*
X003207Y006239D03*
D997*
X003207Y006240D03*
D998*
X003207Y006240D03*
D999*
X003207Y006241D03*
D1000*
X003207Y006241D03*
D1001*
X003207Y006242D03*
D1002*
X003207Y006243D03*
D1003*
X003207Y006243D03*
D1004*
X003207Y006244D03*
D1005*
X003207Y006244D03*
D1006*
X003207Y006244D03*
D1007*
X003207Y006245D03*
D1008*
X003207Y006245D03*
D1009*
X003207Y006246D03*
D1010*
X003207Y006246D03*
D1011*
X003207Y006247D03*
D1012*
X003207Y006248D03*
D1013*
X003207Y006248D03*
D1014*
X003207Y006249D03*
D1015*
X003207Y006249D03*
D1016*
X003207Y006249D03*
D1017*
X003207Y006250D03*
D1018*
X003207Y006250D03*
D1019*
X003207Y006251D03*
D1020*
X003207Y006251D03*
D1021*
X003207Y006252D03*
D1022*
X003207Y006253D03*
D1023*
X003208Y006253D03*
D1024*
X003208Y006254D03*
D1025*
X003208Y006254D03*
D1026*
X003208Y006254D03*
D1027*
X003208Y006255D03*
D1028*
X003208Y006255D03*
D1029*
X003208Y006256D03*
D1030*
X003208Y006256D03*
D1031*
X003208Y006257D03*
D1032*
X003208Y006258D03*
D1033*
X003208Y006258D03*
D1034*
X003208Y006259D03*
D1035*
X003208Y006259D03*
D1036*
X003208Y006259D03*
D1037*
X003208Y006260D03*
D1038*
X003207Y006260D03*
D1039*
X003207Y006261D03*
D1040*
X003207Y006261D03*
D1041*
X003207Y006262D03*
D1042*
X003207Y006263D03*
D1043*
X003207Y006263D03*
D1044*
X003207Y006264D03*
D1045*
X003207Y006264D03*
D1046*
X003207Y006264D03*
D1047*
X003207Y006265D03*
D1048*
X003207Y006265D03*
D1049*
X003207Y006266D03*
D1050*
X003207Y006266D03*
D1051*
X003207Y006267D03*
D1052*
X003207Y006268D03*
D1053*
X003207Y006268D03*
D1054*
X003207Y006269D03*
D1055*
X003207Y006269D03*
D1056*
X003207Y006269D03*
D1057*
X003207Y006270D03*
D1058*
X003207Y006270D03*
D1059*
X003207Y006271D03*
D1060*
X003208Y006271D03*
D1061*
X003207Y006272D03*
D1062*
X003207Y006273D03*
D1063*
X003207Y006273D03*
D1064*
X003207Y006274D03*
D1065*
X003207Y006274D03*
D1066*
X003208Y006274D03*
D1067*
X003208Y006275D03*
D1068*
X003208Y006275D03*
D1069*
X003208Y006276D03*
D1070*
X003208Y006276D03*
D1071*
X003208Y006277D03*
D1072*
X003208Y006278D03*
D1073*
X003208Y006278D03*
D1074*
X003208Y006279D03*
D1075*
X003208Y006279D03*
D1076*
X003208Y006279D03*
D1077*
X003208Y006280D03*
D1078*
X003208Y006280D03*
D1079*
X003208Y006281D03*
D1080*
X003208Y006281D03*
D1081*
X003711Y005228D02*
X003710Y005228D01*
X003710Y005228D01*
X003711Y005228D01*
X003711Y005228D01*
X003711Y005227D01*
X003711Y005228D02*
X003711Y005228D01*
X003711Y005228D01*
X003712Y005228D01*
X003712Y005228D01*
X003712Y005228D01*
X003712Y005228D01*
X003712Y005228D01*
X003712Y005228D01*
X003712Y005228D01*
X003712Y005228D01*
X003712Y005228D01*
X003713Y005228D01*
X003713Y005228D01*
X003713Y005228D01*
X003712Y005228D01*
X003713Y005229D02*
X003713Y005228D01*
X003713Y005228D01*
X003713Y005228D01*
X003714Y005228D02*
X003714Y005228D01*
X003714Y005228D01*
X003714Y005228D01*
X003714Y005228D01*
X003714Y005228D01*
X003714Y005228D01*
X003714Y005228D01*
X003714Y005228D01*
X003715Y005228D02*
X003715Y005228D01*
X003715Y005228D01*
X003715Y005228D01*
X003715Y005227D01*
X003715Y005227D01*
X003715Y005227D01*
X003715Y005228D02*
X003715Y005228D01*
X003715Y005228D01*
X003716Y005228D02*
X003716Y005228D01*
X003716Y005228D01*
X003716Y005228D01*
X003716Y005228D01*
X003716Y005228D01*
X003716Y005228D01*
X003716Y005228D01*
X003716Y005228D01*
X003717Y005228D01*
X003717Y005229D02*
X003717Y005229D01*
X003717Y005228D01*
X003718Y005227D02*
X003717Y005227D01*
X003718Y005228D02*
X003718Y005228D01*
X003718Y005228D01*
X003718Y005228D01*
X003718Y005229D02*
X003718Y005229D01*
X003719Y005228D02*
X003719Y005228D01*
X003719Y005228D01*
X003719Y005228D01*
X003719Y005228D01*
X003719Y005228D01*
X003719Y005228D01*
X003719Y005228D01*
X003720Y005228D02*
X003720Y005229D01*
X003721Y005228D02*
X003721Y005228D01*
X003721Y005228D01*
X003721Y005228D01*
X003721Y005228D01*
X003722Y005228D01*
X003722Y005228D01*
X003722Y005228D01*
X003723Y005228D01*
X003723Y005228D01*
X003723Y005228D01*
X003722Y005228D01*
X003722Y005228D01*
X003722Y005228D01*
X003722Y005228D01*
X003721Y005228D01*
X003720Y005228D01*
X003720Y005228D01*
X003721Y005228D01*
X003721Y005228D01*
X003722Y005228D02*
X003723Y005228D01*
X003723Y005228D01*
X003724Y005228D01*
X003724Y005228D01*
X003724Y005228D01*
X003723Y005228D01*
X003723Y005229D02*
X003723Y005229D01*
X003725Y005228D02*
X003725Y005229D01*
X003726Y005228D02*
X003726Y005228D01*
X003726Y005228D01*
X003726Y005228D01*
X003726Y005228D01*
X003726Y005228D01*
X003726Y005228D01*
X003726Y005228D01*
X003726Y005228D01*
X003727Y005228D02*
X003727Y005228D01*
X003727Y005228D01*
X003727Y005228D01*
X003727Y005228D01*
X003727Y005228D01*
X003727Y005228D01*
X003727Y005228D01*
X003728Y005228D01*
X003728Y005228D01*
X003728Y005228D01*
X003728Y005228D01*
X003728Y005228D01*
X003728Y005228D01*
X003729Y005228D01*
X003729Y005228D01*
X003729Y005228D01*
X003729Y005229D01*
X003730Y005228D01*
X003728Y005228D02*
X003728Y005228D01*
X003727Y005228D02*
X003727Y005228D01*
X003728Y005228D01*
M02*
