G75*
%MOIN*%
%OFA0B0*%
%FSLAX24Y24*%
%IPPOS*%
%LPD*%
%AMOC8*
5,1,8,0,0,1.08239X$1,22.5*
%
%ADD10R,0.0114X0.0276*%
%ADD11R,0.0276X0.0114*%
%ADD12R,0.0433X0.0394*%
%ADD13R,0.0394X0.0433*%
D10*
X002688Y003442D03*
X002885Y003442D03*
X003082Y003442D03*
X003278Y003442D03*
X003475Y003442D03*
X003672Y003442D03*
X003672Y004918D03*
X003475Y004918D03*
X003278Y004918D03*
X003082Y004918D03*
X002885Y004918D03*
X002688Y004918D03*
D11*
X002442Y004672D03*
X002442Y004475D03*
X002442Y004278D03*
X002442Y004082D03*
X002442Y003885D03*
X002442Y003688D03*
X003918Y003688D03*
X003918Y003885D03*
X003918Y004082D03*
X003918Y004278D03*
X003918Y004475D03*
X003918Y004672D03*
D12*
X003984Y005805D03*
X003276Y005805D03*
X004801Y005805D03*
X005509Y005805D03*
X005534Y003005D03*
X005534Y002430D03*
X004826Y002430D03*
X004826Y003005D03*
D13*
X002680Y002076D03*
X002680Y002784D03*
X001530Y003576D03*
X001530Y004284D03*
X000730Y004284D03*
X000730Y003576D03*
X004118Y002784D03*
X004118Y002076D03*
X004930Y003576D03*
X004930Y004284D03*
X005680Y004284D03*
X005680Y003576D03*
M02*
