G75*
%MOIN*%
%OFA0B0*%
%FSLAX24Y24*%
%IPPOS*%
%LPD*%
%AMOC8*
5,1,8,0,0,1.08239X$1,22.5*
%
%ADD10R,0.0194X0.0356*%
%ADD11R,0.0356X0.0194*%
%ADD12R,0.0513X0.0474*%
%ADD13R,0.0474X0.0513*%
%ADD14R,0.0580X0.0330*%
%ADD15R,0.0820X0.0820*%
%ADD16C,0.0820*%
D10*
X002733Y003442D03*
X002930Y003442D03*
X003127Y003442D03*
X003323Y003442D03*
X003520Y003442D03*
X003717Y003442D03*
X003717Y004918D03*
X003520Y004918D03*
X003323Y004918D03*
X003127Y004918D03*
X002930Y004918D03*
X002733Y004918D03*
D11*
X002487Y004672D03*
X002487Y004475D03*
X002487Y004278D03*
X002487Y004082D03*
X002487Y003885D03*
X002487Y003688D03*
X003963Y003688D03*
X003963Y003885D03*
X003963Y004082D03*
X003963Y004278D03*
X003963Y004475D03*
X003963Y004672D03*
D12*
X004029Y005805D03*
X003321Y005805D03*
X004846Y005805D03*
X005554Y005805D03*
X005579Y003005D03*
X005579Y002430D03*
X004871Y002430D03*
X004871Y003005D03*
D13*
X004975Y003576D03*
X004975Y004284D03*
X005725Y004284D03*
X005725Y003576D03*
X004163Y002784D03*
X004163Y002076D03*
X002725Y002076D03*
X002725Y002784D03*
X001575Y003576D03*
X001575Y004284D03*
X000775Y004284D03*
X000775Y003576D03*
D14*
X000775Y004772D03*
X000775Y005092D03*
X001575Y005092D03*
X001575Y004772D03*
X004975Y004772D03*
X004975Y005092D03*
X005725Y005092D03*
X005725Y004772D03*
D15*
X000725Y000680D03*
D16*
X001725Y000680D03*
X002725Y000680D03*
X003725Y000680D03*
X004725Y000680D03*
X005725Y000680D03*
X005725Y007180D03*
X004725Y007180D03*
X003725Y007180D03*
X002725Y007180D03*
X001725Y007180D03*
X000725Y007180D03*
M02*
